<?xml version="1.0" encoding="UTF-8"?>
<svg width="230px" height="160px" viewBox="0 0 230 160" version="1.1" xmlns="http://www.w3.org/2000/svg" xmlns:xlink="http://www.w3.org/1999/xlink">
    <title>Asset 6</title>
    <g stroke="none" stroke-width="1" fill="none" fill-rule="evenodd">
        <g id="Tour-Home---Desktop" transform="translate(-241.000000, -3370.000000)">
            <g id="Group-7" transform="translate(242.000000, 3395.000000)">
                <g id="Asset-6">
                    <path d="M100.118083,-12.9524019 L101.800066,-12.9524019 C105.931156,-12.9524019 109.280066,-9.60349179 109.280066,-5.47240187 L109.280066,109.248719 C109.280066,113.379809 105.931156,116.728719 101.800066,116.728719 L100.118083,116.728719 C95.9869932,116.728719 92.6380831,113.379809 92.6380831,109.248719 L92.6380831,-5.47240187 C92.6380831,-9.60349179 95.9869932,-12.9524019 100.118083,-12.9524019 Z" id="Rectangle" fill="#F2F2F2" transform="translate(100.959074, 51.888158) rotate(50.100000) translate(-100.959074, -51.888158) "></path>
                    <path d="M115.031477,-24.698172 L116.71346,-24.698172 C120.84455,-24.698172 124.19346,-21.3492619 124.19346,-17.218172 L124.19346,152.166828 C124.19346,156.297918 120.84455,159.646828 116.71346,159.646828 L115.031477,159.646828 C110.900387,159.646828 107.551477,156.297918 107.551477,152.166828 L107.551477,-17.218172 C107.551477,-21.3492619 110.900387,-24.698172 115.031477,-24.698172 Z" id="Rectangle" fill="#F2F2F2" transform="translate(115.872469, 67.474328) rotate(50.100000) translate(-115.872469, -67.474328) "></path>
                    <path d="M129.870201,19.6891625 L131.552183,19.6891625 C135.683273,19.6891625 139.032183,23.0380726 139.032183,27.1691625 L139.032183,141.890283 C139.032183,146.021373 135.683273,149.370283 131.552183,149.370283 L129.870201,149.370283 C125.739111,149.370283 122.390201,146.021373 122.390201,141.890283 L122.390201,27.1691625 C122.390201,23.0380726 125.739111,19.6891625 129.870201,19.6891625 Z" id="Rectangle" fill="#F2F2F2" transform="translate(130.711192, 84.529723) rotate(50.100000) translate(-130.711192, -84.529723) "></path>
                    <path d="M149.619914,61.3463362 C149.886422,78.71875 138.100819,97.0091379 125.071509,99.8420259 C123.738966,100.138147 118.162026,100.078922 106.869957,99.9703448 C95.5778879,99.8617672 90.0897845,99.7926724 88.7967241,99.5162931 C75.6094828,96.7327586 63.0243534,78.9655172 63.0243534,61.3463362 C63.0243534,40.1737069 81.2160345,18.0534914 106.317198,18.0534914 C131.625647,18.0534914 149.294181,40.5290517 149.619914,61.3463362 Z" id="Path" fill="#FFFFFF"></path>
                    <polygon id="Path" points="228.358405 112.871336 4.29375 112.871336 4.29375 101.026509 228.358405 101.026509"></polygon>
                    <path d="M87.2075431,67.4661638 C86.3882759,67.7425431 84.7694828,62.530819 80.2980603,57.5954741 C78.5507413,55.695821 76.5592481,54.0362434 74.3756466,52.6601293 C72.2057136,42.4354162 75.7813764,31.8408598 83.7034483,25.0221983 C92.2712069,17.875819 106.208621,15.615431 112.92069,21.3700431 C114.908642,23.0083559 116.225832,25.3195848 116.622198,27.8649569 C116.750517,29.0198276 116.839353,32.3265086 111.884267,37.8244828 C105.547284,44.8622845 101.233793,44.0627586 93.1299569,51.6434483 C93.1299569,51.6434483 87.2075431,56.805819 87.2075431,61.5141379 L87.2075431,63.4882759 C87.6912069,66.6172845 87.4937931,67.3773276 87.2075431,67.4661638 Z" id="Path" fill="#FFC239"></path>
                    <path d="M93.0115086,73.1911638 C83.3086207,70.8715517 74.3855172,58.2864224 64.5049569,59.125431 C64.7064682,46.4644919 71.3239496,34.7723689 82.0747845,28.0821121 C88.6782759,24.0153879 101.253534,18.6852155 107.501681,24.9136207 C118.448276,35.8207328 99.90125,48.8401724 93.3273707,55.0784483 C90.7708621,57.5066379 87.3259914,59.5498707 88.5598276,63.6955603 C89.9812069,68.4828448 96.0911638,68.7098707 98.6378017,72.1744828 C97.2460345,73.4181897 94.7586207,73.6057328 93.0115086,73.1911638 Z" id="Path" fill="#FFA71C"></path>
                    <path d="M91.5407759,99.0523707 C76.9633851,91.8476258 67.6614198,77.0727946 67.4661638,60.813319 C72.4015086,60.6159052 76.1227586,63.132931 79.6169828,66.1336207 C84.6806466,70.4767241 85.7368103,72.0560345 90.5537069,74.3657759 C97.6408621,77.8106466 106.238233,77.5638793 106.948922,75.5107759 C107.432586,74.1288793 104.510862,71.9474569 103.987716,71.5625 C101.026509,69.3613362 97.9073707,69.3613362 96.0911638,67.6142241 C95.4718288,66.9462048 94.9288793,66.2112366 94.4723707,65.422931 C94.2749569,65.0379741 94.1170259,64.6530172 94.1170259,64.6530172 L94.1170259,64.564181 C93.9151915,63.8443401 93.9151915,63.0828582 94.1170259,62.3630172 C94.3121136,61.4889711 94.5829352,60.6335712 94.9264224,59.8065086 C96.4267672,56.8453017 106.899569,48.0406466 108.439397,46.6982328 C119.109612,37.3309483 121.567414,31.1617672 112.970043,20.1164655 C118.833233,21.2121121 127.657629,21.7056466 132.040216,26.1079741 C136.97556,31.043319 130.38194,33.1457759 131.694741,38.9398707 C133.668879,47.8234914 140.578362,41.3878017 143.539569,37.9528017 C146.036853,40.4599569 147.004181,45.2768534 148.030733,48.6427586 C148.445302,50.0049138 150.587241,54.10125 150.449052,54.7823276 C150.449052,54.9501293 150.379957,55.5423707 150.054224,55.6706897 C149.728491,55.7990086 149.215216,54.96 148.474914,54.7823276 C147.487845,54.5355603 146.500776,55.7693966 144.526638,57.7435345 C141.802328,60.5665517 141.999741,60.0828879 141.565431,60.7047414 C139.305043,63.962069 141.160733,66.6271552 139.591293,70.575431 C138.850991,72.4311207 137.903405,73.2010345 135.643017,75.5107759 C128.141293,83.2296552 124.38056,87.0890948 123.354009,91.8270259 C122.672931,94.9560345 123.294784,97.0091379 123.482328,98.7365086" id="Path" fill="#ACD7FC"></path>
                    <path d="M127.124612,92.3403017 C126.906021,89.9989236 127.445849,87.6492895 128.66444,85.6381034 C130.154271,83.3881573 132.044598,81.4309161 134.241379,79.86375 C141.417371,74.1782328 141.930647,70.9801293 142.384698,68.4631034 C142.779526,66.1632328 143.371767,64.3963793 147.181853,62.4321121 L149.313922,61.3463362 L149.4225,63.8534914 C149.491602,65.0369663 149.491602,66.2234648 149.4225,67.4069397 C149.058194,74.982966 145.8007,82.1303743 140.321724,87.3753448 C137.160512,90.3730611 133.324889,92.56678 129.138233,93.7715517 L127.292414,94.2946983 L127.124612,92.3403017 Z" id="Path" fill="#FFA71C"></path>
                    <path d="M0.839008621,99.5459052 L224.903664,99.5459052" id="Path" stroke="#000000" stroke-width="1.7" stroke-linecap="round"></path>
                    <path d="M9.72262931,106.455388 L33.905819,106.455388" id="Path" stroke="#000000" stroke-width="1.7" stroke-linecap="round"></path>
                    <path d="M42.2959052,106.455388 L73.8821121,106.455388" id="Path" stroke="#000000" stroke-width="1.7" stroke-linecap="round"></path>
                    <path d="M115.339009,106.455388 L211.578233,106.455388" id="Path" stroke="#000000" stroke-width="1.7" stroke-linecap="round"></path>
                    <path d="M37.3605603,106.455388 L38.3476293,106.455388" id="Path" stroke="#000000" stroke-width="1.7" stroke-linecap="round"></path>
                    <polygon id="Rectangle" fill="#FFFFFF" transform="translate(147.488116, 21.127663) rotate(45.000000) translate(-147.488116, -21.127663) " points="125.274129 16.1232236 169.702103 16.1232236 169.702103 26.1321029 125.274129 26.1321029"></polygon>
                    <polygon id="Path" fill="#FFFFFF" points="141.98 31.9810345 133.649138 36.4623276 137.725733 18.6950862 148.316983 16.9183621"></polygon>
                    <path d="M170.220043,32.1685776 L161.800345,34.4190948 C161.604369,32.7008472 162.184835,30.9847109 163.383603,29.7382212 C164.582371,28.4917316 166.274552,27.8447491 167.999138,27.9735345 L170.091724,29.069181 C170.131207,30.0957328 170.18056,31.1321552 170.220043,32.1685776 Z" id="Path" fill="#FFFFFF"></path>
                    <polygon id="Path" fill="#FFFFFF" points="160.477672 41.9701724 154.308491 45.0498276 156.707069 35.0212069 162.935474 34.0341379"></polygon>
                    <polygon id="Path" fill="#FFFFFF" points="150.409569 18.7543103 144.664828 11.607931 162.925603 6.11982759 164.16931 10.8577586"></polygon>
                    <path d="M142.137931,64.1594828 C141.624655,68.41375 140.953448,73.9314655 129.108621,83.8120259 C126.049112,86.1439388 123.440121,89.0138284 121.409483,92.2810776 C119.911364,94.9309233 119.354698,98.0099843 119.830172,101.016638 C136.828561,95.4529443 148.328087,79.5972955 148.336724,61.7115517 C148.335384,59.9925363 148.229903,58.2751808 148.020862,56.5689224 C142.680819,59.4314224 142.434052,61.4253017 142.137931,64.1594828 Z" id="Path"></path>
                    <path d="M49.935819,55.8384914 L50.1233621,55.8384914 C50.7742716,55.8378318 51.3215764,55.3499245 51.396681,54.7033621 C51.6138362,52.9759914 51.9000862,51.2782328 52.255431,49.6693103 L52.255431,49.5903448 C52.3689782,49.2710061 52.3505277,48.9195757 52.2041655,48.6138826 C52.0578033,48.3081894 51.7956081,48.073461 51.4756466,47.961681 C51.1552298,47.8422019 50.8000661,47.857709 50.4912822,48.0046604 C50.1824984,48.1516117 49.9464704,48.4174548 49.8371121,48.7414655 C49.8001513,48.8398097 49.7769015,48.9427729 49.7680172,49.0474569 L49.7680172,49.1362931 C49.4028017,50.8044397 49.0968103,52.5811638 48.8796552,54.3973707 C48.7950514,55.0815006 49.2579694,55.7131458 49.935819,55.8384914 Z" id="Path" fill="#000000"></path>
                    <path d="M61.7510345,94.590819 C60.7639655,93.1990517 59.7768966,91.7678017 58.9477586,90.3365517 C58.7160653,89.9474138 58.2951139,89.7106286 57.8422414,89.7146983 C57.6175967,89.7152397 57.3967914,89.7729888 57.2006466,89.8825 C56.9081152,90.0533836 56.6957435,90.3337995 56.6105282,90.661693 C56.5253129,90.9895866 56.5742806,91.3379211 56.7465948,91.6296121 C57.6744397,93.1793103 58.6615086,94.6697845 59.7078017,96.0714224 C59.9448312,96.3759906 60.3089376,96.5544028 60.6948707,96.5550862 C60.9845743,96.5537024 61.2656839,96.4565287 61.4943966,96.2787069 C61.9961201,95.8628631 62.1064863,95.1369936 61.7510345,94.590819 Z" id="Path" fill="#000000"></path>
                    <path d="M53.3017241,77.4849138 C53.1415062,76.9405821 52.6451337,76.5642997 52.0777586,76.557069 C51.9564866,76.541997 51.8338151,76.541997 51.7125431,76.557069 C51.033469,76.7616738 50.6459356,77.4750877 50.8439224,78.1561207 C51.3571983,79.8834914 51.9494397,81.5911207 52.6009052,83.2395259 C52.8010549,83.7285482 53.2767333,84.0482665 53.8051293,84.0489224 C53.9715222,84.0506508 54.1363835,84.0170056 54.2887931,83.9502155 C54.6089899,83.8229534 54.8651524,83.5731596 55.0004338,83.2562675 C55.1357152,82.9393755 55.1389259,82.5815965 55.0093534,82.2623276 C54.2887931,80.6632759 53.7557759,79.0346121 53.3017241,77.4849138 Z" id="Path" fill="#000000"></path>
                    <path d="M53.2425,41.8418534 C53.3901143,41.9005957 53.5475494,41.9307429 53.7064224,41.9306897 C54.2337314,41.934228 54.7086631,41.6123735 54.9007759,41.1212931 C55.5155318,39.5244599 56.2174048,37.9625453 57.0032328,36.4425862 C57.3176103,35.8100929 57.0617308,35.0424543 56.4307328,34.7250862 C56.2495998,34.6354574 56.050453,34.5882023 55.8483621,34.5868966 C55.3630031,34.5881829 54.9199059,34.8632088 54.7033621,35.2975862 C53.8840948,36.9163793 53.1536638,38.5647845 52.5219397,40.232931 C52.2974096,40.8754642 52.6136198,41.5815225 53.2425,41.8418534 Z" id="Path" fill="#000000"></path>
                    <path d="M48.9092672,69.0948276 C49.0001619,69.7165695 49.5248635,70.1829709 50.1529741,70.2003448 L50.3898707,70.2003448 C50.7125295,70.1436811 51.0036487,69.9718156 51.2091379,69.716681 C51.4147637,69.4538827 51.5071287,69.1199478 51.4657759,68.7888362 C51.2486207,67.0713362 51.110431,65.3637069 51.0512069,63.7153017 C51.0248307,63.0243164 50.4594894,62.4763701 49.7680172,62.4715948 L49.7186638,62.4715948 C49.3775799,62.4826783 49.0547071,62.6281485 48.820431,62.8762931 C48.5899437,63.1248714 48.469016,63.4556442 48.4848276,63.7942672 C48.5144676,65.5682995 48.6562302,67.3386837 48.9092672,69.0948276 Z" id="Path" fill="#000000"></path>
                    <path d="M94.6006897,5.55719828 C94.6506119,6.07496089 95.0037084,6.51342135 95.4989224,6.67258621 L96.3675431,6.67258621 C98.0060776,6.35672414 99.6840948,6.1099569 101.371983,5.94215517 C102.043953,5.86091246 102.539562,5.27520418 102.508475,4.59905471 C102.477388,3.92290525 101.930125,3.3851451 101.253534,3.36590517 L101.125216,3.36590517 C99.2991379,3.55344828 97.5224138,3.81008621 95.8345259,4.14568966 L95.7456897,4.14568966 C95.0419548,4.22337639 94.5315588,4.85257154 94.6006897,5.55719828 Z" id="Path" fill="#000000"></path>
                    <path d="M59.7867672,29.0790517 C60.0049273,29.2364666 60.2679407,29.3195234 60.5369397,29.3159483 L60.7935776,29.3159483 C61.1104986,29.2466794 61.3912669,29.06418 61.5832328,28.8026724 C62.6295259,27.3615517 63.6955603,26.0191379 64.7615948,24.8050431 C64.9894636,24.548544 65.1060505,24.2119987 65.0856861,23.869506 C65.0653217,23.5270133 64.9096756,23.2066549 64.6530172,22.9789655 C64.4153245,22.7705315 64.1104,22.6548704 63.7942672,22.6532328 C63.4174273,22.6460121 63.056469,22.8048337 62.8071983,23.0875431 C61.6523276,24.4102155 60.527069,25.8118534 59.4807759,27.2727155 C59.0676258,27.8487649 59.195305,28.6500616 59.7670259,29.069181 L59.7867672,29.0790517 Z" id="Path" fill="#000000"></path>
                    <path d="M110.285216,5.69538793 C112.121164,5.83357759 113.769569,6.02112069 115.329138,6.25801724 L115.723966,6.25801724 C116.232894,6.26793665 116.69957,5.97609273 116.913423,5.51416947 C117.127277,5.0522462 117.047871,4.50758649 116.711034,4.12594828 C116.492507,3.86242547 116.174315,3.70154184 115.832543,3.68176724 C114.055819,3.41525862 112.269224,3.22771552 110.512241,3.12900862 L110.433276,3.12900862 C109.72459,3.10720291 109.132409,3.66402945 109.110603,4.37271552 C109.088798,5.08140159 109.645624,5.67358219 110.35431,5.69538793 L110.285216,5.69538793 Z" id="Path" fill="#000000"></path>
                    <path d="M69.0948276,17.4809914 C69.067264,17.820243 69.173549,18.156812 69.3909483,18.4187069 C69.6337378,18.7135644 69.9960668,18.883859 70.3780172,18.8826293 C70.6780272,18.8868187 70.9692839,18.7815452 71.1972845,18.5865086 C72.4706034,17.5204741 73.8327586,16.4840517 75.2640086,15.5068534 C75.7146329,15.1779682 75.9011292,14.5956098 75.7253888,14.0661355 C75.5496484,13.5366612 75.0519421,13.1813999 74.4940948,13.1872414 C74.2515454,13.1873264 74.0144898,13.2594738 73.8130172,13.3945259 C72.4113793,14.3815948 70.9801293,15.4377586 69.5488793,16.6123707 C69.2876911,16.8297281 69.1242148,17.1424653 69.0948276,17.4809914 Z" id="Path" fill="#000000"></path>
                    <path d="M81.2456466,9.41663793 C81.1092124,9.80913829 81.1697212,10.2432921 81.4082783,10.5835293 C81.6468354,10.9237664 82.0343705,11.128626 82.4498707,11.1341379 C82.6314082,11.129161 82.809781,11.0854092 82.9730172,11.005819 C84.4931034,10.2852586 86.0822845,9.62392241 87.6912069,9.03168103 C88.3674575,8.83967447 88.7664248,8.14257782 88.5894397,7.46224138 C88.4494754,6.88745566 87.9372859,6.48095612 87.3457328,6.47517241 C87.2343256,6.46081463 87.1215364,6.46081463 87.0101293,6.47517241 C86.9482916,6.48597648 86.8884095,6.50593716 86.8324569,6.53439655 C85.1511814,7.13213155 83.5036365,7.82080531 81.8971121,8.59737069 C81.5733837,8.76545346 81.3364879,9.06336793 81.2456466,9.41663793 Z" id="Path" fill="#000000"></path>
                    <path d="M162.757802,74.6520259 C162.649709,74.6375135 162.540162,74.6375135 162.432069,74.6520259 C161.839267,74.6542663 161.325159,75.0622885 161.188362,75.6390948 C160.773867,77.2885026 160.276409,78.9159453 159.697888,80.5152155 C159.523655,81.1651263 159.881027,81.8392454 160.516717,82.0597906 C161.152406,82.2803359 161.850492,81.9723963 162.116207,81.3542241 C162.698578,79.735431 163.221724,78.0278017 163.685647,76.2609483 C163.784657,75.9243096 163.741489,75.56181 163.566191,75.2578372 C163.390894,74.9538643 163.098762,74.7349391 162.757802,74.6520259 Z" id="Path" fill="#000000"></path>
                    <path d="M161.15875,47.5273707 C161.553578,49.0573276 161.918793,50.7353448 162.214914,52.4627155 C162.324728,53.0687619 162.852576,53.5093282 163.468491,53.5090086 L163.725129,53.5090086 C164.392587,53.3654241 164.828024,52.7209772 164.712198,52.0481466 C164.416078,50.251681 164.050862,48.4946983 163.616552,46.8364224 C163.446606,46.3017895 162.953528,45.9359577 162.392586,45.928319 C162.265263,45.9287443 162.13876,45.9487185 162.0175,45.9875431 C161.371451,46.1958505 160.996455,46.8682561 161.15875,47.5273707 Z" id="Path" fill="#000000"></path>
                    <path d="M126.08819,99.0523707 L131.280172,99.0523707 C141.659298,92.2413631 148.729623,81.4122371 150.790272,69.1701053 C152.850922,56.9279736 149.715373,44.38095 142.137931,34.5474138 L141.881293,34.221681 L142.088578,33.8465948 L145.365647,27.924181 L145.770345,27.2036207 L146.372457,27.7761207 L153.982759,34.9521121 L154.269009,35.2186207 L154.160431,35.6035776 L152.324483,41.6740517 C152.183961,42.1114204 152.298062,42.5906432 152.620603,42.9177586 C155.335043,45.5927155 156.15431,46.4218534 156.410948,46.6982328 C156.578706,46.7847257 156.765107,46.828784 156.953836,46.8265517 C157.389751,46.8251895 157.792044,46.5920854 158.01,46.214569 L163.034181,36.9953448 L163.123017,36.8374138 L163.280948,36.7387069 L172.342241,31.8033621 C172.641816,31.6707846 172.873782,31.4209746 172.983836,31.1124138 C173.123621,30.7982376 173.123621,30.4395211 172.983836,30.1253448 C172.92584,29.9971301 172.845641,29.8801736 172.74694,29.7798707 L169.341552,26.2362931 C169.1187,26.0073186 168.812185,25.8790101 168.492672,25.8809483 C168.368514,25.8805834 168.245137,25.9005905 168.127457,25.9401724 L161.978017,27.8353448 L161.59306,27.9439224 L161.326552,27.6576724 L154.14069,20.0375 L153.56819,19.4353879 L154.28875,19.0306897 L170.417457,10.0483621 C170.716534,9.91310974 170.948753,9.66339921 171.061969,9.35530444 C171.175184,9.04720966 171.159907,8.70655181 171.019569,8.40982759 C170.961572,8.2816129 170.881374,8.16465638 170.782672,8.06435345 L166.252026,3.5337069 C166.022373,3.31743467 165.718604,3.19734011 165.403147,3.19810345 C165.279044,3.19842752 165.155776,3.21841682 165.037931,3.25732759 L144.635216,9.42650862 L144.260129,9.5449569 L143.98375,9.24883621 L137.103879,1.97413793 C136.054051,0.727422562 134.509074,0.00547067319 132.879224,1.6904677e-15 C132.150508,-0.00238568341 131.428769,0.141961999 130.757026,0.424439655 L130.638578,0.424439655 L130.520129,0.424439655 C128.867678,1.14640406 127.558845,2.47999884 126.867974,4.14568966 C126.693635,4.58470102 126.567858,5.04147108 126.492888,5.50784483 L126.344828,6.31724138 L125.614397,6.07047414 L124.834612,5.80396552 C124.710162,5.76428864 124.580276,5.74430613 124.449655,5.74474138 C123.89095,5.74025741 123.394588,6.10051985 123.22569,6.63310345 C123.011756,7.30874206 123.381534,8.03069136 124.054828,8.25189655 C124.923448,8.53814655 125.841422,8.86387931 127.016034,9.31793103 L127.223319,9.38702586 L127.331897,9.57456897 C127.613313,10.0007756 127.944689,10.391799 128.318966,10.7393103 L135.554181,17.6487931 L135.840431,17.9251724 L135.731853,18.3002586 L133.649138,25.2097414 L133.3925,26.0684914 L132.662069,25.5453448 C125.124764,20.1447517 116.083126,17.2447991 106.810733,17.2539655 C92.4083033,17.2240223 78.8800515,24.1591359 70.4964655,35.8700862 C63.6320296,45.5002293 60.8757664,57.4634675 62.8343979,69.1263959 C64.7930293,80.7893243 71.3060041,91.1959191 80.9396552,98.055431 C81.423319,98.4009052 81.9267241,98.7365086 82.4005172,99.0425 L87.9379741,99.0425 C85.493183,97.7985973 83.1785643,96.3139347 81.0284914,94.6105603 C77.3513182,91.7240398 74.1848764,88.2406202 71.6612069,84.3055603 C69.0523632,80.2232728 67.1658289,75.7223025 66.0842672,70.9998707 C65.5132866,68.4036114 65.1828655,65.7602424 65.0971983,63.103319 L65.0971983,62.4419828 L65.7585345,62.4419828 C67.969569,62.4419828 70.5162069,64.7122414 73.7439224,67.5846121 L74.1190086,67.9103448 C79.6860776,73.0431034 86.7732328,79.3504741 97.2262931,79.3504741 L98.1541379,79.3504741 L98.5094828,79.3504741 C100.949585,79.3460468 103.364778,78.8596537 105.616379,77.9192241 C106.457708,77.5431308 107.09741,76.824365 107.373362,75.9450862 C107.591523,74.9592111 107.302619,73.9295288 106.603448,73.2010345 C105.379483,71.7105603 102.655172,70.002931 98.4502586,68.1373707 C95.0646121,66.6370259 93.0904741,65.0675862 92.4192672,63.3402155 C92.0333439,62.3040062 92.0904523,61.1547003 92.5771983,60.1618534 C93.7912931,57.3190948 97.2855172,54.2394397 101.3325,50.7353448 L102.546595,49.679181 C105.939267,46.9460027 109.135394,43.9774635 112.111293,40.7955603 C115.0725,37.4493966 116.760388,34.4190948 117.352629,31.5072414 C118.043578,28.0821121 117.194698,24.8247845 114.736897,21.5477155 L113.749828,20.2053017 L115.408103,20.5409052 C121.558942,21.8080508 127.347121,24.4390413 132.346207,28.2400431 L132.701552,28.5164224 L132.573233,28.9408621 L129.612026,38.6832328 C129.460169,39.1214664 129.571251,39.6079276 129.898276,39.9368103 C131.596034,41.6246983 134.359828,44.3490086 134.754655,44.6944828 C134.925798,44.7927395 135.119946,44.843831 135.317284,44.8425431 C135.753199,44.8411809 136.155492,44.6080768 136.373448,44.2305603 L140.163793,37.3506897 L140.657328,36.4623276 L141.249569,37.2914655 C144.503347,41.8833035 146.799473,47.0831558 148.001121,52.5811638 L148.109698,53.0648276 L147.665517,53.2918534 C139.897284,57.2401293 139.581422,59.8558621 139.097759,63.8140086 C138.653578,67.426681 138.051466,72.3620259 127.164095,81.452931 C123.773348,84.018724 120.888306,87.1916014 118.65556,90.8103448 C117.242711,93.3220741 116.514304,96.1608181 116.543233,99.0425 L126.08819,99.0523707 Z M65.0873276,59.2932328 C66.3032282,37.1101359 84.6436916,19.744768 106.860086,19.7413793 C107.728707,19.7413793 108.597328,19.7413793 109.465948,19.8203448 L109.692974,19.8203448 L109.860776,19.9782759 C113.374741,23.2158621 115.023147,26.6311207 114.796121,30.1253448 C114.569095,33.0075862 113.06875,35.9885345 110.20625,39.2261207 C107.311838,42.2967876 104.204754,45.1597902 100.90806,47.7938793 C96.2688362,51.7421552 91.88625,55.4831466 90.2674569,59.1155603 C89.3075501,60.9276546 89.3075501,63.0975609 90.2674569,64.9096552 C91.3532328,66.8837931 93.761681,68.6802586 97.4335776,70.3089224 C101.273276,72.006681 103.632371,73.4181897 104.639181,74.6224138 L105.62625,75.3528448 L104.412155,75.727931 L104.352931,75.727931 C102.46238,76.4510451 100.454634,76.8191318 98.4305172,76.8137069 L98.055431,76.8137069 L97.1374569,76.8137069 C87.7109483,76.8137069 81.0778448,70.8912931 75.7378017,66.1040086 C72.0560345,62.8368103 68.828319,60.0137931 65.8078879,59.984181 L65.136681,59.984181 L65.0873276,59.2932328 Z M116.543233,99.0523707 L119.001034,99.0523707 C118.972944,96.5545088 119.602728,94.0932429 120.827112,91.9158621 C122.896276,88.5867889 125.555566,85.6632425 128.67431,83.2888793 C140.311853,73.5761207 140.943578,68.3051724 141.506207,64.0607759 C141.84181,61.2673707 142.108319,59.0563362 147.705,55.9865517 L148.534138,55.5226293 L148.642716,56.5096983 C148.835045,58.0325573 148.943785,59.564811 148.968448,61.099569 L148.968448,61.7411638 C148.954758,77.5057753 140.126388,91.939036 126.09806,99.1313362 L116.543233,99.0523707 Z M169.223103,30.8853879 L163.44875,34.0834914 L161.790474,34.9027586 C161.551317,35.0270707 161.357776,35.2240678 161.237716,35.4653879 L160.418448,37.1434052 L157.230216,42.9177586 L156.795905,43.6975431 L156.193793,43.0362069 L155.206724,42.0491379 L154.959957,41.7826293 L155.058664,41.4272845 L156.943966,35.20875 C157.08672,34.7375445 156.930761,34.2267797 156.549138,33.9156897 L146.42181,24.3806034 C146.193351,24.1466573 145.880183,24.0147564 145.55319,24.0147564 C145.226197,24.0147564 144.913028,24.1466573 144.684569,24.3806034 C144.230517,25.1406466 138.989181,34.5671552 135.494957,40.8547845 L135.080388,41.5950862 L134.478276,40.9929741 L132.504138,39.0188362 L132.227759,38.7424569 L132.346207,38.3772414 L138.485776,17.8659483 C138.632965,17.3917622 138.476594,16.8757383 138.090948,16.5630172 L130.036466,8.98232759 C128.938997,8.04748016 128.578791,6.50659668 129.148103,5.18211207 C129.614052,4.09215207 130.484444,3.22529836 131.576293,2.7637931 L131.694741,2.70456897 L131.773707,2.70456897 C132.1203,2.58725754 132.483704,2.527246 132.849612,2.52689655 C133.821922,2.52596943 134.745665,2.95175683 135.376509,3.69163793 L143.055905,11.8152155 C143.289235,12.0634 143.613519,12.2059422 143.954138,12.2100431 C144.075013,12.2096866 144.195026,12.1896844 144.309483,12.150819 L164.840517,5.92241379 L165.205733,5.81383621 L165.482112,6.09021552 L167.45625,8.06435345 L168.068233,8.66646552 L167.31806,9.08103448 L151.021552,18.0534914 C150.733899,18.2025726 150.519869,18.4629758 150.42931,18.7740517 C150.339149,19.0800226 150.370988,19.4090214 150.518147,19.6920259 C151.021552,20.2645259 156.628103,26.2362931 160.388836,30.2043103 C160.622464,30.4437205 160.942685,30.5789247 161.277198,30.5793966 C161.397544,30.5824024 161.517572,30.5657318 161.632543,30.5300431 L167.801724,28.625 L168.16694,28.5164224 L168.443319,28.7928017 L169.430388,29.7798707 L170.0325,30.3819828 L169.223103,30.8853879 Z" id="Shape" fill="#000000" fill-rule="nonzero"></path>
                    <path d="M157.842198,88.1057759 C157.656061,88.0094115 157.449687,87.9586638 157.240086,87.9577155 C156.777565,87.9561751 156.35058,88.2055645 156.124698,88.609181 C155.29556,90.1193966 154.387457,91.5703879 153.449741,92.9720259 C153.250661,93.2503538 153.170998,93.5966701 153.228457,93.9340097 C153.285916,94.2713493 153.475736,94.5717646 153.755733,94.7684914 C153.970853,94.9245205 154.230295,95.007542 154.496034,95.0053879 C154.915281,95.0063456 155.308972,94.8039814 155.552198,94.4625 C156.539267,93.0115086 157.467112,91.5012931 158.335733,89.9121121 C158.518465,89.6173542 158.572002,89.2604422 158.483793,88.9250431 C158.3941,88.574153 158.16136,88.2769621 157.842198,88.1057759 Z" id="Path" fill="#000000"></path>
                    <path d="M164.258147,60.0927586 C163.559255,60.097911 162.990943,60.657479 162.974957,61.3562069 L162.974957,61.4055603 L162.974957,61.6325862 C162.974957,63.3303448 162.895991,65.0478448 162.73806,66.7456034 C162.667986,67.4400222 163.161643,68.0647378 163.853448,68.1571121 L164.02125,68.1571121 C164.694755,68.1539354 165.253034,67.6343061 165.30444,66.9627586 C165.462371,65.2452586 165.551207,63.4487931 165.551207,61.6227155 L165.551207,61.3660776 C165.540421,60.6596614 164.964645,60.0926763 164.258147,60.0927586 Z" id="Path" fill="#000000"></path>
                    <path d="M113.9275,66.3112931 C113.679957,65.7408296 113.301167,65.2369039 112.821983,64.8405603 C111.726336,64.0212931 110.551724,64.0114224 109.860776,63.3599569 C109.627063,63.1127358 109.424824,62.837558 109.258664,62.5406897 C109.206862,62.4481514 109.160714,62.3525596 109.120474,62.2544397 C109.041215,61.9871015 109.041215,61.7025106 109.120474,61.4351724 C109.193516,61.0978621 109.295903,60.7675821 109.426466,60.4481034 C109.979224,59.3524569 113.897888,56.0655172 114.470388,55.5127586 C118.418664,52.0185345 119.405733,49.7186638 116.168147,45.642069 C118.35944,46.0566379 121.65625,46.2343103 123.294784,47.8728448 C125.130733,49.7087931 122.672931,50.4984483 123.166466,52.6502586 C123.916638,55.9569397 126.492888,53.5682328 127.588534,52.2850431 C128.52625,53.2721121 128.881595,55.0192241 129.266552,56.233319 C129.616631,56.9770028 129.919923,57.7418249 130.174655,58.523319 C130.174655,58.5825431 130.174655,58.7996983 130.026595,58.8490517 C129.878534,58.8984052 129.710733,58.5825431 129.434353,58.523319 C129.157974,58.4640948 128.684181,58.8687931 127.963621,59.6288362 C126.976552,60.6751293 126.976552,60.4974569 126.858103,60.7343534 C126.009224,61.9484483 126.700172,62.9453879 126.117802,64.4259914 C125.763424,65.1382175 125.258182,65.7647184 124.637198,66.2619397 C121.439095,69.5488793 121.675991,72.1843534 120.047328,72.3422845 C117.78694,72.6680172 114.64806,67.6142241 113.9275,66.3112931 Z" id="Path" fill="#75B2EF"></path>
                </g>
            </g>
        </g>
    </g>
</svg>
