<?xml version="1.0" encoding="UTF-8"?>
<svg width="230px" height="160px" viewBox="0 0 230 160" version="1.1" xmlns="http://www.w3.org/2000/svg" xmlns:xlink="http://www.w3.org/1999/xlink">
    <title>Asset 3</title>
    <g stroke="none" stroke-width="1" fill="none" fill-rule="evenodd">
        <g id="Tour-Home---Desktop" transform="translate(-687.000000, -3370.000000)">
            <g id="Group-6" transform="translate(657.000000, 3394.000000)">
                <g id="Asset-3" transform="translate(30.000000, 0.000000)">
                    <path d="M102.752005,-14.5358006 L104.725952,-14.5358006 C108.857042,-14.5358006 112.205952,-11.1868905 112.205952,-7.05580058 L112.205952,109.940427 C112.205952,114.071517 108.857042,117.420427 104.725952,117.420427 L102.752005,117.420427 C98.6209152,117.420427 95.2720051,114.071517 95.2720051,109.940427 L95.2720051,-7.05580058 C95.2720051,-11.1868905 98.6209152,-14.5358006 102.752005,-14.5358006 Z" id="Rectangle" fill="#F2F2F2" transform="translate(103.738979, 51.442313) rotate(50.100000) translate(-103.738979, -51.442313) "></path>
                    <path d="M117.927038,-26.4876369 L119.900985,-26.4876369 C124.032075,-26.4876369 127.380985,-23.1387268 127.380985,-19.0076369 L127.380985,153.611486 C127.380985,157.742576 124.032075,161.091486 119.900985,161.091486 L117.927038,161.091486 C113.795948,161.091486 110.447038,157.742576 110.447038,153.611486 L110.447038,-19.0076369 C110.447038,-23.1387268 113.795948,-26.4876369 117.927038,-26.4876369 Z" id="Rectangle" fill="#F2F2F2" transform="translate(118.914012, 67.301925) rotate(50.100000) translate(-118.914012, -67.301925) "></path>
                    <path d="M133.033795,18.6719802 L135.007742,18.6719802 C139.138832,18.6719802 142.487742,22.0208903 142.487742,26.1519802 L142.487742,143.148208 C142.487742,147.279298 139.138832,150.628208 135.007742,150.628208 L133.033795,150.628208 C128.902705,150.628208 125.553795,147.279298 125.553795,143.148208 L125.553795,26.1519802 C125.553795,22.0208903 128.902705,18.6719802 133.033795,18.6719802 Z" id="Rectangle" fill="#F2F2F2" transform="translate(134.020769, 84.650094) rotate(50.100000) translate(-134.020769, -84.650094) "></path>
                    <path d="M103.009825,22.9602632 C93.9000439,26.1140351 87.733114,35.0932456 87.733114,45.1973684 L87.733114,101.442982 L146.991886,101.442982 L146.991886,45.1973684 C146.991886,35.0530702 140.835,26.1140351 131.715175,22.9200877 L103.009825,22.9602632 Z" id="Path" fill="#DEEEF9"></path>
                    <path d="M106.645702,24.0048246 L99.5647807,8.54732456 L102.658289,6.84991228 C104.422697,5.87934488 106.592084,6.03261684 108.2025,7.24162281 L108.674561,7.60320175 C110.497891,8.97419501 113.008118,8.97419501 114.831447,7.60320175 C116.654777,6.2322085 119.165004,6.2322085 120.988333,7.60320175 C122.80962,8.96916667 125.313889,8.96916667 127.135175,7.60320175 L127.597193,7.24162281 C129.214978,6.02979023 131.393392,5.88036836 133.161491,6.85995614 L136.174649,8.5372807 L129.143947,23.9947807 L106.645702,24.0048246 Z" id="Path" fill="#ACD7FC"></path>
                    <path d="M89.0287719,34.0888596 C89.0882835,34.3573433 89.2552777,34.5896831 89.4907895,34.7316667 C89.6575041,34.8330779 89.8481037,34.8885251 90.0432018,34.8923684 C90.407462,34.8889217 90.7446736,34.699477 90.9371053,34.3901754 C93.5701333,30.1551194 97.587184,26.9613512 102.306754,25.3507018 L102.447368,25.3004825 L131.433947,25.3004825 L131.584605,25.3507018 C140.309564,28.3357597 146.170868,36.538357 146.168289,45.7598246 L146.168289,51.0428947 C146.168289,51.6197901 146.635956,52.0874561 147.212851,52.0874561 C147.789746,52.0874561 148.257412,51.6197901 148.257412,51.0428947 L148.257412,45.7196491 C148.240252,35.7713358 142.01543,26.8913378 132.669342,23.4825439 L131.725219,23.1410526 L132.11693,22.2170175 L139.288246,5.35337719 C139.513177,4.87495097 139.328736,4.30406281 138.866404,4.04767544 L135.341009,2.00877193 C132.914612,0.563390578 129.84286,0.792266197 127.657456,2.58127193 L127.115088,3.02320175 C126.282331,3.68576704 125.246381,4.0405446 124.182281,4.02758772 C123.118445,4.03890153 122.083029,3.68430713 121.249474,3.02320175 C118.769759,0.992501617 115.201952,0.992501617 112.722237,3.02320175 C111.888285,3.68358218 110.853134,4.03808597 109.78943,4.02758772 C108.725462,4.03972106 107.68978,3.6850354 106.856623,3.02320175 L106.304211,2.57122807 C104.132373,0.783120168 101.080111,0.527098142 98.6407456,1.92842105 L95.035,4.01754386 C94.563372,4.27092184 94.3733923,4.84969745 94.603114,5.33328947 L101.814605,22.1667982 L102.21636,23.0908333 L101.211974,23.4323246 C96.2039308,25.2629999 91.9582531,28.7267653 89.1593421,33.2652632 C88.9985266,33.507903 88.9508904,33.8083776 89.0287719,34.0888596 Z M97.2044737,6.15688596 L96.8830702,5.38350877 L97.5961842,4.96166667 L99.7053947,3.72627193 C100.413887,3.30758914 101.222671,3.08890511 102.045614,3.09350877 C103.109714,3.08055189 104.145664,3.43532945 104.978421,4.09789474 L105.530833,4.54986842 C106.731701,5.5255576 108.232113,6.05761859 109.779386,6.05644737 C111.334922,6.06024589 112.843591,5.52422472 114.048026,4.53982456 C115.755314,3.14737527 118.206353,3.14737527 119.91364,4.53982456 C121.117122,5.527103 122.625654,6.06662516 124.182281,6.06649123 C125.730119,6.07096864 127.231609,5.53852546 128.430833,4.55991228 L128.983246,4.11798246 C130.490373,2.89128791 132.60135,2.73106196 134.27636,3.71622807 L136.285132,4.92149123 L136.998246,5.34333333 L136.676842,6.10666667 L129.64614,22.5585088 L129.405088,23.1410526 L104.50636,23.1410526 L104.255263,22.5585088 L97.2044737,6.15688596 Z" id="Shape" fill="#000000" fill-rule="nonzero"></path>
                    <path d="M147.212851,57.4810088 C146.937368,57.4860101 146.674553,57.5976167 146.479649,57.7923684 C146.27924,57.9834065 146.16658,58.248701 146.168289,58.5255702 C146.16906,58.8029179 146.277024,59.0692294 146.469605,59.2688158 C146.670322,59.4596517 146.935908,59.5673218 147.212851,59.5701316 C147.767558,59.5701316 148.217237,59.1204527 148.217237,58.5657456 C148.218946,58.2888764 148.106287,58.023582 147.905877,57.8325439 C147.727411,57.6322331 147.4799,57.506684 147.212851,57.4810088 Z" id="Path" fill="#000000"></path>
                    <path d="M152.937851,93.0764474 L152.937851,90.9772807 L150.838684,90.0532456 L150.838684,76.3333333 L151.360965,75.8512281 L152.234781,75.067807 L152.937851,73.3201754 L152.887632,71.9140351 L152.887632,70.6585526 L150.87886,68.2982456 L149.874474,67.5851316 C148.998973,66.4869283 147.673187,65.8443467 146.268728,65.8375 L129.334781,65.8375 C128.280992,65.8314656 127.256805,66.1858555 126.432105,66.841886 L124.684474,66.841886 L122.585307,68.9310088 L121.580921,69.9353947 L121.580921,74.1236842 L122.585307,76.2228509 L124.684474,76.5141228 L124.684474,78.3119737 L122.585307,79.3163596 L121.580921,81.4054825 L121.580921,83.5046491 L122.585307,85.5937719 L122.585307,87.6929386 L124.684474,87.6929386 L124.684474,89.7017105 L122.585307,90.7964912 L121.580921,92.8956579 L121.580921,96.0293421 L122.585307,97.0337281 L123.589693,98.038114 L124.594079,99.0425 L125.939956,99.0425 L125.879693,98.6307018 C126.709098,99.712567 127.973102,100.373965 129.334781,100.438596 L146.188377,100.438596 C147.605691,100.433523 148.942258,99.7781976 149.814211,98.6608333 L149.814211,98.9922807 L150.818596,98.3394298 L152.917763,98.3394298 L152.917763,96.2101316 L153.922149,95.2057456 L153.922149,93.0764474 L152.937851,93.0764474 Z" id="Path" fill="#FFFFFF"></path>
                    <path d="M127.40636,79.7984649 L146.017632,79.7984649 C148.680225,79.7984649 150.838684,81.9569237 150.838684,84.6195175 C150.841352,85.8998795 150.334599,87.128715 149.430187,88.0350112 C148.525775,88.9413074 147.297996,89.4506168 146.017632,89.450614 L127.40636,89.450614 C126.125995,89.4506168 124.898217,88.9413074 123.993805,88.0350112 C123.089393,87.128715 122.58264,85.8998795 122.585307,84.6195175 C122.585307,81.9569237 124.743766,79.7984649 127.40636,79.7984649 Z" id="Path" fill="#F9B458"></path>
                    <path d="M128.631711,66.912193 L147.936009,66.912193 C150.709544,66.912193 152.957939,69.1605876 152.957939,71.9341228 C152.957939,74.7076581 150.709544,76.9560526 147.936009,76.9560526 L128.631711,76.9560526 C125.858175,76.9560526 123.609781,74.7076581 123.609781,71.9341228 C123.609781,69.1605876 125.858175,66.912193 128.631711,66.912193 Z" id="Path" fill="#FFA71C"></path>
                    <path d="M128.631711,88.8881579 L147.936009,88.8881579 C150.709544,88.8881579 152.957939,91.1365525 152.957939,93.9100877 C152.957939,96.683623 150.709544,98.9320175 147.936009,98.9320175 L128.631711,98.9320175 C125.858175,98.9320175 123.609781,96.683623 123.609781,93.9100877 C123.609781,91.1365525 125.858175,88.8881579 128.631711,88.8881579 Z" id="Path" fill="#FFA71C"></path>
                    <rect id="Rectangle" fill="#FFA71C" x="85.443114" y="39.7033772" width="8.89885965" height="14.1317105" rx="2"></rect>
                    <path d="M80.1600439,40.7479386 L90.7261842,40.7479386 L90.7261842,47.7786404 C90.7261842,51.4145175 88.5165351,54.3674123 85.804693,54.3674123 L73.6717105,54.3674123 L73.6717105,49.4459211 C73.6717105,44.6349123 76.574386,40.7479386 80.1600439,40.7479386 Z" id="Path" fill="#FFBC53"></path>
                    <path d="M91.1982456,69.0013158 C88.7008319,70.5751955 85.7661553,71.3106241 82.8216667,71.1004825 C76.3935965,70.5782018 72.8380702,65.5261404 72.3559649,64.8130263 C72.0144737,61.331155 71.6796784,57.8459357 71.3515789,54.3573684 L83.8662281,54.3573684 C88.5265789,54.4678509 88.7073684,54.7390351 90.1436404,54.3573684 C92.1524123,53.815 93.8297368,52.740307 94.3319298,53.3529825 C94.5528947,53.6040789 94.4524561,54.0560526 94.3319298,54.3573684 C95.6469797,59.4599005 94.4863074,64.8838117 91.1982456,69.0013158 Z" id="Path" fill="#FFFFFF"></path>
                    <path d="M92.7751316,72.9184211 L76.0119298,72.9184211 C66.4820627,72.9184211 58.7565789,80.6439048 58.7565789,90.1737719 L58.7565789,99.4342105 L110.030482,99.4342105 L110.030482,90.1737719 C110.030482,80.6439048 102.304999,72.9184211 92.7751316,72.9184211 Z" id="Path" fill="#3B8FE2"></path>
                    <path d="M90.9772807,73.1896053 L82.2089912,81.5561404 C79.3297515,78.4827193 76.4538596,75.4026023 73.5813158,72.3157895 C65.9178509,72.7577193 59.8011404,80.7827632 59.8011404,90.6558772 L59.8011404,100.518947 L102.668333,100.518947 L102.668333,90.6558772 C102.974887,86.2632331 101.667759,81.909713 98.9922807,78.4124123 C96.9429364,75.8646141 94.1357286,74.0353559 90.9772807,73.1896053 Z" id="Path" fill="#4F9CF7"></path>
                    <polyline id="Path" fill="#FFFFFF" points="75.499693 72.1450439 93.2873684 72.1450439 82.8216667 82.6107456 73.4005263 72.1450439"></polyline>
                    <path d="M152.877588,89.5410088 L152.114254,88.8379386 L152.877588,88.1449123 C154.246173,86.8929387 155.025642,85.1234668 155.025642,83.2686184 C155.025642,81.41377 154.246173,79.6442981 152.877588,78.3923246 L152.114254,77.6892544 L152.877588,76.9962281 C154.890902,75.1524817 155.565685,72.2617859 154.576748,69.7172155 C153.58781,67.1726452 151.138059,65.496288 148.40807,65.4960088 L126.904167,65.4960088 C124.173597,65.4901315 121.720558,67.1641506 120.730656,69.708977 C119.740754,72.2538035 120.417834,75.1453951 122.434649,76.9861842 L123.187939,77.6892544 L122.434649,78.3923246 C121.066064,79.6442981 120.286595,81.41377 120.286595,83.2686184 C120.286595,85.1234668 121.066064,86.8929387 122.434649,88.1449123 L123.187939,88.8379386 L122.434649,89.5410088 C120.188745,91.5882078 119.625444,94.901743 121.068684,97.5760965 L121.821974,98.9822368 L111.185526,98.9822368 L111.185526,90.2440789 C111.123618,80.3025755 103.554478,72.0177297 93.6589912,71.060307 L93.5585526,71.060307 L93.4681579,71.060307 C93.3713489,71.0498485 93.273695,71.0498485 93.176886,71.060307 L93.0161842,71.060307 L92.9257895,71.060307 L92.745,71.060307 L90.5453947,70.9699123 L92.1222807,69.3026316 C94.625355,66.8725603 96.0352604,63.5308306 96.0293421,60.042193 L96.0293421,40.2557895 C96.0293421,39.7010824 95.5796632,39.2514035 95.0249561,39.2514035 L80.2303509,39.2514035 C74.6662717,39.2568249 70.1493011,43.7513676 70.1161842,49.3153509 L70.1161842,60.0823684 C70.120323,63.559241 71.5336297,66.8859476 74.0332895,69.3026316 L75.6001316,70.8393421 L73.4105702,70.9297368 L72.9686404,70.9297368 C72.8718314,70.9192783 72.7741774,70.9192783 72.6773684,70.9297368 L72.5869737,70.9297368 L72.4965789,70.9297368 C62.5993424,71.8867948 55.0270613,80.1703325 54.96,90.1135088 L54.96,99.8962281 C54.96,100.450935 55.4096789,100.900614 55.964386,100.900614 L148.367895,100.900614 C151.097883,100.900335 153.547634,99.2239776 154.536572,96.6794073 C155.52551,94.1348369 154.850727,91.2441411 152.837412,89.4003947 L152.877588,89.5410088 Z M72.205307,52.4590789 L72.205307,49.3153509 C72.205307,44.8776945 75.8027383,41.2802632 80.2403947,41.2802632 L93.9402193,41.2802632 L93.9402193,47.5476316 C93.9402193,49.0952978 93.3254113,50.5795755 92.2310461,51.6739408 C91.1366808,52.768306 89.652403,53.383114 88.1047368,53.383114 L72.205307,53.383114 L72.205307,52.4590789 Z M72.205307,60.0823684 L72.205307,55.4923246 L88.1047368,55.4923246 C89.6560564,55.4955812 91.1733295,55.0376024 92.4637719,54.1765789 L93.9402193,53.172193 L93.9402193,60.0522368 C93.9402193,66.0541671 89.0746935,70.919693 83.0727632,70.919693 C77.0708329,70.919693 72.205307,66.0541671 72.205307,60.0522368 L72.205307,60.0823684 Z M77.789693,73.0389474 L90.6458333,73.0389474 L89.0287719,74.6560088 L83.7457018,79.9390789 L83.0727632,80.6120175 L82.3596491,79.9390789 L77.0765789,74.6560088 L75.4595175,73.0389474 L77.789693,73.0389474 Z M109.096404,97.9979386 L109.096404,99.0023246 L57.0491228,99.0023246 L57.0491228,91.3689912 L74.2542544,91.3689912 C74.8283762,91.3689912 75.2937939,90.9035736 75.2937939,90.3294518 C75.2937939,89.75533 74.8283762,89.2899123 74.2542544,89.2899123 L57.0491228,89.2899123 L57.179693,88.2252632 C58.0650639,80.3321093 64.2762083,74.0918241 72.1651316,73.1695175 L72.6171053,73.1092544 L72.9485526,73.4407018 L82.3596491,82.8317105 C82.5524016,83.0284256 82.8174756,83.1373601 83.0928509,83.1330263 C83.3701986,83.1322561 83.6365101,83.024292 83.8360965,82.8317105 L93.2271053,73.4407018 L93.5485088,73.1092544 L94.0105263,73.1695175 C102.625944,74.2356081 109.091259,81.5629641 109.076316,90.2440789 L109.096404,97.9979386 Z M122.364342,72.1149123 C122.369881,69.6115597 124.400808,67.5851255 126.904167,67.5851316 L148.40807,67.5851316 C150.094734,67.4726249 151.703715,68.3086332 152.581211,69.7534483 C153.458708,71.1982635 153.458708,73.0114733 152.581211,74.4562885 C151.703715,75.9011037 150.094734,76.7371119 148.40807,76.6246053 L126.904167,76.6246053 C124.408611,76.6246602 122.380906,74.6104131 122.364342,72.1149123 Z M122.364342,83.2635965 C122.369881,80.7602439 124.400808,78.7338097 126.904167,78.7338158 L148.40807,78.7338158 C150.094734,78.6213091 151.703715,79.4573174 152.581211,80.9021325 C153.458708,82.3469477 153.458708,84.1601575 152.581211,85.6049727 C151.703715,87.0497879 150.094734,87.8857962 148.40807,87.7732895 L126.904167,87.7732895 C124.408611,87.7733444 122.380906,85.7590973 122.364342,83.2635965 Z M148.40807,98.9521053 L126.904167,98.9521053 C125.187679,99.114117 123.527557,98.2898311 122.619092,96.824474 C121.710628,95.3591169 121.710628,93.50562 122.619092,92.0402629 C123.527557,90.5749058 125.187679,89.7506198 126.904167,89.9126316 L148.40807,89.9126316 C150.73972,90.1327058 152.521297,92.0903556 152.521297,94.4323684 C152.521297,96.7743812 150.73972,98.7320311 148.40807,98.9521053 Z" id="Shape" fill="#000000" fill-rule="nonzero"></path>
                    <path d="M131.926096,51.6354825 C131.817304,48.9689104 129.571012,46.8933365 126.904167,46.9952193 C126.068917,47.0531332 125.244917,46.7765439 124.613769,46.2264088 C123.982621,45.6762737 123.59613,44.8977485 123.539474,44.0624123 C123.76405,42.3981523 125.184647,41.1563764 126.863991,41.1563764 C128.543335,41.1563764 129.963932,42.3981523 130.188509,44.0624123 C130.153073,44.3876712 130.306644,44.7045728 130.583892,44.8783048 C130.861139,45.0520369 131.213291,45.0520369 131.490538,44.8783048 C131.767786,44.7045728 131.921357,44.3876712 131.885921,44.0624123 C131.8209,41.9583557 130.37059,40.1516127 128.330395,39.6330702 L127.717719,39.4522807 L127.717719,38.5583772 C127.717719,38.0868762 127.335492,37.7046491 126.863991,37.7046491 C126.39249,37.7046491 126.010263,38.0868762 126.010263,38.5583772 L126.010263,39.4522807 L125.397588,39.6330702 C123.357393,40.1516127 121.907082,41.9583557 121.842061,44.0624123 C121.950854,46.7289843 124.197146,48.8045582 126.863991,48.7026754 C128.433517,48.9017849 129.567246,50.3025208 129.434914,51.8790817 C129.302581,53.4556426 127.951213,54.6477861 126.370457,54.5824693 C124.789701,54.5171526 123.54129,53.2175864 123.539474,51.6354825 C123.574909,51.3102235 123.421338,50.9933219 123.144091,50.8195899 C122.866843,50.6458578 122.514692,50.6458578 122.237444,50.8195899 C121.960197,50.9933219 121.806626,51.3102235 121.842061,51.6354825 C121.907082,53.739539 123.357393,55.546282 125.397588,56.0648246 L126.010263,56.245614 L126.010263,56.9989035 C126.010263,57.4704045 126.39249,57.8526316 126.863991,57.8526316 C127.335492,57.8526316 127.717719,57.4704045 127.717719,56.9989035 L127.717719,56.245614 L128.330395,56.0648246 C130.386488,55.5615527 131.856183,53.7511184 131.926096,51.6354825 Z" id="Path" fill="#8FCAF7"></path>
                    <path d="M0.85372807,100.940789 L228.849342,100.940789" id="Path" stroke="#000000" stroke-width="1.7" stroke-linecap="round"></path>
                    <path d="M9.89320175,107.971491 L34.5006579,107.971491" id="Path" stroke="#000000" stroke-width="1.7" stroke-linecap="round"></path>
                    <path d="M43.0379386,107.971491 L75.1782895,107.971491" id="Path" stroke="#000000" stroke-width="1.7" stroke-linecap="round"></path>
                    <path d="M117.3625,107.971491 L215.290132,107.971491" id="Path" stroke="#000000" stroke-width="1.7" stroke-linecap="round"></path>
                    <path d="M38.0160088,107.971491 L39.0203947,107.971491" id="Path" stroke="#000000" stroke-width="1.7" stroke-linecap="round"></path>
                    <circle id="Oval" stroke="#000000" stroke-width="1.5" fill="#FFFFFF" cx="152.013816" cy="86.377193" r="14.0614035"></circle>
                    <circle id="Oval" fill="#FFC239" cx="152.315132" cy="86.377193" r="10.0438596"></circle>
                    <path d="M153.540482,84.9710526 C153.540482,85.1041823 153.648405,85.2121053 153.781535,85.2121053 C153.914665,85.2121053 154.022588,85.1041823 154.022588,84.9710526 C154.002982,84.2209745 153.463836,83.5857023 152.72693,83.444386 L152.556184,83.444386 L152.556184,83.0325877 C152.556184,82.899458 152.448261,82.7915351 152.315132,82.7915351 C152.182002,82.7915351 152.074079,82.899458 152.074079,83.0325877 L152.074079,83.3640351 L151.903333,83.3640351 C151.162448,83.5011796 150.618217,84.1375109 150.597632,84.8907018 C150.641046,85.7982814 151.407153,86.5016662 152.315132,86.4675877 C152.895463,86.5427687 153.314068,87.0610341 153.265481,87.6441944 C153.216893,88.2273546 152.718295,88.6692017 152.133524,88.6473101 C151.548753,88.6254185 151.084586,88.1475291 151.079737,87.5623684 C151.08262,87.4975964 151.058151,87.4345943 151.012304,87.3887482 C150.966458,87.3429021 150.903456,87.3184327 150.838684,87.3213158 C150.705555,87.3213158 150.597632,87.4292387 150.597632,87.5623684 C150.618217,88.3155592 151.162448,88.9518906 151.903333,89.0890351 L152.074079,89.0890351 L152.074079,89.4606579 C152.074079,89.524589 152.099475,89.5859017 152.144682,89.6311078 C152.189888,89.676314 152.2512,89.7017105 152.315132,89.7017105 C152.448261,89.7017105 152.556184,89.5937876 152.556184,89.4606579 L152.556184,89.0890351 L152.72693,89.0890351 C153.463836,88.9477188 154.002982,88.3124466 154.022588,87.5623684 C153.984519,86.6563528 153.22131,85.9515069 152.315132,85.9854825 C151.732671,85.9155001 151.308897,85.3988326 151.354221,84.8139363 C151.399546,84.22904 151.897858,83.7838267 152.484147,83.8044128 C153.070435,83.824999 153.536293,84.3040669 153.540482,84.8907018 L153.540482,84.9710526 Z" id="Path" fill="#000000"></path>
                    <path d="M161.284298,80.6321053 C160.212516,78.9710345 158.704505,77.6367571 156.925263,76.7752632 C156.859152,76.760195 156.790497,76.760195 156.724386,76.7752632 C156.55448,76.7787048 156.400179,76.8751431 156.322632,77.0263596 C156.277974,77.1358101 156.277974,77.2584004 156.322632,77.3678509 C156.358377,77.4841357 156.442585,77.5793269 156.55364,77.6289912 C158.94638,78.7770133 160.767933,80.8505712 161.598065,83.3712925 C162.428197,85.8920139 162.195209,88.6421802 160.952851,90.9873246 C160.892826,91.0919639 160.878186,91.2165929 160.912327,91.3322939 C160.946469,91.4479949 161.026424,91.5447106 161.13364,91.6 C161.203155,91.6149309 161.275047,91.6149309 161.344561,91.6 C161.4914,91.5988641 161.627601,91.5231968 161.70614,91.3991228 C163.509216,88.004216 163.344181,83.901354 161.274254,80.6622368 L161.284298,80.6321053 Z" id="Path" fill="#000000"></path>
                    <path d="M153.590702,76.6246053 L153.671053,76.6246053 C153.846727,76.6510138 154.02158,76.5720623 154.117943,76.4228208 C154.214306,76.2735792 154.214306,76.0817278 154.117943,75.9324862 C154.02158,75.7832447 153.846727,75.7042932 153.671053,75.7307018 L153.620833,75.7307018 C153.445159,75.7042932 153.270306,75.7832447 153.173943,75.9324862 C153.07758,76.0817278 153.07758,76.2735792 153.173943,76.4228208 C153.270306,76.5720623 153.445159,76.6510138 153.620833,76.6246053 L153.590702,76.6246053 Z" id="Path" fill="#000000"></path>
                    <path d="M148.096711,95.1655702 C145.703971,94.0175481 143.882418,91.9439903 143.052286,89.4232689 C142.222154,86.9025475 142.455142,84.1523812 143.6975,81.8072368 C143.757525,81.7025975 143.772165,81.5779685 143.738024,81.4622675 C143.703882,81.3465665 143.623927,81.2498509 143.516711,81.1945614 C143.447196,81.1796305 143.375304,81.1796305 143.305789,81.1945614 C143.139735,81.1929225 142.987447,81.2866378 142.914079,81.435614 C141.55346,83.9953241 141.295446,86.9991764 142.199626,89.7534201 C143.103806,92.5076638 145.091991,94.7741199 147.705,96.0293421 C147.771111,96.0444103 147.839766,96.0444103 147.905877,96.0293421 C148.077137,96.0305612 148.233681,95.9327208 148.307632,95.7782456 C148.362648,95.6693119 148.371274,95.5427597 148.331549,95.4273679 C148.291824,95.3119762 148.207124,95.2175527 148.096711,95.1655702 Z" id="Path" fill="#000000"></path>
                    <path d="M151.039561,96.1297807 C150.920624,96.1270769 150.80562,96.1724408 150.720557,96.2556136 C150.635494,96.3387864 150.587557,96.4527423 150.587588,96.5717105 C150.587588,96.8213287 150.789943,97.0236842 151.039561,97.0236842 C151.215236,97.0500928 151.390089,96.9711413 151.486452,96.8218997 C151.582815,96.6726582 151.582815,96.4808068 151.486452,96.3315652 C151.390089,96.1823236 151.215236,96.1033721 151.039561,96.1297807 Z" id="Path" fill="#000000"></path>
                </g>
            </g>
        </g>
    </g>
</svg>
