<?xml version="1.0" encoding="UTF-8"?>
<svg width="149px" height="44px" viewBox="0 0 149 44" version="1.1" xmlns="http://www.w3.org/2000/svg" xmlns:xlink="http://www.w3.org/1999/xlink">
    <defs>
        <linearGradient id="linearGradient-play-store" x1="50%" y1="21.9564606%" x2="50%" y2="100%">
            <stop stop-color="#FFFFFF" stop-opacity="0.16" offset="0%"></stop>
            <stop stop-color="#FFFFFF" stop-opacity="0" offset="100%"></stop>
        </linearGradient>
        <path d="M74.2341514,6.13752174 C74.3435625,6.20639165 74.4752859,6.27669529 74.6293253,6.34843478 C74.7833647,6.42017427 74.9431602,6.48473884 75.1087166,6.54213043 C75.274273,6.59952203 75.4369477,6.64686938 75.5967456,6.68417391 C75.7565435,6.72147845 75.8969044,6.74013043 76.0178325,6.74013043 C76.0667796,6.74013043 76.1272428,6.73869567 76.1992238,6.73582609 C76.2712049,6.73295651 76.3475036,6.72650005 76.4281224,6.71645652 C76.5087411,6.70641299 76.5893587,6.69063054 76.6699775,6.6691087 C76.7505962,6.64758685 76.823296,6.61745672 76.8880789,6.57871739 C76.9528618,6.53997807 77.0054072,6.49119595 77.0457166,6.43236957 C77.086026,6.37354318 77.10762,6.30108739 77.1104992,6.215 L77.1104992,6.20208696 C77.1104992,6.08730377 77.0781082,5.95745725 77.0133253,5.81254348 C76.9485423,5.66762971 76.860007,5.51554427 76.7477166,5.35628261 C76.6354262,5.19702094 76.5058622,5.03704428 76.3590209,4.87634783 C76.2121796,4.71565137 76.0595821,4.56141378 75.9012238,4.41363043 C75.7428656,4.26584709 75.5837898,4.1295441 75.4239919,4.00471739 C75.264194,3.87989068 75.1151955,3.77443521 74.9769919,3.68834783 L75.6204992,2.73708696 C75.8853894,2.91787047 76.1466767,3.12160756 76.4043688,3.34830435 C76.6620609,3.57500113 76.8995947,3.81675959 77.1169775,4.07358696 C77.3343602,4.33041433 77.5229477,4.59799861 77.6827456,4.87634783 C77.8425435,5.15469704 77.9569916,5.43591162 78.0260934,5.72 C78.0635235,5.88356604 78.0822383,6.03995578 78.0822383,6.18917391 C78.0822383,6.33265289 78.0556057,6.50482508 78.0023398,6.70569565 C77.9490738,6.90656622 77.8288673,7.10384686 77.6417166,7.29754348 C77.4545659,7.4912401 77.217032,7.63973861 76.9291079,7.74304348 C76.6814931,7.83200044 76.4094089,7.87647826 76.112847,7.87647826 C76.0638999,7.87647826 76.0135139,7.87504349 75.9616876,7.87217391 C75.7716577,7.87217391 75.5787514,7.85423931 75.382963,7.81836957 C75.1871745,7.78249982 74.9949881,7.73300032 74.8063977,7.66986957 C74.6178074,7.60673881 74.4364179,7.53428302 74.2622238,7.4525 C74.0880297,7.37071698 73.9260748,7.2839135 73.7763543,7.19208696 L74.2341514,6.13752174 Z M72.7052818,4.96673913 C72.7628666,5.14752264 72.82261,5.33619467 72.8845137,5.53276087 C72.9464174,5.72932707 73.0025617,5.92804247 73.0529485,6.12891304 C73.1033352,6.32978361 73.1443638,6.52993379 73.1760354,6.72936957 C73.2077071,6.92880535 73.2235427,7.12321644 73.2235427,7.3126087 C73.2235427,7.57087086 73.1839537,7.82267269 73.1047746,8.06802174 C73.0255954,8.31337079 72.9161859,8.55010756 72.7765427,8.77823913 C72.6368995,9.00637071 72.4713456,9.2237381 72.279876,9.43034783 C72.0884065,9.63695755 71.8803844,9.83208604 71.6558035,10.0157391 C71.4312227,10.1993922 71.1936889,10.3701296 70.9431948,10.5279565 C70.6927008,10.6857834 70.4393314,10.8278255 70.1830789,10.954087 L69.6907311,9.9683913 C69.8951572,9.86795602 70.0967011,9.75676148 70.2953688,9.63480435 C70.4940364,9.51284722 70.6833437,9.38300069 70.8632963,9.24526087 C71.0432489,9.10752105 71.2102424,8.96260946 71.3642818,8.81052174 C71.5183212,8.65843402 71.6507643,8.50060951 71.7616151,8.33704348 C71.8724659,8.17347744 71.9595617,8.00560956 72.022905,7.83343478 C72.0862483,7.66126001 72.1179195,7.48765305 72.1179195,7.3126087 C72.1179195,7.14904266 72.0992047,6.97687047 72.0617746,6.79608696 C72.0243444,6.61530344 71.978997,6.4366748 71.9257311,6.26019565 C71.8724651,6.08371651 71.8177603,5.91369647 71.7616151,5.75013043 C71.7054699,5.5865644 71.658683,5.44165281 71.6212528,5.3153913 L72.7052818,4.96673913 Z M65.9506151,6.72721739 L66.8705282,6.72721739 C67.0058525,6.72721739 67.1519718,6.71932617 67.3088905,6.70354348 C67.4658092,6.68776079 67.6112087,6.65476112 67.7450934,6.60454348 C67.8789781,6.55432584 67.9898273,6.48187004 68.0776441,6.38717391 C68.165461,6.29247779 68.2093688,6.16621818 68.2093688,6.0083913 C68.2093688,5.93378224 68.1935332,5.82904415 68.1618615,5.69417391 C68.1301899,5.55930367 68.0884415,5.41008777 68.0366151,5.24652174 C67.9847888,5.0829557 67.9236058,4.91365305 67.8530644,4.7386087 C67.782523,4.56356434 67.7083836,4.40000076 67.6306441,4.24791304 L68.6282963,3.75721739 C68.7002773,3.92078343 68.7722573,4.09439039 68.8442383,4.27804348 C68.9162194,4.46169657 68.9802815,4.6503686 69.0364267,4.84406522 C69.0925719,5.03776184 69.1379193,5.23217294 69.1724702,5.42730435 C69.2070211,5.62243576 69.2242963,5.81325994 69.2242963,5.99978261 C69.2242963,6.33265384 69.1623935,6.61530319 69.0385862,6.84773913 C68.9147788,7.08017508 68.7456259,7.2688471 68.5311224,7.41376087 C68.3166189,7.55867464 68.0661286,7.6641301 67.7796441,7.73013043 C67.4931596,7.79613076 67.1872448,7.82913043 66.8618905,7.82913043 L65.9506151,7.82913043 L65.9506151,6.72721739 Z M67.5572238,9.10321739 L66.8230209,9.83495652 L66.0801804,9.09891304 L66.8143833,8.36286957 L67.5572238,9.10321739 Z M69.1897456,9.10752174 L68.4555427,9.84356522 L67.7127021,9.10321739 L68.446905,8.37147826 L69.1897456,9.10752174 Z M66.1233688,7.82913043 L65.9506151,7.82913043 C65.3661291,7.82913043 64.9227326,7.68278407 64.6204122,7.39008696 C64.3180919,7.09738984 64.1654944,6.65548122 64.1626151,6.06434783 C64.1626151,5.97252128 64.1654943,5.82115323 64.1712528,5.61023913 C64.1770113,5.39932503 64.1798905,5.14178413 64.1798905,4.8376087 C64.1798905,4.65682518 64.1784509,4.46241408 64.1755717,4.25436957 C64.1726924,4.04632505 64.1683736,3.83397934 64.1626151,3.61732609 C64.1568567,3.40067283 64.1489389,3.18402282 64.1388615,2.96736957 C64.1287842,2.75071631 64.1165476,2.54124014 64.1021514,2.33893478 C64.0877552,2.13662942 64.07048,1.94724001 64.0503253,1.77076087 C64.0301706,1.59428173 64.007137,1.43860937 63.9812238,1.30373913 L65.0652528,0.980913043 C65.0969245,1.14734866 65.1257165,1.35036837 65.1516296,1.58997826 C65.1775428,1.82958815 65.2005764,2.08569429 65.2207311,2.35830435 C65.2408858,2.63091304 65.2560016,2.90854207 65.2660789,3.19119565 C65.2761563,3.47384924 65.2811948,3.73999875 65.2811948,3.98965217 C65.2811948,4.14173989 65.2826344,4.30315132 65.2855137,4.4738913 C65.2883929,4.64463129 65.2898325,4.79456457 65.2898325,4.92369565 C65.2898325,5.03273968 65.2891127,5.13532561 65.2876731,5.23145652 C65.2862335,5.32758744 65.2847939,5.42012999 65.2833543,5.50908696 C65.2819146,5.59804392 65.280475,5.68556479 65.2790354,5.77165217 C65.2775958,5.85773956 65.276876,5.94526042 65.276876,6.03421739 L65.276876,6.10308696 C65.276876,6.20639182 65.287673,6.29821699 65.3092673,6.37856522 C65.3308616,6.45891345 65.369011,6.52563017 65.4237166,6.57871739 C65.4784222,6.63180461 65.5482427,6.66982597 65.6331804,6.69278261 C65.718118,6.71573925 65.8167305,6.72721739 65.9290209,6.72721739 L66.1233688,6.72721739 L66.1233688,7.82913043 Z M59.2866441,6.72721739 C59.5889645,6.72721739 59.8797635,6.7178914 60.1590499,6.69923913 C60.4383363,6.68058686 60.6931454,6.65404365 60.9234847,6.6196087 C61.153824,6.58517374 61.3524887,6.54356546 61.5194847,6.49478261 C61.6864807,6.44599976 61.8117258,6.39147856 61.8952238,6.33121739 L61.4547021,6.33121739 C61.2013288,6.33121739 60.960196,6.29893511 60.7312963,6.23436957 C60.5023966,6.16980403 60.3015725,6.07295717 60.128818,5.94382609 C59.9560635,5.81469501 59.8185818,5.65328358 59.7163688,5.45958696 C59.6141557,5.26589034 59.5630499,5.03991433 59.5630499,4.78165217 C59.5630499,4.62956446 59.5788855,4.47317472 59.6105572,4.31247826 C59.6422288,4.15178181 59.6897356,3.99539206 59.7530789,3.84330435 C59.8164222,3.69121663 59.892721,3.5477398 59.9819775,3.41286957 C60.0712339,3.27799933 60.1734455,3.15963094 60.2886151,3.05776087 C60.4037848,2.9558908 60.5304695,2.87554377 60.6686731,2.81671739 C60.8068767,2.75789101 60.956595,2.72847826 61.1178325,2.72847826 C61.3165002,2.72847826 61.5022085,2.77008654 61.674963,2.85330435 C61.8477174,2.93652216 62.0046338,3.04915146 62.1457166,3.19119565 C62.2867994,3.33323984 62.4120445,3.49752081 62.5214557,3.68404348 C62.6308669,3.87056615 62.7230012,4.0671294 62.7978615,4.27373913 C62.8727218,4.48034886 62.929586,4.69054241 62.9684557,4.90432609 C63.0073255,5.11810976 63.0267601,5.32112947 63.0267601,5.5133913 C63.0267601,5.84052337 62.9814127,6.12460749 62.8907166,6.36565217 C62.8000205,6.60669686 62.6733358,6.81330349 62.5106586,6.98547826 C62.3479815,7.15765303 62.1536356,7.29826032 61.9276151,7.40730435 C61.7015947,7.51634837 61.4518242,7.60243447 61.1782963,7.66556522 C60.9047684,7.72869597 60.6118099,7.77173902 60.2994122,7.79469565 C59.9870145,7.81765229 59.6638245,7.82913043 59.3298325,7.82913043 L59.1829919,7.82913043 L59.1829919,6.72721739 L59.2866441,6.72721739 Z M61.1178325,3.839 C61.1034363,3.83613042 61.0890403,3.83469565 61.0746441,3.83469565 C61.0170593,3.83469565 60.9508377,3.85765194 60.8759775,3.90356522 C60.8011172,3.94947849 60.7291372,4.01547783 60.6600354,4.10156522 C60.5909336,4.1876526 60.5347893,4.28521685 60.4916006,4.39426087 C60.448412,4.50043531 60.426818,4.6051734 60.426818,4.70847826 L60.426818,4.72569565 C60.426818,4.82900052 60.4498516,4.91293446 60.4959195,4.9775 C60.5419873,5.04206554 60.6046099,5.09156505 60.683789,5.126 C60.7629682,5.16043495 60.8551025,5.18482602 60.9601948,5.19917391 C61.0652872,5.21352181 61.1768561,5.22356519 61.294905,5.22930435 C61.3726445,5.23217393 61.4532621,5.2336087 61.5367601,5.2336087 C61.5770694,5.2336087 61.639692,5.23289131 61.7246296,5.23145652 C61.8095673,5.23002173 61.896663,5.22643481 61.9859195,5.22069565 C61.9600063,5.11739079 61.9232965,4.98897903 61.875789,4.83545652 C61.8282816,4.68193402 61.769258,4.53271812 61.6987166,4.38780435 C61.6281752,4.24289058 61.5446784,4.11734836 61.4482238,4.01117391 C61.3517692,3.90499947 61.2416399,3.84760874 61.1178325,3.839 Z M61.9124992,1.32956522 L61.0832818,2.156 L60.2583833,1.32956522 L61.0832818,0.507434783 L61.9124992,1.32956522 Z M59.1916296,7.82913043 C58.9526526,7.82913043 58.7359929,7.80904368 58.5416441,7.76886957 C58.3472953,7.72869545 58.1709444,7.66484826 58.0125862,7.57732609 C57.8542279,7.48980391 57.7131472,7.37789199 57.5893398,7.24158696 C57.4655324,7.10528193 57.3561229,6.94100096 57.2611079,6.74873913 C56.4693165,7.47761234 55.2845264,7.84204348 53.7067021,7.84204348 C52.8054995,7.83630432 52.060507,7.72510978 51.4717021,7.50845652 C50.8828972,7.29180326 50.4488581,6.95821964 50.1695717,6.50769565 C50.0486435,6.29247718 49.9651468,6.06865334 49.9190789,5.83621739 C49.884528,5.6669122 49.8672528,5.49760954 49.8672528,5.32830435 C49.8672528,5.26230402 49.8722914,5.1546964 49.8823688,5.00547826 C49.8924461,4.85626012 49.9334747,4.66902287 50.0054557,4.44376087 C50.0774368,4.21849887 50.1724503,4.00543579 50.2904992,3.80456522 L51.1240354,4.3253913 C51.0405374,4.46313112 50.9714367,4.60086888 50.9167311,4.7386087 C50.8620255,4.87634851 50.8274751,5.01408627 50.8130789,5.15182609 C50.8073204,5.20347852 50.8044412,5.25513018 50.8044412,5.30678261 C50.8044412,5.39287 50.8152382,5.49186901 50.8368325,5.60378261 C50.8584268,5.71569621 50.9124118,5.83908628 50.998789,5.97395652 C51.0794078,6.10882676 51.2017737,6.22360822 51.3658905,6.31830435 C51.5300073,6.41300047 51.7293917,6.49047796 51.9640499,6.55073913 C52.1987081,6.6110003 52.4628745,6.65547812 52.7565572,6.68417391 C53.0502398,6.71286971 53.3669516,6.72721739 53.7067021,6.72721739 C54.0147809,6.72721739 54.3070196,6.71573925 54.5834267,6.69278261 C54.8598339,6.66982597 55.1168024,6.63323938 55.3543398,6.58302174 C55.5918772,6.5328041 55.8070973,6.46823953 56.0000064,6.38932609 C56.1929156,6.31041265 56.3584695,6.21356579 56.4966731,6.09878261 C56.6233597,6.0012169 56.7255713,5.88787021 56.8033108,5.75873913 C56.8810503,5.62960805 56.9458323,5.49402245 56.9976586,5.35197826 C57.049485,5.20993407 57.0926729,5.06430509 57.1272238,4.91508696 C57.1617747,4.76586882 57.1992043,4.62239199 57.2395137,4.48465217 L58.232847,4.75152174 C58.1781414,4.90360946 58.1349535,5.05856443 58.1032818,5.2163913 C58.0744894,5.35987028 58.0600934,5.4990428 58.0600934,5.63391304 L58.0600934,5.77380435 C58.0600934,5.85271779 58.0802478,5.9560211 58.1205572,6.08371739 C58.1608665,6.21141368 58.2256485,6.32332561 58.314905,6.41945652 C58.4041615,6.51558744 58.5214888,6.59091277 58.6668905,6.64543478 C58.8122922,6.69995679 58.9900827,6.72721739 59.2002673,6.72721739 L59.3557456,6.72721739 L59.3557456,7.82913043 L59.1916296,7.82913043 Z M53.9874267,3.45591304 L53.2532238,4.18765217 L52.5103833,3.4516087 L53.2445862,2.71556522 L53.9874267,3.45591304 Z M55.6199485,3.46021739 L54.8857456,4.19626087 L54.142905,3.45591304 L54.8771079,2.72417391 L55.6199485,3.46021739 Z M45.6391079,0.980913043 C45.7110889,1.52900274 45.7614749,2.05197577 45.7902673,2.54984783 C45.8190597,3.04771988 45.8363349,3.53482371 45.8420934,4.01117391 C45.8478519,4.41578463 45.8500113,4.79025915 45.8485717,5.1346087 C45.847132,5.47895824 45.843533,5.79962895 45.8377746,6.09663043 C45.8320161,6.39363192 45.8233785,6.67054219 45.8118615,6.92736957 C45.8003445,7.18419694 45.7888278,7.42452062 45.7773108,7.64834783 L44.6457746,7.82052174 C44.7062386,6.87356048 44.7364702,6.03709059 44.7364702,5.31108696 C44.7364702,5.01838984 44.7321514,4.7443491 44.7235137,4.48895652 C44.7004798,3.90069271 44.674567,3.34758955 44.6457746,2.82963043 C44.6169821,2.31167132 44.578113,1.81595889 44.5291659,1.34247826 L45.6391079,0.980913043 Z M43.1557746,4.96673913 C43.2133594,5.14752264 43.2731028,5.33619467 43.3350064,5.53276087 C43.3969101,5.72932707 43.4530545,5.92804247 43.5034412,6.12891304 C43.5538279,6.32978361 43.5948565,6.52993379 43.6265282,6.72936957 C43.6581998,6.92880535 43.6740354,7.12321644 43.6740354,7.3126087 C43.6740354,7.57087086 43.6344465,7.82267269 43.5552673,8.06802174 C43.4760882,8.31337079 43.3666786,8.55010756 43.2270354,8.77823913 C43.0873922,9.00637071 42.9218383,9.2237381 42.7303688,9.43034783 C42.5388992,9.63695755 42.3308771,9.83208604 42.1062963,10.0157391 C41.8817155,10.1993922 41.6441816,10.3701296 41.3936876,10.5279565 C41.1431936,10.6857834 40.8898241,10.8278255 40.6335717,10.954087 L40.1412238,9.9683913 C40.34565,9.86795602 40.5471939,9.75676148 40.7458615,9.63480435 C40.9445292,9.51284722 41.1338365,9.38300069 41.313789,9.24526087 C41.4937416,9.10752105 41.6607351,8.96260946 41.8147746,8.81052174 C41.968814,8.65843402 42.1012571,8.50060951 42.2121079,8.33704348 C42.3229587,8.17347744 42.4100544,8.00560956 42.4733977,7.83343478 C42.5367411,7.66126001 42.5684122,7.48765305 42.5684122,7.3126087 C42.5684122,7.14904266 42.5496974,6.97687047 42.5122673,6.79608696 C42.4748372,6.61530344 42.4294898,6.4366748 42.3762238,6.26019565 C42.3229579,6.08371651 42.2682531,5.91369647 42.2121079,5.75013043 C42.1559627,5.5865644 42.1091757,5.44165281 42.0717456,5.3153913 L43.1557746,4.96673913 Z M43.2896586,3.13308696 L42.4604412,3.95952174 L41.6355427,3.13308696 L42.4604412,2.31095652 L43.2896586,3.13308696 Z" id="play-store-path"></path>
    </defs>
    <g stroke="none" stroke-width="1" fill="none" fill-rule="evenodd">
        <path d="M148.998881,44 L1.15719066e-14,44 C-1.42108547e-14,36.3 -1.3823144e-14,42.0261725 -1.3823144e-14,39.5894054 L-1.3823144e-14,4.4163526 C-1.3823144e-14,1.98073702 -1.42108547e-14,12.1 -1.16261167e-14,0 L148.998881,0 C148.998881,0 148.998881,1.98073702 148.998881,4.4163526 L149,39.5894054 C149,42.0261725 149,33.8852071 148.998881,44 Z" fill="#000000"></path>
        <polygon fill="url(#linearGradient-play-store)" points="5.25711162e-14 3.55271368e-15 120.303704 3.55271368e-15 77.0539203 44 -1.42108547e-14 44"></polygon>
        <g stroke-width="1" transform="translate(12.140741, 6.600000)">
            <path d="M101.146994,28.6650991 C100.732812,28.1950982 100.50195,27.6181824 100.446023,26.9633707 C100.437038,26.8574333 100.439469,26.7502671 100.439469,26.6437711 C100.439223,19.150485 100.440725,11.657115 100.437038,4.16382883 C100.436629,3.38576334 100.654274,2.70106684 101.136562,2.14113228 C105.470385,6.57835108 109.796343,11.0075261 114.096904,15.4106707 C109.811499,19.7967502 105.485787,24.2243053 101.146994,28.6650991 Z M102.40628,29.5310314 C106.679615,25.157241 110.933424,20.8032806 115.156431,16.4809087 C116.660615,18.0188854 118.18255,19.5749605 119.706315,21.1329348 C117.843329,22.1530949 115.954237,23.1869964 114.065745,24.2217917 C110.975943,25.9147502 107.886114,27.6076808 104.797186,29.3022593 C104.036409,29.7196407 103.251274,29.8296278 102.40628,29.5310314 Z M102.412288,1.25419684 C103.24158,0.986351055 104.028627,1.06902296 104.79481,1.48992348 C108.203106,3.36219068 111.614843,5.22781061 115.025324,7.09580456 C116.492124,7.899314 117.958979,8.70279551 119.425615,9.50669596 C119.525344,9.56141023 119.622916,9.62020224 119.6875,9.6574046 C118.168541,11.2122229 116.651713,12.7649185 115.153782,14.2983426 C110.937903,9.98233869 106.685677,5.62907656 102.412288,1.25419684 Z M116.1783,15.4177369 C117.820581,13.7387711 119.433343,12.0900532 121.061179,10.4258623 C121.049764,10.4258623 121.073385,10.4184888 121.088815,10.4269236 C122.566019,11.2345946 124.065343,12.0031639 125.513355,12.8623931 C127.38497,13.9728778 127.400399,16.7929114 125.537631,17.9135066 C124.121707,18.7652507 122.649008,19.5180677 121.197037,20.3061599 C121.13106,20.3420217 120.985945,20.3273586 120.935698,20.2764427 C119.346503,18.6625532 117.7646,17.0412622 116.1783,15.4177369 Z" fill="#FFFFFF" fill-rule="nonzero"></path>
            <path d="M25.0094563,18.8887574 C22.7863935,18.8887574 21.0264688,20.6461538 21.0264688,23.0869822 C21.0264688,25.4301775 22.7863935,27.2852071 25.0094563,27.2852071 C27.232519,27.2852071 28.9924437,25.5278107 28.9924437,23.0869822 C28.9924437,20.5485207 27.232519,18.8887574 25.0094563,18.8887574 Z M25.0094563,25.5278107 C23.8052973,25.5278107 22.7863935,24.4538462 22.7863935,22.9893491 C22.7863935,21.5248521 23.8052973,20.4508876 25.0094563,20.4508876 C26.2136153,20.4508876 27.232519,21.4272189 27.232519,22.9893491 C27.232519,24.4538462 26.2136153,25.5278107 25.0094563,25.5278107 Z M16.395088,18.8887574 C14.1720252,18.8887574 12.4121005,20.6461538 12.4121005,23.0869822 C12.4121005,25.4301775 14.1720252,27.2852071 16.395088,27.2852071 C18.6181508,27.2852071 20.3780755,25.5278107 20.3780755,23.0869822 C20.3780755,20.5485207 18.6181508,18.8887574 16.395088,18.8887574 Z M16.395088,25.5278107 C15.190929,25.5278107 14.1720252,24.4538462 14.1720252,22.9893491 C14.1720252,21.5248521 15.190929,20.4508876 16.395088,20.4508876 C17.599247,20.4508876 18.6181508,21.4272189 18.6181508,22.9893491 C18.6181508,24.4538462 17.599247,25.5278107 16.395088,25.5278107 Z M6.11342264,20.1579882 L6.11342264,21.9153846 L10.0964101,21.9153846 C10.0037825,22.891716 9.63327204,23.6727811 9.17013396,24.1609467 C8.61436827,24.7467456 7.68809211,25.4301775 6.11342264,25.4301775 C3.61247702,25.4301775 1.7599247,23.3798817 1.7599247,20.743787 C1.7599247,18.1076923 3.70510463,16.0573964 6.11342264,16.0573964 C7.41020926,16.0573964 8.42911304,16.6431953 9.17013396,17.3266272 L10.374293,16.0573964 C9.3553892,15.0810651 8.05860257,14.3 6.20605026,14.3 C2.87145609,14.3 0,17.2289941 0,20.743787 C0,24.2585799 2.87145609,27.187574 6.20605026,27.187574 C8.05860257,27.187574 9.3553892,26.6017751 10.4669206,25.3325444 C11.578452,24.1609467 11.9489624,22.5011834 11.9489624,21.2319527 C11.9489624,20.8414201 11.9489624,20.4508876 11.8563348,20.1579882 L6.11342264,20.1579882 L6.11342264,20.1579882 Z M48.1663602,21.5248521 C47.7958498,20.5485207 46.8695736,18.8887574 44.831766,18.8887574 C42.7939585,18.8887574 41.1266614,20.5485207 41.1266614,23.0869822 C41.1266614,25.4301775 42.7939585,27.2852071 45.0170213,27.2852071 C46.776946,27.2852071 47.8884774,26.1136095 48.2589878,25.4301775 L46.9622012,24.4538462 C46.4990631,25.1372781 45.9432974,25.6254438 45.0170213,25.6254438 C44.0907451,25.6254438 43.5349794,25.2349112 43.0718413,24.356213 L48.3516154,22.0130178 L48.1663602,21.5248521 L48.1663602,21.5248521 Z M42.7939585,22.891716 C42.7939585,21.3295858 43.9981175,20.4508876 44.831766,20.4508876 C45.4801594,20.4508876 46.1285527,20.8414201 46.3138079,21.3295858 L42.7939585,22.891716 Z M38.4404606,26.8946746 L40.2003853,26.8946746 L40.2003853,14.6905325 L38.4404606,14.6905325 L38.4404606,26.8946746 Z M35.6616321,19.7674556 C35.198494,19.2792899 34.4574731,18.7911243 33.5311969,18.7911243 C31.586017,18.7911243 29.7334647,20.6461538 29.7334647,22.9893491 C29.7334647,25.3325444 31.4933894,27.0899408 33.5311969,27.0899408 C34.4574731,27.0899408 35.198494,26.6017751 35.5690045,26.1136095 L35.6616321,26.1136095 L35.6616321,26.6994083 C35.6616321,28.2615385 34.8279835,29.1402367 33.5311969,29.1402367 C32.5122931,29.1402367 31.7712722,28.3591716 31.586017,27.6757396 L30.1039751,28.3591716 C30.5671132,29.4331361 31.6786446,30.8 33.6238245,30.8 C35.6616321,30.8 37.3289292,29.5307692 37.3289292,26.504142 L37.3289292,19.0840237 L35.6616321,19.0840237 L35.6616321,19.7674556 L35.6616321,19.7674556 Z M33.6238245,25.5278107 C32.4196655,25.5278107 31.4007618,24.4538462 31.4007618,22.9893491 C31.4007618,21.5248521 32.4196655,20.4508876 33.6238245,20.4508876 C34.8279835,20.4508876 35.7542597,21.5248521 35.7542597,22.9893491 C35.7542597,24.4538462 34.8279835,25.5278107 33.6238245,25.5278107 Z M56.2249628,14.6905325 L52.0567201,14.6905325 L52.0567201,26.8946746 L53.8166448,26.8946746 L53.8166448,22.3059172 L56.2249628,22.3059172 C58.1701427,22.3059172 60.022695,20.8414201 60.022695,18.4982249 C60.022695,16.1550296 58.1701427,14.6905325 56.2249628,14.6905325 L56.2249628,14.6905325 Z M56.3175904,20.5485207 L53.8166448,20.5485207 L53.8166448,16.3502959 L56.3175904,16.3502959 C57.614377,16.3502959 58.355398,17.5218935 58.355398,18.4005917 C58.2627703,19.4745562 57.5217494,20.5485207 56.3175904,20.5485207 Z M66.9697662,18.7911243 C65.6729796,18.7911243 64.376193,19.3769231 63.9130549,20.6461538 L65.4877244,21.3295858 C65.8582348,20.6461538 66.4140005,20.4508876 67.0623938,20.4508876 C67.98867,20.4508876 68.8223185,21.0366864 68.9149462,22.0130178 L68.9149462,22.1106509 C68.6370633,21.9153846 67.8960424,21.6224852 67.1550215,21.6224852 C65.4877244,21.6224852 63.8204273,22.5988166 63.8204273,24.356213 C63.8204273,26.0159763 65.2098415,27.0899408 66.6918834,27.0899408 C67.8960424,27.0899408 68.4518081,26.504142 68.9149462,25.9183432 L69.0075738,25.9183432 L69.0075738,26.8946746 L70.6748709,26.8946746 L70.6748709,22.208284 C70.4896156,20.060355 68.9149462,18.7911243 66.9697662,18.7911243 L66.9697662,18.7911243 Z M66.784511,25.5278107 C66.2287453,25.5278107 65.3950968,25.2349112 65.3950968,24.4538462 C65.3950968,23.4775148 66.4140005,23.1846154 67.2476491,23.1846154 C67.98867,23.1846154 68.3591805,23.3798817 68.8223185,23.5751479 C68.6370633,24.7467456 67.7107871,25.5278107 66.784511,25.5278107 L66.784511,25.5278107 Z M76.5104106,19.0840237 L74.5652307,24.356213 L74.4726031,24.356213 L72.4347956,19.0840237 L70.5822432,19.0840237 L73.6389546,26.504142 L71.8790299,30.6047337 L73.6389546,30.6047337 L78.362963,19.0840237 L76.5104106,19.0840237 L76.5104106,19.0840237 Z M60.9489712,26.8946746 L62.7088959,26.8946746 L62.7088959,14.6905325 L60.9489712,14.6905325 L60.9489712,26.8946746 Z" fill="#FFFFFF" fill-rule="nonzero"></path>
            <g fill-rule="nonzero">
                <use fill="#000000" xlink:href="#play-store-path"></use>
                <use fill="#FFFFFF" xlink:href="#play-store-path"></use>
            </g>
        </g>
    </g>
</svg>