<?xml version="1.0" encoding="UTF-8"?>
<svg width="149px" height="44px" viewBox="0 0 149 44" version="1.1" xmlns="http://www.w3.org/2000/svg" xmlns:xlink="http://www.w3.org/1999/xlink">
    <defs>
        <path d="M4.79353974e-14,44.000001 C-4.55191512e-15,42.4473264 3.65363123e-14,41.5250009 3.65363123e-14,38.5000008 L3.65363123e-14,5.50000012 C3.65363123e-14,2.47500005 5.16062892e-14,2.47500005 5.57601931e-14,0 L148.500003,0 C148.500003,2.78609059 148.500003,2.47500005 148.500003,5.50000012 L148.500003,38.5000008 C148.500003,41.5250009 148.500003,41.5250009 148.500003,44.000001 L4.79353974e-14,44.000001 Z" id="cafebazar-path"></path>
        <linearGradient id="linearGradient-cafebazaar" x1="50%" y1="21.9564606%" x2="50%" y2="100%">
            <stop stop-color="#FFFFFF" stop-opacity="0.124009284" offset="0%"></stop>
            <stop stop-color="#FFFFFF" stop-opacity="0" offset="100%"></stop>
        </linearGradient>
    </defs>
    <g stroke="none" stroke-width="1" fill="none" fill-rule="evenodd">
        <g transform="translate(-92.000000, -282.000000)">
            <g transform="translate(92.000000, 282.000000)">
                <mask fill="white">
                    <use xlink:href="#cafebazar-path"></use>
                </mask>
                <use fill="#8BC34A" fill-rule="evenodd" xlink:href="#cafebazar-path"></use>
                <polygon fill="url(#linearGradient-cafebazaar)" fill-rule="evenodd" points="4.58490398e-14 0 103.242859 -9.54097932e-18 59.9622712 44.000001 0 44.000001"></polygon>
                <g stroke-width="1" fill-rule="evenodd" transform="translate(14.142857, 4.290000)" fill="#FFFFFF">
                    <path d="M10.9629244,9.82666688 C10.6955347,10.4622256 10.4403028,11.0977748 10.1972213,11.7333335 C9.95413965,12.3688923 9.73536958,12.9677752 9.5409043,13.5300003 C9.05474103,13.603334 8.67189332,13.6522224 8.39234956,13.676667 L7.9730359,13.7133336 C7.65702987,13.7622227 7.34710555,13.8050002 7.04325347,13.841667 C6.73940154,13.8783339 6.44163117,13.9211112 6.14993318,13.9700003 C5.76100262,14.0188894 5.35992405,14.0677778 4.94668545,14.116667 C4.53344672,14.1655561 4.1202142,14.2022224 3.70697561,14.226667 C3.07496341,14.2755561 2.55842284,14.2266677 2.15733833,14.0800003 C1.75625368,13.933333 1.43417542,13.701113 1.19109378,13.3833336 C1.21540196,13.3588891 1.22755591,13.3405559 1.22755591,13.3283337 L1.22755591,13.2733336 C1.44632937,12.8088869 2.18771705,12.1855597 3.45174115,11.4033336 C4.7157654,10.6211074 7.2194681,10.0955571 10.9629244,9.82666688 Z M15.7759155,1.83333337 C16.8940907,1.83333337 17.9636337,2.57888149 18.9845763,4.07000009 C20.0055189,5.56111868 20.8441378,7.14999172 21.500458,8.83666686 C21.2573765,8.81222229 21.0082216,8.78777809 20.7529859,8.76333352 C20.4977503,8.73888896 20.2242876,8.72666685 19.9325897,8.72666685 C19.3491939,7.4311048 18.6989605,6.31278263 17.9818698,5.37166679 C17.2647791,4.43055095 16.5294685,3.96000009 15.7759155,3.96000009 C14.9980546,3.96000009 14.2445129,4.43055095 13.5152682,5.37166679 C12.7860234,6.31278263 12.1175591,7.41888269 11.5098552,8.69000019 C11.2181572,8.71444476 10.9386177,8.7327779 10.6712279,8.7450002 C10.4038382,8.75722248 10.1486063,8.77555562 9.90552485,8.80000018 C10.5861533,7.13776962 11.4490798,5.56111868 12.4943306,4.07000009 C13.5395814,2.57888149 14.6334322,1.83333337 15.7759155,1.83333337 Z M29.9231926,13.3833336 L29.9414236,13.401667 C29.9535777,13.4138893 29.9596546,13.4322223 29.9596546,13.4566669 C29.7165731,13.7744464 29.4005718,13.988333 29.0116412,14.0983337 C28.6227106,14.2083343 28.1244009,14.2511116 27.516697,14.226667 C27.1034583,14.2022224 26.6902258,14.1655561 26.2769872,14.116667 C25.8637484,14.0677778 25.4626699,14.0188894 25.0737393,13.9700003 C24.7820415,13.9211112 24.484271,13.8783339 24.180419,13.841667 C23.8765671,13.8050002 23.5666426,13.7744448 23.2506366,13.7500002 C23.2506366,13.7255557 23.1230208,13.7011115 22.8677851,13.676667 C22.6125495,13.6522224 22.2661633,13.6155561 21.8286166,13.5666669 C21.6341513,13.004442 21.4214581,12.405559 21.1905306,11.7700003 C20.959603,11.1344415 20.7104482,10.4866702 20.4430585,9.82666688 C24.1622066,10.1444463 26.6233707,10.7005518 27.8266245,11.4950003 C29.0298783,12.2894487 29.7287273,12.9188868 29.9231926,13.3833336 Z M12.3484824,8.65333352 C12.8832619,7.52888342 13.4484181,6.58778171 14.0439679,5.83000013 C14.6395178,5.07221855 15.2168279,4.69333343 15.7759155,4.69333343 C16.310695,4.69333343 16.8697742,5.07832959 17.45317,5.84833346 C18.0365659,6.61833732 18.595645,7.553328 19.1304245,8.65333352 C18.5713369,8.62888895 18.0001037,8.6105558 17.4167079,8.59833351 C16.8333122,8.58611123 16.2134634,8.58000018 15.5571432,8.58000018 L15.5206812,8.58000018 C14.9372854,8.58000018 14.3842831,8.58611123 13.8616577,8.59833351 C13.3390323,8.6105558 12.8346455,8.62888895 12.3484824,8.65333352 Z M15.5206812,9.64333354 L15.5571432,9.64333354 C16.3106961,9.64333354 17.0277759,9.65555565 17.7084043,9.68000021 C18.3890327,9.70444477 19.0331893,9.74111108 19.6408933,9.79000022 C19.8839748,10.4011144 20.1270527,11.0183305 20.3701344,11.641667 C20.6132159,12.2650034 20.8319861,12.8822194 21.0264514,13.4933337 C20.2728984,13.42 19.4099718,13.3466673 18.4376454,13.2733336 C17.4653192,13.1999999 16.5173152,13.1633336 15.5936052,13.1633336 C14.7185116,13.1633336 13.8130463,13.1938888 12.8771822,13.2550003 C11.9413182,13.3161118 11.0966223,13.3833332 10.3430695,13.4566669 C10.5618428,12.8699974 10.792767,12.2588923 11.0358485,11.6233336 C11.2789301,10.9877748 11.5341619,10.3644477 11.8015517,9.75333354 C12.3606392,9.72888898 12.9501032,9.70444477 13.5699613,9.68000021 C14.1898192,9.65555565 14.8400527,9.64333354 15.5206812,9.64333354 Z M30.9441301,12.9433336 C30.628124,12.185552 29.8502746,11.4216707 28.6105587,10.6516669 C27.3708426,9.88166303 25.2803724,9.31333537 22.3390853,8.94666686 C22.1203119,8.40888638 21.8103875,7.69389352 21.4093029,6.80166682 C21.0082182,5.90944011 20.5281394,5.041671 19.9690517,4.19833343 C19.4099642,3.35499586 18.7779615,2.6277809 18.0730249,2.01666671 C17.3680884,1.40555253 16.6023929,1.10000002 15.7759155,1.10000002 C14.9494382,1.10000002 14.1715888,1.40555253 13.442344,2.01666671 C12.7130993,2.6277809 12.0628659,3.35499586 11.4916241,4.19833343 C10.9203825,5.041671 10.4281497,5.90332906 10.0149109,6.78333347 C9.60167234,7.6633379 9.28567098,8.37221972 9.06689753,8.91000019 C6.07699422,9.25222414 3.94398529,9.80221865 2.66780709,10.5600002 C1.39162875,11.3177818 0.583394575,12.075552 0.243080371,12.8333336 C0.0972314462,13.1511129 0.0182311416,13.4199991 0.0060770528,13.6400003 C-0.00607700775,13.8600014 -6.233327e-08,14.0066666 0.0243080446,14.0800003 C0.0243080446,14.2511123 0.121539341,15.1005482 0.31600448,16.6283338 C0.510469759,18.1561192 0.923702274,20.0322116 1.55571433,22.2566672 C1.84741232,23.283339 2.18164439,24.3222175 2.55842086,25.3733339 C2.93519733,26.4244503 3.32412195,27.4205514 3.7252066,28.3616673 C4.12629125,29.3027831 4.52129291,30.146108 4.91022333,30.8916673 C5.29915389,31.6372267 5.65161695,32.2299985 5.96762298,32.6700007 C6.47809428,33.3544485 7.37748257,33.9838868 8.665815,34.5583341 C9.95414728,35.1327814 12.2512337,35.4200008 15.5571432,35.4200008 C18.8630527,35.4200008 21.1601391,35.1327814 22.4484714,34.5583341 C23.7368038,33.9838868 24.6361921,33.3544485 25.1466634,32.6700007 C25.4626695,32.2299985 25.8151325,31.6372267 26.2040631,30.8916673 C26.5929935,30.146108 26.9879952,29.3027831 27.3890798,28.3616673 C27.7901645,27.4205514 28.1790891,26.4244503 28.5558655,25.3733339 C28.932642,24.3222175 29.2668741,23.283339 29.5585721,22.2566672 C30.1905841,20.0322116 30.6038166,18.1561192 30.7982819,16.6283338 C30.9927471,15.1005482 31.0899784,14.2511123 31.0899784,14.0800003 C31.1142864,14.0066666 31.1203634,13.8722235 31.1082094,13.676667 C31.0960553,13.4811105 31.0413627,13.2366684 30.9441301,12.9433336 Z" ></path>
                    <path d="M88.6325347,26.9202761 L88.6325347,16.6828299 C88.6325347,16.1035865 88.8335557,15.6124962 89.2356038,15.2095443 C89.6376519,14.8065924 90.1276406,14.6051195 90.7055847,14.6051195 C91.2584008,14.6051195 91.7358258,14.8002964 92.1378739,15.1906561 C92.5399219,15.5810157 92.7535068,16.0532179 92.7786348,16.6072769 L92.7786348,26.2402982 C92.7786348,26.5425121 92.8477357,26.7628731 92.9859398,26.9013878 C93.1241438,27.0399026 93.3440105,27.1091589 93.6455466,27.1091589 L96.8870431,27.1091589 C97.5152433,27.1343434 98.0303596,27.3484083 98.4324077,27.7513603 C98.8344558,28.1543122 99.022913,28.6579945 98.997785,29.2624225 C98.997785,29.7912969 98.8093277,30.250907 98.4324077,30.6412667 C98.0554875,31.0316264 97.6031903,31.2268032 97.0755022,31.2268032 C96.296534,31.2519878 95.5301413,31.2645798 94.7763011,31.2645798 C94.0224611,31.2645798 93.2686322,31.2519878 92.514792,31.2268032 C91.5599278,31.2016188 90.7118703,30.8364491 89.9705942,30.1312832 C89.2293181,29.4261173 88.7958666,28.5950415 88.6702265,27.6380307 C88.6702265,27.5121082 88.6639446,27.3924835 88.6513806,27.2791533 C88.6388165,27.1658231 88.6325347,27.0461986 88.6325347,26.9202761 Z M86.5217928,22.8781848 L86.5217928,29.1113162 C86.5217928,30.3201721 86.1197507,31.3275367 85.3156546,32.1334406 C84.5115585,32.9393444 83.5190171,33.3422902 82.3380008,33.3422902 L78.154209,33.3422902 C77.6767768,33.3171058 77.255889,33.153409 76.891533,32.851195 C76.5271769,32.5489811 76.2947464,32.1586273 76.1942344,31.680122 C76.1188503,31.2016165 76.1816694,30.7483023 76.3826935,30.3201659 C76.5837175,29.8920295 76.9103766,29.5898201 77.3626808,29.4135286 C77.5134487,29.3379751 77.6704964,29.2876069 77.8338284,29.2624225 C77.9971605,29.2372379 78.1542081,29.2246459 78.3049762,29.2246459 C78.8326643,29.1994615 79.3603445,29.1868693 79.8880326,29.1868693 L81.4710891,29.1868693 C81.8228811,29.1868693 82.0678755,29.1239091 82.2060795,28.9979866 C82.3442835,28.8720641 82.4133845,28.6328149 82.4133845,28.280232 L82.4133845,22.9915144 C82.4133845,22.4878245 82.5578684,22.0471025 82.8468405,21.6693351 C83.1358124,21.2915677 83.5190088,21.0397264 83.9964409,20.913804 C84.649769,20.7626971 85.2339864,20.8886176 85.7491105,21.2915696 C86.2642346,21.6945214 86.5217928,22.2233879 86.5217928,22.8781848 Z M80.3026427,14.5673429 L80.3026427,22.4437545 C80.3026427,23.3126195 80.2900789,24.1751755 80.2649508,25.0314484 C80.2649508,25.8121678 79.9320097,26.3976984 79.2661176,26.7880581 C78.6002255,27.1784178 77.9280614,27.197306 77.2496052,26.844723 C76.9229411,26.6684315 76.665383,26.4291825 76.4769229,26.1269684 C76.288463,25.8247545 76.1816706,25.484769 76.1565425,25.1070016 L76.1565425,14.6806726 C76.1565425,14.2021671 76.2884626,13.7740371 76.5523066,13.3962697 C76.8161507,13.0185023 77.1742194,12.7666611 77.6265234,12.6407386 C78.2798516,12.4392626 78.8829146,12.5399991 79.4357308,12.9429511 C79.9885469,13.345903 80.2775146,13.8873615 80.3026427,14.5673429 Z M86.5217928,16.6828299 C86.5217928,17.2368889 86.3207718,17.721683 85.9187237,18.1372273 C85.5166756,18.5527715 85.0392507,18.7605404 84.4864345,18.7605404 C83.9084905,18.7605404 83.4185017,18.5590675 83.0164536,18.1561156 C82.6144056,17.7531636 82.4133845,17.2620733 82.4133845,16.6828299 C82.4133845,16.1287711 82.6144056,15.6439768 83.0164536,15.2284326 C83.4185017,14.8128884 83.8959267,14.6051195 84.4487427,14.6051195 C85.0266869,14.6051195 85.5166756,14.8065924 85.9187237,15.2095443 C86.3207718,15.6124962 86.5217928,16.1035865 86.5217928,16.6828299 Z M90.6678928,33.3422902 C90.6678928,33.9215336 90.4668719,34.4126239 90.0648239,34.8155759 C89.6627757,35.2185278 89.1853508,35.4200008 88.6325347,35.4200008 C88.0545905,35.4200008 87.5646019,35.2185278 87.1625537,34.8155759 C86.7605056,34.4126239 86.5594847,33.9215336 86.5594847,33.3422902 C86.5594847,32.7882314 86.7605056,32.3097331 87.1625537,31.9067813 C87.5646019,31.5038293 88.0545905,31.3023564 88.6325347,31.3023564 C89.2104787,31.3023564 89.6941857,31.4975333 90.0836696,31.887893 C90.4731537,32.2782527 90.6678928,32.7630468 90.6678928,33.3422902 Z M74.0458007,18.6472108 L74.0458007,25.2581077 C74.0206726,26.240303 73.6500401,27.109155 72.9338919,27.86469 C72.2177439,28.6202248 71.3696864,29.0357628 70.3896941,29.1113162 C69.887134,29.1616853 69.3845815,29.1805733 68.8820214,29.167981 C68.3794613,29.1553888 67.8769087,29.1616849 67.3743487,29.1868693 L66.5828204,29.1868693 C66.3064124,29.1868693 66.0425723,29.1742773 65.7912922,29.1490928 C65.6405241,29.1490928 65.4960403,29.1365007 65.3578363,29.1113162 C65.2196323,29.0861318 65.0877122,29.0483555 64.9620722,28.9979866 L64.8489968,28.9413217 C64.8238687,28.9287296 64.7987411,28.9224334 64.7736131,28.9224334 C64.748485,28.897249 64.7296394,28.884657 64.7170753,28.884657 L64.6982295,28.884657 C64.3715654,28.7083654 64.1140072,28.4628202 63.9255472,28.1480142 C63.7370872,27.833208 63.6428585,27.4743343 63.6428585,27.0713823 C63.6428585,26.5676924 63.8061882,26.1269704 64.1328521,25.7492029 C64.4595162,25.3714355 64.8741221,25.1447784 65.3766822,25.069225 C65.4269383,25.069225 65.4834753,25.062929 65.5462954,25.0503367 C65.6091154,25.0377444 65.6782164,25.0314484 65.7536004,25.0314484 L69.0704805,25.0314484 C69.3720165,25.0314484 69.5918834,24.962192 69.7300874,24.8236774 C69.8682914,24.6851626 69.9373924,24.4773937 69.9373924,24.2003642 C69.9373924,23.2937223 69.9311104,22.3933902 69.9185465,21.4993406 C69.9059824,20.605291 69.9122643,19.7175508 69.9373924,18.8360935 C69.9373924,18.3072191 70.0818762,17.860201 70.3708483,17.4950259 C70.6598203,17.1298506 71.0430166,16.8843055 71.5204488,16.7583831 C72.1235209,16.607276 72.6888925,16.7269007 73.2165806,17.1172603 C73.7442687,17.50762 74.0206726,18.0175984 74.0458007,18.6472108 Z"></path>
                    <path d="M119.242189,6.13752187 C119.351233,6.20639178 119.482514,6.27669543 119.636037,6.34843492 C119.789559,6.42017441 119.948819,6.48473898 120.113819,6.54213058 C120.27882,6.59952217 120.440949,6.64686952 120.600211,6.68417406 C120.759472,6.72147859 120.899362,6.74013058 121.019885,6.74013058 C121.068667,6.74013058 121.128928,6.73869581 121.200667,6.73582623 C121.272407,6.73295665 121.348449,6.7265002 121.428798,6.71645667 C121.509146,6.70641314 121.589493,6.69063069 121.669841,6.66910884 C121.750189,6.64758699 121.822645,6.61745686 121.887211,6.57871753 C121.951776,6.53997821 122.004145,6.49119609 122.044319,6.4323697 C122.084494,6.37354332 122.106015,6.30108752 122.108885,6.21500013 L122.108885,6.20208709 C122.108885,6.08730391 122.076602,5.95745738 122.012037,5.8125436 C121.947471,5.66762983 121.859233,5.51554439 121.747319,5.35628272 C121.635406,5.19702106 121.506277,5.03704439 121.359928,4.87634793 C121.21358,4.71565147 121.061494,4.56141388 120.903667,4.41363053 C120.74584,4.26584718 120.587298,4.12954419 120.428037,4.00471748 C120.268775,3.87989076 120.120277,3.77443529 119.982537,3.68834791 L120.623885,2.73708702 C120.887886,2.91787053 121.148296,3.12160763 121.405124,3.34830442 C121.661951,3.57500121 121.898688,3.81675967 122.115341,4.07358704 C122.331994,4.33041442 122.519949,4.59799871 122.679211,4.87634793 C122.838472,5.15469716 122.952536,5.43591174 123.021406,5.72000012 C123.058711,5.88356616 123.077363,6.03995591 123.077363,6.18917405 C123.077363,6.33265303 123.05082,6.50482522 122.997732,6.7056958 C122.944645,6.90656637 122.824842,7.10384701 122.638319,7.29754364 C122.451797,7.49124026 122.21506,7.63973878 121.928102,7.74304365 C121.681318,7.83200061 121.410147,7.87647843 121.11458,7.87647843 C121.065797,7.87647843 121.015581,7.87504366 120.963928,7.87217408 C120.774536,7.87217408 120.582277,7.85423948 120.387145,7.81836973 C120.192014,7.78249999 120.000472,7.73300048 119.812515,7.66986973 C119.624558,7.60673898 119.443777,7.53428318 119.270167,7.45250016 C119.096558,7.37071714 118.935146,7.28391366 118.785928,7.19208711 L119.242189,6.13752187 Z M117.71845,4.96673924 C117.775841,5.14752275 117.835384,5.33619479 117.89708,5.53276099 C117.958776,5.72932719 118.014732,5.9280426 118.06495,6.12891318 C118.115167,6.32978375 118.156058,6.52993393 118.187624,6.72936971 C118.219189,6.9288055 118.234972,7.1232166 118.234972,7.31260885 C118.234972,7.57087102 118.195515,7.82267286 118.116602,8.06802191 C118.037689,8.31337097 117.928646,8.55010774 117.789472,8.77823932 C117.650297,9.0063709 117.485299,9.2237383 117.294471,9.43034803 C117.103644,9.63695776 116.89632,9.83208625 116.672493,10.0157393 C116.448666,10.1993924 116.211929,10.3701299 115.962276,10.5279567 C115.712622,10.6857836 115.460103,10.8278257 115.204711,10.9540872 L114.714015,9.96839152 C114.917755,9.86795623 115.118623,9.75676169 115.316624,9.63480456 C115.514625,9.51284742 115.703297,9.38300089 115.882645,9.24526107 C116.061994,9.10752125 116.228427,8.96260965 116.38195,8.81052193 C116.535472,8.65843421 116.667471,8.5006097 116.77795,8.33704366 C116.888429,8.17347762 116.975232,8.00560973 117.038363,7.83343495 C117.101494,7.66126017 117.133058,7.48765321 117.133058,7.31260885 C117.133058,7.14904282 117.114406,6.97687062 117.077102,6.7960871 C117.039797,6.61530359 116.994602,6.43667493 116.941515,6.26019579 C116.888428,6.08371664 116.833907,5.9136966 116.77795,5.75013056 C116.721993,5.58656452 116.675363,5.44165292 116.638058,5.31539142 L117.71845,4.96673924 Z M110.98645,6.72721754 L111.903276,6.72721754 C112.038146,6.72721754 112.183775,6.71932631 112.340167,6.70354362 C112.496559,6.68776094 112.641471,6.65476126 112.774906,6.60454362 C112.908342,6.55432598 113.018819,6.48187018 113.106341,6.38717405 C113.193863,6.29247792 113.237624,6.16621831 113.237624,6.00839143 C113.237624,5.93378236 113.221841,5.82904428 113.190276,5.69417404 C113.15871,5.55930379 113.117102,5.41008789 113.06545,5.24652185 C113.013797,5.08295581 112.95282,4.91365316 112.882515,4.7386088 C112.81221,4.56356444 112.73832,4.40000086 112.660841,4.24791314 L113.655145,3.75721747 C113.726885,3.92078351 113.798623,4.09439047 113.870363,4.27804357 C113.942102,4.46169667 114.005949,4.6503687 114.061906,4.84406532 C114.117863,5.03776195 114.163058,5.23217305 114.197493,5.42730447 C114.231928,5.62243588 114.249145,5.81326006 114.249145,5.99978274 C114.249145,6.33265398 114.18745,6.61530333 114.064058,6.84773928 C113.940666,7.08017523 113.772081,7.26884726 113.558298,7.41376103 C113.344514,7.5586748 113.094864,7.66413027 112.809341,7.7301306 C112.523818,7.79613093 112.21893,7.8291306 111.894667,7.8291306 L110.98645,7.8291306 L110.98645,6.72721754 Z M112.587667,9.10321759 L111.855928,9.83495673 L111.11558,9.09891324 L111.847319,8.36286975 L112.587667,9.10321759 Z M114.214711,9.10752194 L113.482971,9.84356543 L112.742624,9.10321759 L113.474363,8.37147844 L114.214711,9.10752194 Z M111.158624,7.8291306 L110.98645,7.8291306 C110.403925,7.8291306 109.962016,7.68278424 109.66071,7.39008712 C109.359405,7.09738999 109.207319,6.65548136 109.20445,6.06434796 C109.20445,5.97252141 109.207319,5.82115335 109.213058,5.61023925 C109.218797,5.39932515 109.221667,5.14178424 109.221667,4.8376088 C109.221667,4.65682528 109.220232,4.46241418 109.217363,4.25436966 C109.214493,4.04632513 109.210189,3.83397943 109.20445,3.61732617 C109.19871,3.4006729 109.190819,3.18402289 109.180776,2.96736963 C109.170732,2.75071637 109.158537,2.5412402 109.144189,2.33893483 C109.129841,2.13662947 109.112624,1.94724006 109.092537,1.77076091 C109.072449,1.59428176 109.049493,1.4386094 109.023667,1.30373916 L110.104058,0.980913065 C110.135624,1.14734868 110.164319,1.3503684 110.190145,1.5899783 C110.215971,1.82958819 110.238928,2.08569433 110.259015,2.3583044 C110.279102,2.6309131 110.294167,2.90854213 110.30421,3.19119572 C110.314254,3.47384931 110.319276,3.73999883 110.319276,3.98965226 C110.319276,4.14173998 110.32071,4.30315141 110.32358,4.4738914 C110.32645,4.64463139 110.327884,4.79456468 110.327884,4.92369576 C110.327884,5.03273978 110.327167,5.13532572 110.325732,5.23145664 C110.324297,5.32758755 110.322863,5.42013011 110.321428,5.50908708 C110.319993,5.59804404 110.318558,5.68556491 110.317124,5.7716523 C110.315689,5.85773969 110.314971,5.94526055 110.314971,6.03421752 L110.314971,6.10308709 C110.314971,6.20639196 110.325732,6.29821713 110.347254,6.37856536 C110.368776,6.45891359 110.406797,6.52563031 110.461319,6.57871753 C110.515841,6.63180476 110.585427,6.66982612 110.67008,6.69278275 C110.754733,6.71573939 110.853014,6.72721754 110.964928,6.72721754 L111.158624,6.72721754 L111.158624,7.8291306 Z M104.344841,6.72721754 C104.646147,6.72721754 104.93597,6.71789154 105.214319,6.69923928 C105.492668,6.68058701 105.746622,6.65404379 105.976189,6.61960884 C106.205755,6.58517388 106.403753,6.5435656 106.570189,6.49478275 C106.736624,6.4459999 106.861449,6.3914787 106.944667,6.33121753 L106.505623,6.33121753 C106.2531,6.33121753 106.012777,6.29893524 105.784645,6.2343697 C105.556514,6.16980416 105.356363,6.0729573 105.184189,5.94382622 C105.012014,5.81469513 104.874993,5.6532837 104.773123,5.45958707 C104.671253,5.26589045 104.620319,5.03991444 104.620319,4.78165228 C104.620319,4.62956456 104.636101,4.47317481 104.667667,4.31247835 C104.699232,4.1517819 104.74658,3.99539215 104.80971,3.84330443 C104.872841,3.69121671 104.948884,3.54773988 105.037841,3.41286964 C105.126798,3.2779994 105.228666,3.15963101 105.343449,3.05776094 C105.458233,2.95589086 105.584492,2.87554383 105.722232,2.81671745 C105.859972,2.75789107 106.009188,2.72847832 106.169884,2.72847832 C106.367885,2.72847832 106.55297,2.7700866 106.725145,2.85330441 C106.89732,2.93652222 107.05371,3.04915153 107.194319,3.19119572 C107.334929,3.33323991 107.459753,3.49752088 107.568797,3.68404356 C107.677841,3.87056623 107.769667,4.06712949 107.844276,4.27373922 C107.918885,4.48034896 107.975558,4.69054251 108.014297,4.90432619 C108.053037,5.11810988 108.072406,5.32112959 108.072406,5.51339142 C108.072406,5.8405235 108.027211,6.12460762 107.936819,6.36565231 C107.846427,6.606697 107.720168,6.81330363 107.558037,6.98547841 C107.395905,7.15765319 107.202212,7.29826048 106.97695,7.40730451 C106.751688,7.51634853 106.502755,7.60243463 106.230145,7.66556538 C105.957535,7.72869614 105.66556,7.77173918 105.35421,7.79469582 C105.042861,7.81765246 104.720755,7.8291306 104.387884,7.8291306 L104.241536,7.8291306 L104.241536,6.72721754 L104.344841,6.72721754 Z M106.169884,3.83900008 C106.155536,3.8361305 106.141189,3.83469574 106.126841,3.83469574 C106.069449,3.83469574 106.00345,3.85765203 105.928841,3.9035653 C105.854232,3.94947858 105.782493,4.01547792 105.713623,4.10156531 C105.644754,4.1876527 105.588798,4.28521694 105.545754,4.39426096 C105.50271,4.50043541 105.481189,4.6051735 105.481189,4.70847836 L105.481189,4.72569575 C105.481189,4.82900062 105.504145,4.91293457 105.550058,4.97750011 C105.595971,5.04206565 105.658384,5.09156516 105.737297,5.12600011 C105.816211,5.16043507 105.908036,5.18482613 106.012776,5.19917403 C106.117515,5.21352192 106.22871,5.2235653 106.346363,5.22930446 C106.423841,5.23217404 106.504188,5.23360881 106.587406,5.23360881 C106.62758,5.23360881 106.689993,5.23289142 106.774645,5.23145664 C106.859298,5.23002185 106.946101,5.22643492 107.035058,5.22069577 C107.009232,5.1173909 106.972645,4.98897914 106.925297,4.83545663 C106.877949,4.68193412 106.819124,4.53271821 106.748819,4.38780444 C106.678514,4.24289067 106.595298,4.11734845 106.499167,4.011174 C106.403036,3.90499955 106.293276,3.84760882 106.169884,3.83900008 Z M106.961884,1.32956525 L106.13545,2.15600005 L105.313319,1.32956525 L106.13545,0.507434794 L106.961884,1.32956525 Z M104.250145,7.8291306 C104.01197,7.8291306 103.796037,7.80904385 103.602341,7.76886973 C103.408644,7.72869562 103.232885,7.66484843 103.075058,7.57732625 C102.917231,7.48980407 102.776624,7.37789215 102.653232,7.24158711 C102.52984,7.10528208 102.420798,6.94100111 102.326102,6.74873928 C101.536967,7.4776125 100.356153,7.84204365 98.7836233,7.84204365 C97.8854448,7.83630449 97.1429523,7.72510995 96.5561232,7.50845668 C95.9692942,7.29180342 95.5367115,6.95821979 95.2583623,6.50769579 C95.13784,6.29247732 95.0546234,6.06865347 95.0087101,5.83621752 C94.9742752,5.66691232 94.957058,5.49760966 94.957058,5.32830446 C94.957058,5.26230413 94.9620797,5.15469651 94.9721232,5.00547837 C94.9821667,4.85626023 95.0230576,4.66902297 95.0947971,4.44376097 C95.1665366,4.21849897 95.2612313,4.00543587 95.3788841,3.8045653 L96.2096232,4.3253914 C96.1264054,4.46313122 96.0575365,4.60086898 96.0030145,4.7386088 C95.9484925,4.87634862 95.9140581,5.01408638 95.8997102,5.1518262 C95.893971,5.20347863 95.8911015,5.25513029 95.8911015,5.30678272 C95.8911015,5.39287011 95.9018622,5.49186912 95.9233841,5.60378273 C95.9449059,5.71569634 95.9987097,5.83908641 96.0847971,5.97395665 C96.1651454,6.10882689 96.2871007,6.22360836 96.4506667,6.31830448 C96.6142327,6.41300061 96.8129481,6.4904781 97.0468189,6.55073927 C97.2806896,6.61100044 97.5439696,6.65547826 97.8366667,6.68417406 C98.1293638,6.71286985 98.4450129,6.72721754 98.7836233,6.72721754 C99.0906683,6.72721754 99.3819263,6.71573939 99.6574059,6.69278275 C99.9328855,6.66982612 100.188992,6.63323953 100.425732,6.58302188 C100.662472,6.53280424 100.87697,6.46823967 101.069232,6.38932623 C101.261494,6.31041279 101.426492,6.21356593 101.564232,6.09878274 C101.690494,6.00121703 101.792362,5.88787034 101.869841,5.75873926 C101.947319,5.62960817 102.011884,5.49402257 102.063536,5.35197838 C102.115189,5.20993419 102.158232,5.0643052 102.192667,4.91508706 C102.227102,4.76586892 102.264406,4.62239209 102.30458,4.48465227 L103.29458,4.75152184 C103.240058,4.90360956 103.197015,5.05856454 103.165449,5.21639142 C103.136754,5.3598704 103.122406,5.49904292 103.122406,5.63391317 L103.122406,5.77380447 C103.122406,5.85271791 103.142493,5.95602123 103.182667,6.08371752 C103.222841,6.21141382 103.287406,6.32332574 103.376362,6.41945666 C103.465319,6.51558758 103.582253,6.59091291 103.727167,6.64543493 C103.872081,6.69995694 104.049275,6.72721754 104.258754,6.72721754 L104.41371,6.72721754 L104.41371,7.8291306 L104.250145,7.8291306 Z M99.0634059,3.45591312 L98.3316667,4.18765226 L97.5913189,3.45160877 L98.323058,2.71556528 L99.0634059,3.45591312 Z M100.690449,3.46021747 L99.9587102,4.19626096 L99.2183624,3.45591312 L99.9501016,2.72417397 L100.690449,3.46021747 Z M90.7431014,0.980913065 C90.8148408,1.52900277 90.8650577,2.05197582 90.8937535,2.54984788 C90.9224493,3.04771995 90.9396665,3.53482378 90.9454057,4.011174 C90.9511449,4.41578473 90.953297,4.79025925 90.9518622,5.13460881 C90.9504274,5.47895836 90.9468405,5.79962908 90.9411014,6.09663057 C90.9353622,6.39363206 90.9267536,6.67054234 90.9152753,6.92736972 C90.903797,7.18419709 90.8923188,7.42452078 90.8808405,7.64834799 L89.7531013,7.82052191 C89.8133625,6.87356063 89.8434926,6.03709072 89.8434926,5.31108707 C89.8434926,5.01838995 89.8391883,4.74434921 89.8305796,4.48895662 C89.807623,3.9006928 89.7817971,3.34758962 89.7531013,2.8296305 C89.7244055,2.31167137 89.6856668,1.81595893 89.6368839,1.34247829 L90.7431014,0.980913065 Z M88.2681013,4.96673924 C88.3254929,5.14752275 88.3850358,5.33619479 88.4467317,5.53276099 C88.5084277,5.72932719 88.5643837,5.9280426 88.6146013,6.12891318 C88.664819,6.32978375 88.7057098,6.52993393 88.7372752,6.72936971 C88.7688406,6.9288055 88.7846231,7.1232166 88.7846231,7.31260885 C88.7846231,7.57087102 88.7451669,7.82267286 88.6662535,8.06802191 C88.58734,8.31337097 88.4782977,8.55010774 88.339123,8.77823932 C88.1999484,9.0063709 88.0349501,9.2237383 87.844123,9.43034803 C87.653296,9.63695776 87.445972,9.83208625 87.2221448,10.0157393 C86.9983175,10.1993924 86.7615808,10.3701299 86.5119273,10.5279567 C86.2622739,10.6857836 86.0097547,10.8278257 85.7543621,10.9540872 L85.2636665,9.96839152 C85.4674066,9.86795623 85.6682742,9.75676169 85.8662752,9.63480456 C86.0642762,9.51284742 86.2529482,9.38300089 86.4322969,9.24526107 C86.6116456,9.10752125 86.7780788,8.96260965 86.9316013,8.81052193 C87.0851238,8.65843421 87.2171225,8.5006097 87.3276013,8.33704366 C87.4380801,8.17347762 87.5248836,8.00560973 87.5880143,7.83343495 C87.6511451,7.66126017 87.68271,7.48765321 87.68271,7.31260885 C87.68271,7.14904282 87.664058,6.97687062 87.6267535,6.7960871 C87.5894489,6.61530359 87.5442537,6.43667493 87.4911665,6.26019579 C87.4380793,6.08371664 87.3835581,5.9136966 87.3276013,5.75013056 C87.2716445,5.58656452 87.2250145,5.44165292 87.18771,5.31539142 L88.2681013,4.96673924 Z M88.4015361,3.13308702 L87.5751013,3.95952182 L86.7529708,3.13308702 L87.5751013,2.31095657 L88.4015361,3.13308702 Z" fill-rule="nonzero"></path>
                </g>
            </g>
        </g>
    </g>
</svg>