<?xml version="1.0" encoding="UTF-8"?>
<svg width="151px" height="28px" viewBox="0 0 151 28" version="1.1" xmlns="http://www.w3.org/2000/svg" xmlns:xlink="http://www.w3.org/1999/xlink">
    <title>Alibaba Travels Logo</title>
    <g stroke="none" stroke-width="1" fill="#221F20" fill-rule="evenodd">
        <path d="M88.4723634,27.7280726 C88.1711334,27.6701368 87.8699033,27.6480661 87.5659097,27.5928891 C85.9547437,27.3032101 84.713897,26.4479674 83.7742805,25.1264795 C83.6637373,24.971984 83.5504306,24.8257651 83.4315968,24.6795462 C83.4122517,24.6547165 83.3542166,24.6629931 83.2326191,24.6381634 L83.2326191,27.7280726 L80.0406863,27.7280726 L80.0406863,0.0016553085 L83.8157341,0.0016553085 C83.7963891,0.227880803 83.757699,0.454106298 83.757699,0.680331793 C83.7521718,6.54288272 83.7494083,12.4026748 83.757699,18.2652257 C83.7604626,19.6998264 83.9566766,21.1040798 84.6807341,22.3814262 C85.5733699,23.959487 86.9137053,24.8561124 88.7514848,24.8919774 C90.5892643,24.9223247 91.9710534,24.0974293 92.8913249,22.5193686 C93.8779224,20.8309539 94.0741364,18.965973 94.0575549,17.0678859 C94.0492642,15.7077741 93.9414847,14.35318 93.4219319,13.0647982 C92.2722834,10.2121499 88.6685774,9.07274588 86.0680504,10.7501252 C86.018306,10.7804725 85.965798,10.8025433 85.8331462,10.8715144 C85.8331462,9.9279886 85.7723475,9.03412201 85.8745999,8.15680851 C85.8994721,7.90851223 86.3554625,7.60503901 86.6760376,7.5057205 C89.3760535,6.65875432 91.9461812,6.90980944 94.2233696,8.69202492 C96.0473312,10.1155902 96.9482577,12.0992016 97.3213408,14.3338681 C97.8326028,17.4017065 97.5258456,20.3867795 96.1440565,23.2008039 C94.8120118,25.9155098 92.6370757,27.4521879 89.5777947,27.6646192 C89.4589608,27.6728957 89.2212931,27.6922076 89.1052228,27.7280726 L88.4723634,27.7280726 Z M46.5599364,27.7280726 C46.2504157,27.6728957 45.9408949,27.6563426 45.6313742,27.6011657 C44.1362783,27.3252809 42.7931793,26.4865913 41.9115979,25.2478687 C41.773419,25.0492317 41.6214222,24.8561124 41.472189,24.6657519 C41.4611346,24.6519577 41.4362624,24.6519577 41.3119014,24.6216104 L41.3119014,27.7280726 L38.1144414,27.7280726 C38.1116779,18.5107632 38.1116779,9.22172364 38.1116779,0.0016553085 L41.7817097,0.0016553085 C41.7872369,3.2019184 41.7982912,6.40494035 41.8010548,9.60796229 C41.8065819,12.579241 41.7844733,15.5532786 41.8093455,18.5245574 C41.8231634,19.9619169 42.0801762,21.3606526 42.8595052,22.6048928 C43.8101761,24.1250178 45.1864381,24.9278424 46.9938182,24.8919774 C48.8094891,24.8533536 50.1442974,23.9815577 51.0010066,22.403497 C52.1617094,20.2709079 52.2446168,17.953476 52.0235305,15.619491 C51.9323324,14.6952771 51.7278277,13.7489924 51.3768532,12.8937497 C50.2769491,10.2204264 46.7478597,9.14171706 44.2661665,10.6480478 C44.1639141,10.7087424 44.0616617,10.7694371 43.8626841,10.8880675 C43.8626841,9.93074745 43.8018854,9.05343394 43.9013742,8.19543237 C43.9317736,7.93885955 44.3767096,7.63538633 44.6917576,7.52227358 C46.5986265,6.84635595 48.5220769,6.86842673 50.4068373,7.60503901 C52.642572,8.47407597 54.0851599,10.1542141 54.8368531,12.3668098 C56.1357349,16.1740193 55.8538499,19.9232931 54.0298883,23.4987594 C52.7227158,26.0589699 50.5615977,27.4549467 47.6653677,27.6646192 C47.5465338,27.6728957 47.3392655,27.6922076 47.2259588,27.7280726 L46.5599364,27.7280726 Z M63.6703545,27.7280726 C63.0236772,27.6149599 62.5151788,27.4411525 61.9707539,27.1983739 C59.4835335,26.0865584 58.2841406,23.6035956 58.8230383,20.811642 C59.2458658,18.6211171 60.4922396,17.048574 62.6229584,16.4774926 C64.6928784,15.9257231 66.8457058,15.6994976 69.0289326,15.3160178 L69.0289326,18.0886595 C67.893102,18.2541903 66.7545078,18.4004093 65.6214407,18.5880109 C65.1295238,18.6707763 64.6376069,18.8004421 64.1705621,18.9742495 C62.5538689,19.5784371 61.9624632,20.5992107 62.1642044,22.3538377 C62.3383098,23.8353388 63.2613449,24.7981766 64.8559295,24.9581898 C67.0667921,25.1788976 69.0565684,24.6160927 70.6649709,23.0021669 C71.3890284,22.2738311 71.764875,21.3909999 71.7593479,20.3481556 C71.7510571,18.0031352 71.7565843,15.6581148 71.7565843,13.3130945 C71.7565843,11.4012132 71.0435811,10.3997515 69.1560572,10.0604133 C68.0644438,9.86177626 66.8954502,9.83970548 65.7955461,9.98316555 C64.0766005,10.209391 63.1204024,11.368107 62.8385175,13.0427274 C62.7583737,13.5338023 62.5732139,13.6579504 62.11446,13.6413973 C61.3185494,13.6082912 60.5226389,13.6331208 59.7377827,13.6331208 C59.4227348,11.4205251 60.7962332,8.85203808 62.9186612,7.95541264 C65.9088528,6.68910164 68.9708975,6.66703086 71.9583255,7.96644803 C74.0033734,8.85479692 74.8683734,10.5652824 74.8628462,12.7585661 C74.8545555,16.3174794 74.8600826,19.8763927 74.8600826,23.4353059 C74.8600826,24.6160927 75.3050187,25.0216432 76.4712487,24.9085305 C76.7614244,24.880942 77.0516001,24.8533536 77.4025746,24.8230062 L77.4025746,27.2121682 C76.2252902,27.6728957 75.0120794,27.7197961 73.7905779,27.341834 C72.878597,27.0631904 72.3092999,26.4314143 72.0826865,25.4989239 C72.0246514,25.261663 71.9776706,25.0244021 71.9085811,24.7126523 C71.6847313,24.9195659 71.5078623,25.0850967 71.3337568,25.2506276 C69.9851307,26.5555625 68.3988368,27.3859756 66.5306579,27.6563426 C66.4588049,27.667378 66.1299391,27.6922076 66.0608496,27.7280726 L63.6703545,27.7280726 Z M105.226556,27.7280726 C104.673841,27.6646192 104.212323,27.5211591 103.786732,27.3666636 C101.636668,26.5859098 100.254879,24.7457585 100.160917,22.5497159 C100.03932,19.7605211 101.164096,17.7438036 103.408122,16.6899238 C104.883873,15.9946942 106.483984,15.9284819 108.053697,15.7160506 C108.84408,15.6084556 109.6317,15.528449 110.460773,15.4291305 L110.460773,18.0886595 C109.313888,18.2541903 108.153186,18.3728208 107.011828,18.604564 C106.285007,18.7535417 105.549895,18.9935615 104.892163,19.3328997 C103.645789,19.9701935 103.410885,21.117874 103.590518,22.3924616 C103.767387,23.6173899 104.397483,24.555398 105.641093,24.8174885 C108.20293,25.3637403 110.460773,24.7154112 112.279208,22.7897356 C112.901013,22.1303711 113.174607,21.3082345 113.16908,20.3785029 C113.160789,18.0583122 113.196716,15.7353626 113.202243,13.412413 C113.210534,11.3846601 112.445022,10.3583688 110.438665,10.0190306 C109.385741,9.84246433 108.260965,9.83970548 107.199751,9.98316555 C105.668729,10.1955968 104.707004,11.1749877 104.336684,12.6951126 C104.267595,12.9765151 104.212323,13.2634352 104.14047,13.5889792 L101.155806,13.5889792 C100.860103,11.3350008 102.25571,8.80513767 104.477627,7.90299454 C107.456764,6.69461933 110.491173,6.66978971 113.453729,8.00783074 C115.360597,8.87135001 116.261524,10.4411342 116.264288,12.5213052 C116.269815,16.0995304 116.264288,19.6805145 116.264288,23.2587397 C116.267051,24.6767873 116.665006,25.0299198 118.09654,24.8919774 C118.342498,24.8671478 118.588457,24.8478359 118.903505,24.8174885 C118.903505,25.5706539 118.92285,26.2796777 118.886923,26.980425 C118.881396,27.1018143 118.674128,27.2645863 118.527658,27.3142455 C117.444335,27.6784134 116.338904,27.6866899 115.250054,27.3583871 C114.003681,26.980425 113.497946,26.0175872 113.36253,24.7016169 C113.182898,24.8561124 113.039192,24.9554309 112.920358,25.079579 C111.549623,26.4948678 109.899767,27.3721813 107.94039,27.6618603 C107.865773,27.6701368 107.163825,27.6922076 107.094735,27.7280726 L105.226556,27.7280726 Z M0,20.9818629 C0.105015972,20.6259715 0.204504787,20.2673214 0.323338649,19.9169477 C1.00317889,17.9112656 2.47340249,16.7139258 4.46594237,16.2725102 C6.36175701,15.8559242 8.31007964,15.6710814 10.2943288,15.3731259 L10.2943288,18.0878318 C9.16126173,18.2506038 8.00608604,18.4023405 6.85920109,18.5927009 C6.3893928,18.6727075 5.9195845,18.7996145 5.46912126,18.9679042 C3.83861012,19.5720918 3.19193282,20.6452835 3.41578265,22.3199039 C3.62857818,23.8814116 4.57372192,24.8304551 6.20976021,24.9739152 C8.23269946,25.1532403 10.0787697,24.6483712 11.6374278,23.2992948 C12.5328271,22.5268175 13.0302712,21.5474266 13.0302712,20.3307749 C13.0275076,18.0519668 13.0606706,15.7676411 13.0661977,13.4888331 C13.0689613,11.3755559 12.2564693,10.3161584 10.1754949,9.99061444 C9.17507962,9.83060128 8.11939275,9.83887783 7.11621386,9.96854366 C5.5520286,10.1726984 4.56543119,11.1410538 4.17853024,12.6804907 C4.1066772,12.964652 4.0569328,13.2515722 3.98507976,13.5826339 L1.01699678,13.5826339 C0.845654929,10.8568926 2.28824275,8.61946723 4.54884972,7.78905414 C7.30413718,6.77931595 10.0981147,6.73517439 12.8451115,7.79733068 C15.0615012,8.6525734 16.1061337,10.2830523 16.1088973,12.6529023 L16.1088973,23.3930956 C16.1088973,24.6042296 16.5621241,25.0180567 17.7587535,24.904944 C18.0489292,24.8801144 18.3418685,24.8552847 18.7232423,24.8249374 C18.7232423,25.5753439 18.7370602,26.298162 18.7094244,27.0182212 C18.7038973,27.1230574 18.5104468,27.2665175 18.377795,27.310659 C17.2502551,27.6775857 16.1144245,27.6968977 14.984121,27.3161767 C13.7902552,26.9189027 13.3536099,25.9615826 13.1988495,24.7311366 C13.0385619,24.8635613 12.9114373,24.9463267 12.8064214,25.0539218 C11.4108144,26.4692105 9.75266746,27.3796302 7.76841832,27.6637915 C7.69103813,27.6748269 7.09134166,27.6941388 7.01948863,27.727245 L5.16512765,27.727245 C5.01865801,27.727245 4.69255578,27.6637915 4.58201265,27.636203 C2.2053354,27.0844335 0.61351436,25.7325982 0.0911980806,23.277224 C0.0773801896,23.2192882 0.0303993602,23.1696289 0,23.1172108 L0,20.9818629 Z M144.480697,27.7280726 L141.059388,27.7280726 L141.059388,6.85463249 L144.259611,6.85463249 L144.259611,9.96937131 C144.303828,9.98868324 144.342518,10.010754 144.386736,10.0273071 C144.54426,9.79280507 144.69902,9.55278534 144.862071,9.3182833 C146.144371,7.47537318 147.761065,6.21457987 150.137742,6.20630333 C150.759547,6.20354448 151.044196,6.36079879 150.994451,7.05326951 C150.933652,7.95817149 150.980633,8.8768677 150.980633,9.89488243 C150.588205,9.89488243 150.22894,9.89212358 149.869675,9.89488243 C146.702614,9.91143551 144.494515,12.1157547 144.483461,15.2884293 C144.472407,18.9880438 144.480697,22.6848994 144.480697,26.3845139 L144.480697,27.7280726 Z M132.460238,27.7126231 L132.460238,6.82814755 L136.251867,6.82814755 L136.251867,27.7126231 L132.460238,27.7126231 Z M122.309615,27.7346939 L122.309615,23.7950597 L126.175861,23.7950597 L126.175861,27.7346939 L122.309615,27.7346939 Z M22.0110713,27.7043466 L22.0110713,0 L25.2610392,0 L25.2610392,27.7043466 L22.0110713,27.7043466 Z M30.182972,27.7153819 L30.182972,7.03230227 L34.0022371,7.03230227 L34.0022371,27.7153819 L30.182972,27.7153819 Z" ></path>
    </g>
</svg>