<svg xmlns="http://www.w3.org/2000/svg" viewBox="1 0 148 44"><defs/><defs><linearGradient id="a" x1="50%" x2="50%" y1="21.956%" y2="100%"><stop offset="0%" stop-color="#FFF" stop-opacity=".1"/><stop offset="100%" stop-color="#FFF" stop-opacity="0"/></linearGradient></defs><g fill="none" fill-rule="evenodd"><path fill="#000" d="M148.999 44.148H0V0h149l-.001 4.431.001 35.292-.001 4.425z"/><path fill="url(#a)" d="M0 0h113.681L70.432 44.148H0z"/><rect width="27.593" height="27.593" x="13.796" y="8.278" stroke="#FFF" stroke-width="1.104" rx="6.385"/><path fill="#FFF" fill-rule="nonzero" d="M31.479 14.9a5.68 5.68 0 001.339-4.113 5.835 5.835 0 00-3.803 1.949 5.464 5.464 0 00-1.339 3.958A4.783 4.783 0 0031.48 14.9z"/><path fill="#FFF" fill-rule="nonzero" d="M29.745 19.91c1.911-2 4.528-3.176 7.293-3.276h4.903v13.403a6.385 6.385 0 01-6.385 6.385H19.629a6.385 6.385 0 01-6.385-6.385V16.634h4.867a10.653 10.653 0 017.282 3.24s2.164 1.937 2.2 1.937c.035 0 2.152-1.901 2.152-1.901zm-2.164 9.828l-.024-.024a7.628 7.628 0 007.628-7.64 1.124 1.124 0 00-2.236 0 5.393 5.393 0 11-10.76 0 1.124 1.124 0 10-2.249 0 7.629 7.629 0 007.64 7.664z"/><g fill="#FFF" fill-rule="nonzero"><path d="M94.588 25.462h-5.11a1.512 1.512 0 01-1.523-1.512v-1.876h-2.97v4.007a1.523 1.523 0 11-3.034 0v-4.007h-2.925v3.973a1.523 1.523 0 01-3.046 0v-3.972h-2.925v5.716a4.702 4.702 0 01-5.166 4.669 4.834 4.834 0 01-4.227-4.878V25.02a2.914 2.914 0 00-2.958-2.87v5.42a7.814 7.814 0 006.623 7.825 7.649 7.649 0 008.266-5.287 4.26 4.26 0 001.877.43 4.415 4.415 0 002.969-1.158 4.415 4.415 0 007.052-1.424c.605.31 1.274.473 1.954.474h8.035a2.927 2.927 0 00-2.892-2.969zM127.081 35.396a2.925 2.925 0 002.925-2.914v-5.474h-2.925v8.388zM100.03 35.33a2.925 2.925 0 002.924-2.914v-10.33h-2.925V35.33zM119.741 24.977h2.208a2.925 2.925 0 002.936-2.903h-5.177a3.852 3.852 0 00-2.715 1.181 4.006 4.006 0 00-1.17 2.781 3.819 3.819 0 001.17 2.738 3.907 3.907 0 002.77 1.158h1.37a5.276 5.276 0 01-4.416 2.44 5.187 5.187 0 01-5.253-5.1v-5.187h-3.002v5.243a8.178 8.178 0 0016.323.585v-.795h-5.066c-.272 0-.534-.107-.728-.298a1.192 1.192 0 010-1.578.916.916 0 01.75-.265zM95.063 30.595h-4.735a2.373 2.373 0 002.384 2.373h2.395v2.428a2.373 2.373 0 002.373-2.34v-2.461h-2.417zM129.719 22.085a2.903 2.903 0 00-2.903 2.903h5.839a2.903 2.903 0 002.903-2.837h-5.839v-.066zM131.627 12.78c.11.07.24.14.395.212a5.051 5.051 0 00.967.337 1.877 1.877 0 00.603.052 2.73 2.73 0 00.229-.02c.08-.01.161-.026.242-.047a.848.848 0 00.218-.09.498.498 0 00.157-.148.402.402 0 00.065-.218v-.013a.977.977 0 00-.097-.39 2.756 2.756 0 00-.266-.458 4.915 4.915 0 00-.388-.482 8.196 8.196 0 00-.458-.464 7.175 7.175 0 00-.477-.41 5.21 5.21 0 00-.447-.318l.643-.954c.265.18.526.385.784.613.258.227.495.47.713.728.217.257.406.526.565.805.16.28.275.561.344.846.037.165.056.322.056.471 0 .144-.027.317-.08.518-.053.202-.174.4-.36.594a1.832 1.832 0 01-.713.447 2.391 2.391 0 01-.968.13c-.19 0-.383-.018-.578-.054a4.185 4.185 0 01-.577-.15 5.045 5.045 0 01-1.03-.478l.458-1.059zm-1.53-1.174l.18.568c.062.197.118.396.169.598.05.201.091.402.123.602.031.2.047.395.047.585 0 .26-.04.512-.119.758-.079.247-.188.484-.328.713a4.15 4.15 0 01-.497.654 6.21 6.21 0 01-.624.588 7.12 7.12 0 01-.712.514c-.25.158-.504.3-.76.427l-.493-.989a7.347 7.347 0 001.173-.725c.18-.139.347-.284.5-.437.155-.152.287-.31.398-.475.111-.164.198-.332.261-.505.064-.173.096-.347.096-.523 0-.164-.02-.336-.057-.518a6.251 6.251 0 00-.136-.538 14.373 14.373 0 00-.164-.511c-.056-.164-.103-.31-.14-.436l1.084-.35zm-6.754 1.766h.92c.135 0 .282-.008.438-.024.157-.015.303-.049.437-.099a.854.854 0 00.332-.218.538.538 0 00.132-.38c0-.075-.016-.18-.048-.315a7.135 7.135 0 00-.531-1.451l.998-.493c.072.164.144.338.216.523.072.184.136.373.192.568.056.194.102.389.136.585.035.196.052.387.052.574 0 .334-.062.618-.186.851a1.556 1.556 0 01-.507.568 2.214 2.214 0 01-.752.317c-.286.067-.592.1-.918.1h-.91v-1.106zm1.607 2.384l-.734.734-.743-.738.734-.739.743.743zm1.632.004l-.734.739-.743-.743.734-.734.743.738zm-3.066-1.282h-.173c-.584 0-1.028-.147-1.33-.44-.302-.294-.455-.738-.458-1.331 0-.092.003-.244.009-.456a42.587 42.587 0 00-.032-2.652c-.01-.217-.023-.427-.037-.63a13.504 13.504 0 00-.052-.57 6.32 6.32 0 00-.07-.469l1.085-.324c.032.167.06.371.086.612a22.954 22.954 0 01.13 2.407c0 .153.001.315.004.486a27.253 27.253 0 01-.006 1.302c-.002.087-.003.175-.003.264v.069c0 .104.011.196.033.276a.429.429 0 00.324.316c.085.023.183.034.296.034h.194v1.106zm-6.837-1.106c.303 0 .593-.01.873-.028.279-.019.534-.045.764-.08a4.54 4.54 0 00.596-.125 1.26 1.26 0 00.376-.164h-.44c-.254 0-.495-.033-.724-.097a1.818 1.818 0 01-.603-.292 1.433 1.433 0 01-.412-.486 1.44 1.44 0 01-.153-.68 2.44 2.44 0 01.19-.942c.063-.152.14-.296.229-.431.089-.136.191-.255.306-.357.115-.102.242-.183.38-.242s.288-.088.45-.088c.198 0 .384.042.557.125.172.084.33.197.47.34.141.142.267.307.376.494.11.187.202.384.276.591.075.208.132.419.171.633.039.215.058.418.058.611 0 .328-.045.613-.136.855a1.834 1.834 0 01-.963 1.045c-.226.11-.476.196-.75.26a5.78 5.78 0 01-.878.13 13.19 13.19 0 01-.97.034h-.146v-1.106h.103zm1.831-2.898a.22.22 0 00-.043-.004.392.392 0 00-.198.069.858.858 0 00-.216.199c-.07.086-.126.184-.169.293a.835.835 0 00-.065.316v.017c0 .103.023.188.07.252a.441.441 0 00.187.15c.08.034.172.059.277.073a3.853 3.853 0 00.576.034c.04 0 .103 0 .188-.002a5.51 5.51 0 00.262-.01 7.657 7.657 0 00-.11-.387 3.164 3.164 0 00-.178-.45 1.597 1.597 0 00-.25-.377.484.484 0 00-.33-.173zm.795-2.518l-.83.83-.824-.83.825-.825.83.825zm-2.72 6.522a3.21 3.21 0 01-.65-.06 1.864 1.864 0 01-.53-.193c-.158-.088-.3-.2-.423-.337a2.14 2.14 0 01-.328-.494c-.792.731-1.977 1.097-3.555 1.097-.9-.006-1.646-.118-2.235-.335-.589-.217-1.023-.552-1.302-1.004a2.275 2.275 0 01-.25-.674 2.551 2.551 0 01-.052-.51c0-.066.005-.174.015-.323.01-.15.051-.338.123-.564.072-.226.167-.44.285-.641l.834.522a2.785 2.785 0 00-.208.415 1.564 1.564 0 00-.112.57c0 .086.01.186.032.298.022.112.076.236.162.371.081.136.203.25.367.346.165.095.364.173.599.233.234.06.498.105.792.134a10.573 10.573 0 001.827.009c.276-.023.533-.06.77-.11a3.75 3.75 0 00.647-.195 1.89 1.89 0 00.496-.291c.127-.098.23-.212.307-.342.078-.13.142-.265.194-.408.052-.142.095-.288.13-.438.034-.15.072-.294.112-.432l.993.268a3.296 3.296 0 00-.13.466 2.134 2.134 0 00-.042.42v.14c0 .079.02.182.06.31.04.129.105.24.194.337.09.097.207.172.352.227.146.055.324.082.534.082h.155v1.106h-.164zm-5.205-4.388l-.734.734-.743-.739.734-.738.743.743zm1.633.004l-.735.739-.743-.743.735-.734.743.738zm-9.981-2.488c.072.55.122 1.075.15 1.575.03.5.047.988.053 1.466a61.728 61.728 0 01-.005 2.092c-.005.298-.014.576-.026.834-.011.258-.023.499-.034.723l-1.132.173c.06-.95.091-1.79.091-2.518 0-.293-.004-.568-.013-.825-.023-.59-.049-1.145-.078-1.665a31.67 31.67 0 00-.116-1.492l1.11-.363zm-2.484 4l.18.568c.062.197.118.396.168.598.05.201.091.402.123.602.032.2.048.395.048.585 0 .26-.04.512-.12.758-.078.247-.188.484-.327.713a4.15 4.15 0 01-.497.654 6.21 6.21 0 01-.624.588 7.12 7.12 0 01-.713.514c-.25.158-.504.3-.76.427l-.492-.989a7.347 7.347 0 001.172-.725c.18-.139.347-.284.501-.437.154-.152.287-.31.398-.475.11-.164.198-.332.261-.505s.095-.347.095-.523c0-.164-.019-.336-.056-.518a6.251 6.251 0 00-.136-.538 14.372 14.372 0 00-.164-.511c-.056-.164-.103-.31-.14-.436l1.083-.35zm.134-1.84l-.829.83-.825-.83.825-.825.83.825z"/></g></g></svg>
