<svg id="Layer_1" data-name="Layer 1" xmlns="http://www.w3.org/2000/svg" viewBox="0 0 800 800"><defs><style>.cls-1{fill:#fff;}.cls-2{fill:#084981;}</style></defs><title>CAO</title><rect class="cls-1" x="362.48" y="298.98" width="414.27" height="408.6"/><path class="cls-2" d="M412.18,25.18l-.34,11.12-7.94.8c-4.32.34-14.87,1.25-23.26,2S360.21,41.52,354,42.66s-12.82,2.49-14.75,2.83c-3.29.57-7.26,1.59-17.59,4.43-2.83.79-8.17,2.27-11.91,3.4-9.53,2.61-20.2,6.36-21.56,7.61a6.47,6.47,0,0,1-3.4.9,8.62,8.62,0,0,0-4.43,1.71,8.88,8.88,0,0,1-3.74,1.7c-1.25,0-9.31,3.63-26.44,11.69-13.73,6.58-46.41,27.11-58.44,36.76-3.74,3.06-8.62,6.81-10.78,8.28-10.1,7.15-42.89,40.4-56.84,57.53-10.67,13.16-38.24,55.14-38.47,58.44,0,.45-3,6.8-6.58,14.18-8.85,18-15.66,35.29-14.3,36.65.57.57,4.77-1.25,10.44-4.65,5.22-3.07,9.76-5.56,10.21-5.56s4.43-1.48,9.2-3.29c18.26-6.93,34.15-9.76,54-9.65A160,160,0,0,1,173,267.55c19.06,3.52,41.08,12.25,55.6,22,8.4,5.56,10.67,5.9,16,2.27,4.2-2.83,10.44-6.58,17.47-10.44,5.11-2.83,20.54-8.62,30.07-11.23,37.33-10.21,79-4.08,114,16.68a70.63,70.63,0,0,1,6,4.42c4.54,3.86,9.42,4.09,14.18.57,10.44-7.37,27.35-15.32,45.05-21,8.85-2.84,25.19-5.11,38-5.22,29.16-.23,55.37,6.92,79.77,21.9l11.69,7.26,4.76-2.15a64.37,64.37,0,0,0,8.74-4.77c11.69-7.94,35.63-17,52.65-20.2,15.88-2.83,35.4-3.29,46.86-1.13,25.42,5,36.76,9.19,60.82,23,.45.23,1.13-.22,1.47-1.13.57-1.7-4.31-14.64-11.68-30.3-2.27-4.65-5.34-11.34-6.93-14.75a99.9,99.9,0,0,0-4.76-9.08c-1-1.58-3.63-5.9-5.68-9.64-3.29-6-9.64-15.77-19.28-29.84-16.23-23.72-46.53-55.49-73.08-76.37-7.37-5.9-27.68-20.42-32.22-23.14-1-.68-5-3-8.74-5.34-8.17-4.87-32.22-17.24-42.55-21.67-4.08-1.81-8.85-4-10.55-4.88a14.93,14.93,0,0,0-5.22-1.59,5.72,5.72,0,0,1-3-.9c-1.36-1.25-8.85-3.86-19.86-7-4.65-1.36-10.55-3.18-13-4.08a28.22,28.22,0,0,0-6.92-1.59,5.45,5.45,0,0,1-3.29-1c-.68-.57-3.4-1.25-6.24-1.59S493,44,486.73,42.77c-10.21-2-18.38-3-49.93-5.67l-9.08-.8-.34-11.12-.34-11H412.52Zm51.29,109.5,2,2.61,2.95-2.72,3.06-2.84,3,3.06c2.95,3,2.95,3.07.91,5.34-1.93,2-2.27,2.15-4.65.56-3.41-2.15-4.88-2.15-7.49.23-2,1.82-2.27,1.7-5.11-1.13s-2.95-3.07-.9-5.34C459.84,131.5,461,131.62,463.47,134.68Zm-183.82,1.48c2.16,2.38,2.5,3.4,1.59,4.87-1.93,2.95-4.88,2.95-7.94.12l-2.73-2.61,2.5-2.61C276.13,132.64,276.36,132.64,279.65,136.16Zm30,4.08c.34,1.93.68,11.35.68,20.88,0,19.17.34,20.31,7,19.63,3.18-.23,3.86-.91,4.31-3.63.68-3.75,3.41-5.45,3.41-2.05,0,3.07,3.85,6.13,7,5.68,1.82-.23,2.95-1.48,3.75-4.09,1.36-4.65,2.38-4.65,4.42.34,2.5,6,8.74,5.34,9.87-1,.68-3.52,2.61-3.17,4.43.8,1.47,3.17,2.38,3.63,6.58,4,6.24.45,8.17-1.14,8.17-6.58,0-10.44,11.35-15.32,18.15-7.95,7.27,7.83,9,21.9,3.41,27.8-4,4.32-8.17,3.75-14.19-1.81l-5.1-4.65-2.95,3.51c-3.29,4-9.31,4.88-11.8,1.82-1.93-2.27-3.41-2.16-6.36.68L347.84,196l-4.53-2.61c-4.32-2.38-4.77-2.38-6.7-.68-2.72,2.5-4.88,2.38-9.08,0-3.29-1.93-3.51-1.93-5.67,0-1.36,1.25-4,1.93-7.83,1.93-5,0-6.24-.45-8.62-3.4-4-4.66-5.11-11.46-5.45-31.66l-.23-17.59,3.86-2.61C308.47,136,308.7,136,309.61,140.24Zm231.81,1.25,2.61,2.38,2.84-2.61,3-2.72,3.06,3.06,3,3.07-2.27,2.26c-2.27,2.27-2.38,2.39-5.9.34-3.29-1.92-3.52-1.92-5.9.23s-2.38,2.16-5.33-.91-2.95-3.06-.91-5.33C538.13,138.42,538.24,138.42,541.42,141.49ZM284.53,153.63a29.73,29.73,0,0,1,5.33,8.62c1.93,6,.8,16.46-2.49,22.36-3.75,6.8-8.63,9.19-19.63,10l-9.08.57-.68,5.1A36.89,36.89,0,0,1,250,218.42c-3.52,4.31-4,4.54-10,4.54-10.21,0-19.4-3.41-14.07-5.22,13.16-4.43,28.71-15.55,28.71-20.43,0-2-4.31-9.53-5.45-9.53a15.32,15.32,0,0,1-3.52-2.38l-2.83-2.27,2.72-5.11c1.59-2.72,3.18-5,3.74-5s2.61,1.82,4.66,4c3.74,4,3.85,4,13.61,4,6.58,0,11-.56,13.16-1.7,5-2.61,4.09-3.63-2.49-3.17-8.17.56-13.39-2.5-13.39-7.83,0-10.22,5.56-19.07,11.91-19.07C279.65,149.2,281.47,150.23,284.53,153.63Zm185.4-2.95c3.07,1.7,6.25,5.9,8.4,11,2.16,5.33,2.16,26.32,0,31.77-4.76,11.91-11.69,16.11-27.46,16.79-13.61.57-19.63-1.59-24.39-8.74-2.73-4.2-3-5.33-2.5-12.82.57-7.94,3.4-16.34,5.33-15.2.46.34.68,3.29.34,6.58-.34,5,0,6.69,2.27,10,3.75,5.56,9.08,7.15,22.58,6.47,12.14-.45,18.61-3.18,19.86-8.17,1-4-.23-5.11-5.22-5.11-5.56,0-13.28-3.06-14.75-5.78s-1.36-5.79.57-12c2.38-7.15,4.88-11.8,7.83-14.18S466.64,148.86,469.93,150.68Zm124.93,12.25c7.83,2.5,16.68,4.88,19.74,5.22s5.91,1.25,6.13,2-.57,3.29-1.81,5.56c-2,3.4-3.18,4.08-6.24,4.08-2.39,0-9.31,2.72-18.27,7L579.88,194l-13.39.46c-12,.34-13.72.11-17.47-2-4-2.38-4.2-2.38-6.35-.45-1.59,1.48-4.66,2.16-10.9,2.38-9.75.57-11.57,1.48-11.57,5.79,0,3.86-4.77,14-9.3,19.63l-3.63,4.54-8.51-.68c-7.95-.8-11.47-2-11.47-4.09,0-.45,4.32-2.83,9.54-5.44,10-5,18.83-12.48,18.83-16,0-1.82-1.13-2.27-7.37-3-5.45-.57-8.29-1.48-10.78-3.63-3.86-3.18-4.2-6.13-1.82-14.07,3.18-10.33,7.38-15.77,12.26-15.77,3.51,0,9.87,7,12,13l2,5.68,6.46.34c6.92.34,7.15.22,5.22-3.07-2.15-3.29-.11-8.17,5.34-13.38,6.69-6.47,11.12-6.7,16.22-.91,4,4.54,4.65,9.87,1.7,14-1.58,2.27-1.58,2.61.12,3.18,3.63,1.48,28.14-.34,32.79-2.38,2.5-1,4-2.27,3.4-2.84-1.36-1.36-16-6.81-18.27-6.81-1,0-3.06,1.14-4.53,2.5-1.93,1.7-3,2.16-3.86,1.25-2.72-2.73,6.69-14,11.69-14C579.66,158.28,587,160.32,594.86,162.93Z"/><path class="cls-2" d="M377.69,170.08c-2.05,5.45,4.87,17.82,9,16.23,4.65-1.7-.34-16.8-5.79-17.59C379.39,168.49,378,169.06,377.69,170.08Zm5.67,5.9c1,2.5-.34,3.63-1.59,1.59s-1.36-3.4-.11-3.4C382.22,174.17,383,175,383.36,176Z"/><path class="cls-2" d="M270.57,161.12c-2.15,2.61-.22,4,5.79,4s6.92-1.14,3.06-3.86C276.25,159,272.39,159,270.57,161.12Z"/><path class="cls-2" d="M460.52,164.07c-2,2.27-2,2.38.11,4,2.38,1.7,10.33,2.16,11.23.57.8-1.14-3.63-5.34-6.8-6.24C463.47,161.91,462,162.37,460.52,164.07Z"/><path class="cls-2" d="M539.72,170.88c-3.18,1.24-2.84,3,1.13,5.9,2.27,1.7,4,2,7.15,1.47,5.22-1,6.35-3.74,2.72-6.47C547.77,169.51,543.8,169.17,539.72,170.88Z"/><path class="cls-2" d="M501.71,175c-1.48,1.36-.8,4.65,1,5.33,2.38.91,9,.91,9.87-.11,1.47-1.36-4.09-6-7.15-6C503.75,174.17,502.05,174.51,501.71,175Z"/><path d="M362.48,348.34V397.7l49.7-.23,49.58-.34.35-49.13.22-49H362.48Zm85.1-.57V383l-35.4-.23-35.52-.34-.34-34.95-.22-34.83h71.48Z"/><path d="M390.85,347.77v21.56l21.33-.23,21.22-.34.34-21.33.23-21.22H390.85Z"/><path d="M505.45,312.6v13.73l7-.34,7-.34-.23-13-.11-13.05-6.92-.34-6.81-.34Z"/><path d="M533.82,305.79v6.92l7.14-.34,7-.34.34-6.58.34-6.47H533.82Z"/><path d="M591.34,299.77c-.45.35-.79,3.41-.79,6.81v6h-13.5l-.34,6.46-.34,6.59-7,.34-7.15.34v6.58c0,7.26-.68,8-7.15,8-5.33,0-6.24-1.13-6.69-7.94l-.34-6.24-7-.34-7.14-.34v28.37l7.14.34,7,.34.11,6.46.12,6.47-14.3.34-14.3.34-.34,7-.34,7,7.15.34,7.15.34.34,6.47.34,6.58H520.31L520,390l-.34-6.47-7-.34-7.15-.34V354.69l7.15-.34,7-.34.34-5.56c.23-3.06-.11-6-.68-6.58-1.13-1.13-40.51-1.93-42.32-.91-.68.46-1,3.52-.79,6.92l.34,6.13,6.8.57,6.81.57.34,6.46.34,6.47-7.15.34-7.14.34v28.37l7.14.34,7.15.34-.34,6.47-.34,6.47-21.22.34-21.33.22v13.62H434V411.31H362.48v13.62h8.28a131,131,0,0,1,14.19.79l6,.68-.34,6.36-.34,6.35-7,.34-7.15.34V453.3H362.48v14.63l6.58.34,6.47.34.34,6.47.34,6.58h28.14l.34,7,.34,7.15,7.15.34,7.15.34L419,503l-.34,6.47-13.85.34-13.84.34-.34,7-.34,7H376.66l-.34-7.15-.34-7h-13.5v85.1H376.1l.22-28,.34-28.14,13.85-.34,13.84-.34.34,7.15.34,7.15,14.52.34,14.42.34v27.12H419.21V566.76H390.85v28.37h85l.35,13.84.34,14,6.8.57,6.81.56.57,6.81.57,6.81,6.8-.11,6.81-.23.57-6.58.57-6.7,6.58-.34,6.47-.34V652l-13.85-.34-14-.34-.34-7.15-.34-7.15-7,.34-7,.34v69.21l7,.35,7,.34.34-6.59.34-6.58,7-.34,7-.34.34-13.84.34-13.84,21.33-.34,21.22-.23V651.86h13.61v28.37h14.75v13.62H548.57V680.23h-29.5v13.62h29.5v13.61l21.33-.22,21.22-.35.34-13.38.34-13.28h41.87v13.62h28.25l.34,6.46.34,6.58,7.15.35,7,.34V693.85h14.76v13.61l21.33-.22,21.22-.35.34-20.76.22-20.76,6.58.34,6.47.34.34,13.84.34,14h14.53l.34-14,.34-13.84,6.58-.34,6.47-.34V623.5H748.27v6.8c0,6.25.23,6.81,2.72,7.49a7.15,7.15,0,0,0,3.86,0,10.31,10.31,0,0,1,4.65,0c3.63.8,3.63.8,3.29,7.15l-.34,6.36-13.84.34-14,.34v13.5H719.9V638.25h5.56c8.74,0,9.19-.46,9.19-8.06v-6.58l-7-.34-7.15-.34-.34-6.47-.34-6.47,7.15-.34,7.15-.34.34-21.33.22-21.22h13.62v-13.5l7.15-.34,7-.34.34-7,.34-7-7.14-.34-7.15-.34-.34-6.47-.34-6.47-13.85-.34-13.84-.34V510.6l7.15-.34,7-.34V496.41h28.26l.34-14,.34-13.85,6.24-.56,6.24-.57V453.86l-14-.34-14-.34.34-6.47.34-6.46,7.15-.34,7-.34V411.31H748.27v13.62H734.65V411.31H719.9v13.62H705l.34,7,.34,7.15,7.15.34,7,.34v28.37l7.15-.34,7-.34.56-6.81.57-6.81,6.58-.34,6.47-.34v28.48H705.15v14.75H691.54v28.37h13.61V538.4H691.54v14.75h13.61v13.61H719.9v13.62H706.4l-.34-6.58-.34-6.47-14.18-.57-14.19-.56L677,560c-.23-3.4-1-6.58-1.7-7s-3.74-.91-6.69-.91h-5.45l-.23-20.76-.34-20.65-7-.34-7-.34-.34,13.95-.34,14-7.15.34-7.15.34.34,7,.34,7,14,.34,13.84.34v27.12H605.3V566.76h14.75v-13.5l-5-.68c-8.62-1.36-9.19-.91-9.53,7.15l-.34,7H591.68V553.15H605.3V538.4h14.75V524.78H605.3v13.5l-7,.34-7.15.34-.34,6.36-.34,6.35-13.73.68c-7.61.46-17,.8-21,.8h-7.15V538.4h28.36V524.89l7.15-.34,7-.34.34-7.15.34-7h28.25v-13.5l-7-.34-7.15-.34V482.23l7.15-.34,7-.34v-13.5H548.57V453.3h13.61V439.68h14.75V453.3h14.75V439.68H576.93V411.31H548.57v13.62H533.82V397.81l7.14-.34,7-.34.34-14,.34-13.84h28.25V383H562.07l.34,7,.34,7.15h13.62l.34-7.15.34-7h13.5v28.36H605.3v6.58c0,3.64.23,6.93.45,7.15s3.64.23,7.38.12l6.92-.46V411.31H605.19l.34-13.95.34-13.85,7.15-.34,7-.34V397.7h13.62V383H620.05V369.33H648.3l.35-7.15.34-7,7.14-.34,7-.34V341h-3.86a52.29,52.29,0,0,1-7.37-.68c-3.41-.68-3.52-.79-3.52-7.37v-6.7H633.67v6.7c0,5-.46,6.81-1.82,7.37-2.38.91-20.54.91-31.43,0l-8.74-.79V312.6H605.3v13.61h14.75V312.6h28.37V299H620.28C604.73,299,591.68,299.32,591.34,299.77Zm-.79,61.62v6.81H576.93v-6c0-3.4.34-6.47.8-6.81s3.4-.79,6.81-.79h6Zm-85.1,28.36v6.81H490.7v-6c0-3.41.34-6.47.79-6.81s3.75-.79,7.38-.79h6.58Zm13.62,28.37v6.81H505.45V453.3h13.28l.79-13.28c.45-7.38.91-13.39,1-13.5A40.26,40.26,0,0,1,527,426l6.24-.34.34,7,.34,7h14.64V424.93h5c8.06,0,8.62.45,8.62,8.06v6.69H548.57V453.3H533.82v28.25l7.14.34,7,.34.34,7,.34,7.15h13.39l.34-7.15.34-7,14-.34,13.84-.34v14.86H576.93V510H562.3l-.34,7-.34,7.15H534.38V510.6l7.15-.34,7-.34V496.41H519.18l-.34,13.85-.34,14-6.47.34-6.58.34v13.39l14,.34,13.84.34.34,7,.34,7.15h14.64v13.61h13.61v13.62H548.57V566.76H520.2v-6.12c0-7.15-1.47-8.85-7.6-8.63-7.26.34-7.15.57-7.15-6.81v-6.8H490.81l-.34,13.84-.34,14-6.47.34-6.58.34V553.15H434V538.51l-7-.34-7.15-.34-.34-6.47-.34-6.47,7.15-.34,7.15-.34.34-14,.34-13.85H419.21V481.66H405.6V467.93l6.58.34,6.47.34.34,6.47.34,6.58H434V468.05h13.5l.34-7.15.34-7h13.61v13.62l-7,.34-7.15.34v13.5l21.33.23,21.22.34.34,7,.34,7.15h14.64V481.78l7.15-.34,7-.34V468.61l-14.18-.56-14.18-.57-.34-7.15-.34-7H477.08V439.79l-14.41-.34-14.52-.34-.34-7.15-.34-7.14,28.71.22,28.7.23.34-5.56c.46-8.28.57-8.4,7.6-8.4h6.25Zm-85.1,21V453.3H405.6V426.18l6-.46c3.18-.22,9.65-.45,14.19-.56l8.17-.23Zm300.68-8.62c0,8.74-.45,9.19-8,9.19h-6.7V424.93h14.75ZM734,540.21c.34,1,.68,7.38.68,14.19v12.36H719.9V553.37c0-7.37.34-13.84.8-14.18s3.4-.79,6.69-.79C731.7,538.4,733.41,538.85,734,540.21ZM462.11,573.8l.34,6.58H447.58v-6c0-3.41.34-6.47.8-6.93s3.63-.68,7.14-.45l6.24.34Zm128.67,0,.34,7.15,7.15.34,7,.34v27.12H576.93V623.5h13.51l.34,7,.34,7.15,7.15.34,7,.34v13.5h14.75V637.11H605.19l.34-6.58.34-6.47,7.15-.34,7-.34v-13.5h13.62V623.5H620.05v13.61h4.88c2.61,0,9,.34,14.18.8l9.31.68-.23,20.54-.34,20.53-7,.34-7.15.34V651.86H620.16l-.34,6.47-.34,6.58-7,.34-7.15.34V651.86H590.55v13.62h-13.5l-.34-14-.34-13.84-13.85-.34L548.57,637v15l-7-.34-7.15-.34-.34-6.47-.34-6.36,7.49-.79,7.38-.79V623.5H520.2V609.88l20.76-.23,20.66-.34.56-6.8.57-6.81,7.15-.34,7-.34V581.63c0-7.38.34-13.73.8-14.07s3.4-.8,6.69-.8h6Zm-85.33,14.52v6.81h13.62v13.62H490.7V581.51h14.75Zm43.12-1.47c0,7.71-.8,8.51-8.06,8l-6.13-.34L534,588l-.34-6.47h14.87Zm99.62,15.31.34,6.59H633.67v-6c0-3.4.34-6.47.79-6.92s3.63-.68,7.15-.45l6.24.34Zm57,14v21h-42v-42h42Zm0,42.55v6.81H691.54v14.75h13.61v13.62H691.54V680.23H676.78v13.62H663.17V680.23h13.61V665.48H663.17V651.86h42Z"/><path d="M434,489v7.37h13.61V510h14.75v-13.5l-7-.34-7.15-.34-.34-7.15-.34-7H434Z"/><path d="M476.4,511.62c-.34.79-.45,4-.22,7l.34,5.56,7.14.34,7,.34V510h-6.81C479.13,510,476.86,510.48,476.4,511.62Z"/><path d="M447.58,531.59v6.81h14.75V524.78H447.58Z"/><path d="M677.58,609.43c-.45.45-.8,3.85-.8,7.49v6.58h14.87l-.34-7.15-.34-7-6.24-.34C681.21,608.75,678,609,677.58,609.43Z"/><path d="M677,348l.34,49.13h98.72V299.55l-49.7-.34L676.78,299Zm85.78-.57-.34,34.95-35.4.34-35.51.23V312.6H763Z"/><path d="M705.61,327.69c-.23.79-.34,10.32-.23,21.22l.34,19.85,21.33.34,21.22.23V326.21h-21C711.17,326.21,706.06,326.55,705.61,327.69Z"/><path class="cls-2" d="M237.1,314.3c-16.45,8.4-24.17,25.42-19.4,43.12,2,7.94,4.31,11.8,10,17.13,9.76,9.42,23,12.71,35.4,9,7-2.15,11.46-4.88,17.36-11,6.93-7.15,9.42-13.85,9.42-25.08s-2.38-17.13-10-25c-8.29-8.51-12.48-10.21-25.76-10.67C243.79,311.46,242.21,311.69,237.1,314.3Z"/><path d="M476.4,314.19c-.34.79-.45,3.74-.22,6.46l.34,5,7.14.34,7,.34V312.6h-6.81C479.13,312.6,476.86,313.05,476.4,314.19Z"/><path d="M648.42,390.32v7.49l7.15-.34,7-.34.34-7.15.34-7H648.42Z"/><path class="cls-2" d="M236.19,390c-5,1.36-25.87,19.74-36.53,32.23-3.64,4.31-9.08,10.32-11.92,13.5-5.67,6-22.46,27.8-26.21,33.81a18.41,18.41,0,0,0-2.16,8.4,27.11,27.11,0,0,1-1.24,7.94A52.64,52.64,0,0,0,156,493c-.45,2.16-2,8.06-3.4,13.05s-2.95,11.12-3.52,13.61-1.93,7.83-3.06,11.92c-2.27,8.17-2.05,8-11.8,5.78-3.07-.68-7.83-1.7-10.67-2.38-8.06-1.7-8.51-2.49-6-9.64,3.63-10.44,2.38-13.39-6-13.51-4.76-.11-4.76-.11-6.35,5.56-3,10.44-3.41,11.12-6.81,10.44-1.7-.34-6.92-1.7-11.57-3.06-13.28-3.74-20.09-4-25.42-.91S53.51,531.36,50,545.2c-1.47,5.9-3.86,14.87-5.22,19.86S41,578.68,39.55,584.35s-3.85,14.07-5.1,18.72-2.73,10.33-3.18,12.48c-.91,4-1.7,6.93-5.11,17.59-3.63,11.23-1.7,20.77,5.11,25.76,2.16,1.59,7.15,3.74,11.23,4.88s9.65,2.61,12.49,3.4,11.46,3.18,19.28,5.11c23.49,6,22.7,5.56,25,11.68,2.61,6.81,3.86,8.4,9.19,11.12,5.78,2.95,10.66,2.73,16.34-.68a18.29,18.29,0,0,0,5.9-25.64c-2-2.95-2.39-4.65-1.82-7.26,4-16,8.17-32.79,9.65-38,1-3.41,3.17-11.58,5-18.16s3.74-13.5,4.31-15.32c1.14-3.51,3.75-13.5,6.58-25,.91-3.74,2.5-9.42,3.41-12.48s2.61-9.76,3.85-14.75c3.29-12.82,6.7-25.08,8.85-32.11l1.82-5.9h5.22c6.92,0,12.14-2.84,17.59-9.76,2.49-3.29,7.71-10,11.68-15.09s7.49-9.19,7.95-9.19.9,12.37.9,27.57.69,31.77,1.25,37.1L218,540.1,214,547.47c-15.66,27.92-32.9,72.74-46.86,121.19-2.27,8.05,3.86,19.74,11.91,22.8,4.2,1.59,14,1.59,17,0,7-3.63,9.76-7.94,14.42-23,2.6-8.17,6.12-18.95,7.94-23.94s4-11.8,5-15.09a124,124,0,0,1,4.77-13c1.58-3.86,3.4-8.06,3.85-9.31s4.09-9.3,8.06-17.92c7-15.66,9.53-19.52,10.55-16.57,4.43,13.16,12.82,38.69,14.87,45.27,3.06,9.76,11.57,34.61,16.68,48.79,5.56,15.32,10.78,20.43,21,20.43,6.47,0,15.43-4.65,18.49-9.65,4.2-6.92,4.09-12-.56-25.53-2.27-6.58-4.54-13.5-5.11-15.31-.79-3.07-6.13-19.07-17.93-53.9-2.49-7.15-6.13-18.16-8.17-24.4s-4.2-12.36-4.88-13.61-1.47-6.58-1.59-11.92-.68-17-1.36-26.09c-1.36-18.5-1.59-37.45-.45-37.45.34,0,3.29,2.38,6.47,5.33,5.22,4.88,13.05,11,27.91,22.13,6.58,4.88,23.6,15.2,27.8,16.79s9.42-.22,14.75-5.33l4.31-4.08-.57-11.24c-.68-13.39-.22-12.82-17.36-24.28-24.51-16.57-40.73-31.09-57-51.29-11.57-14.29-19.4-22.12-25.3-25.19S243.11,387.94,236.19,390ZM102.41,554.51c2,2,1.59,11.91-.9,21.1a78,78,0,0,0-2.27,9.65c0,.79,6.12,8.17,13.61,16.56s13.85,16.12,14.3,17.36c.79,2.5-2.27,7.72-4.43,7.72-.9,0-5.55-2.95-10.55-6.58s-11-7.72-13.39-9.08c-5.56-3.29-6.24-2.72-10.1,9.31l-3,8.85,3.86,3.74c4.31,4,4.88,6.36,2.16,8.62-1.48,1.14-3.75.8-13.84-2.38-14.41-4.54-15.89-5.56-14.07-9.64,1-2.16,2.15-2.84,4.76-2.84,3.86,0,7.94-3.4,7.94-6.81a60.9,60.9,0,0,1,1.71-8.73c1.13-4.32,1.36-6.81.56-7.61s-8.73-1.47-17.92-1.81l-16.68-.57.34-4c.11-2.16.68-4.31,1.24-4.88s9.31-2.95,19.52-5.45,19.4-5.33,20.42-6.24,2.27-3.63,2.73-5.9c1.36-7.15,5-16.34,7.6-19.17S100.37,552.47,102.41,554.51Z"/><path d="M648.42,418.12v6.7l-7,.34-7.15.34-.34,7-.34,7.15H662V453.3H648.42v28.25l-7,.34-7.15.34v13.62H662.6l.34-21.34.23-21.33,6.58.34,6.47.34.34,7,.34,7.15h14.64v13.73l7.14-.34,7-.34V468.61l-7-.34-7.14-.34V424.82l6.24.22c3.51.23,6.8-.22,7.49-.91s1-3.63.79-6.69l-.34-5.56-7-.34-7.14-.34v13.73H676.78V411.31H648.42Zm28.36,14.18v7.38H663.17v-13.5l4.31-.46C677.58,424.7,676.78,424.13,676.78,432.3Z"/><path d="M605.3,446.49v6.81h14.75V439.68H605.3Z"/><path d="M763,587.75v7.38H748.16l.34,7,.34,7.15h13.61l.34-7.15.34-7h13.62l-.34-7.15-.34-7-6.47-.34-6.58-.34Z"/><path d="M362.48,658.1v49.36h99.85V608.75H362.48Zm85.1.57v35.18H376.1V659.47c0-19,.34-34.84.79-35.18s16.45-.79,35.74-.79h34.95Z"/><path d="M390.85,658.67v21.56H434l-.23-21.33-.34-21.22-21.22-.34-21.33-.23Z"/><path d="M605.3,700.65v6.81h14.75V693.85H605.3Z"/><path class="cls-2" d="M54.3,742c-.34.79-.34,8.73-.22,17.7l.34,16.45H63.5l.56-9.08c.57-8.73.68-9.07,3.41-9.07s2.83.34,3.4,9.07l.57,9.08h9.08V765.67c0-8.51-.46-10.78-2.16-12.71-2.61-2.83-9.87-3.29-12-.68s-2.83,1.14-2.83-5.44v-5.9l-4.32-.12C56.8,740.71,54.53,741.28,54.3,742Z"/><path class="cls-2" d="M185.36,740.59c0,.23-1.93,8.4-4.31,18.27-3.52,14.87-4.09,18.16-2.73,18.61a2.36,2.36,0,0,0,2.5-.34c1.25-1.36,9.08-34.83,8.4-35.85C188.76,740.48,185.59,740,185.36,740.59Z"/><path class="cls-2" d="M199.77,741.28c-.8,1.24-7.83,31.09-7.94,33.7-.12,1.47.56,2.26,2,2.26,1.81,0,2.61-2,5.22-13.61,1.7-7.49,3.63-15.55,4.31-17.82s.79-4.42.45-4.76A3.09,3.09,0,0,0,199.77,741.28Z"/><path class="cls-2" d="M473.68,744c0,3.18.23,3.29,4.31,3,3.52-.34,4.2-.8,4.2-3.06s-.57-2.73-4.2-2.95C473.91,740.71,473.68,740.94,473.68,744Z"/><path class="cls-2" d="M517.14,741.73c-.46.79-2.73,9.08-5,18.27-3.4,14-3.85,17-2.49,17.47a2.61,2.61,0,0,0,2.61-.34c1.25-1.36,9.07-34.72,8.39-35.85C519.75,739.91,518.16,740.14,517.14,741.73Z"/><path class="cls-2" d="M645.47,741.39a7.88,7.88,0,0,0-.46,3.18c0,2.38.46,2.61,5.22,2.61s5.11-.12,4.77-3.07c-.34-2.61-.91-3-4.65-3.06C648,740.94,645.69,741.16,645.47,741.39Z"/><path class="cls-2" d="M694.26,742c-.34.79-.34,8.73-.23,17.7l.34,16.45h9.08l.34-8.17c.34-8.28,1.93-11.46,5.22-10.21,1.25.57,1.82,3.06,2,9.53l.34,8.85h9.08V765.78c0-8.62-.34-10.89-2.16-12.82-2.61-2.83-9.87-3.29-12-.68s-2.84,1.14-2.84-5.44v-5.9l-4.31-.12C696.76,740.71,694.49,741.28,694.26,742Z"/><path class="cls-2" d="M92.77,744c-2,1.25-3.74,3.18-3.74,4.31A3.24,3.24,0,0,1,87.32,751c-.9.34-1.7,1.82-1.7,3.41a4,4,0,0,0,1.7,3.4c1.25.46,1.71,2.5,1.71,7.83,0,9.53,1.36,11.23,8.51,10.78,5.21-.34,5.67-.57,5.67-3.18,0-2-.57-2.83-2.27-2.83-1.93,0-2.27-.91-2.61-6-.34-5.44-.11-6,2.61-7,3.74-1.36,3.63-6.24,0-6.24-1.82,0-2.38-.91-2.61-4.88C97.88,740.94,97.76,740.82,92.77,744Z"/><path class="cls-2" d="M114.9,743.89c-2.61,1.36-4.32,3.06-4.32,4.31a3.42,3.42,0,0,1-1.7,2.83,3.1,3.1,0,0,0-1.7,2.73,5.49,5.49,0,0,0,1.7,3.63c1.14.91,1.7,3.52,1.7,7.83,0,9,1.93,11.46,9.08,11.46,3.06,0,5.79-.34,6-.91.9-1.48-1.14-5.33-2.73-5.33-1,0-1.81-1.93-2.27-5.68-.79-6.58-.56-7.37,2.5-7.37,1.59,0,2.15-.8,2.15-3.41,0-2.83-.45-3.4-2.72-3.4-2.49,0-2.72-.34-2.15-4.54C121.14,740.94,120.8,740.71,114.9,743.89Z"/><path class="cls-2" d="M732.72,744c-2,1.25-3.74,3.18-3.74,4.31a3.23,3.23,0,0,1-1.7,2.72,3.1,3.1,0,0,0-1.7,2.73,5.49,5.49,0,0,0,1.7,3.63c1.13,1,1.7,3.63,1.7,8.39,0,9.42,1.36,11.12,8.51,10.67,5.22-.34,5.67-.57,5.67-3.18,0-2-.56-2.83-2.27-2.83-1.93,0-2.27-.91-2.61-6-.34-5.44-.11-6,2.61-7,3.75-1.36,3.63-6.24,0-6.24-1.81,0-2.38-.91-2.61-4.88C737.83,740.94,737.72,740.82,732.72,744Z"/><path class="cls-2" d="M131.46,752.05c-.23.8-.34,8.63-.23,17.25l.35,15.89h4c3.85,0,4-.12,4.31-4.77l.34-4.65,6,.57c5.56.56,6.13.45,9-3.07,4.31-5.1,4.42-14.18.11-19.17a10.09,10.09,0,0,0-13-2.16c-1.93,1.14-2.61,1.14-3,0C138.61,750.13,132.26,750.13,131.46,752.05Zm15.66,6.13c2.72,2.5,2.61,8.51-.23,11.12-2.15,1.93-2.38,1.93-4.54,0-2.72-2.49-2.95-8.17-.34-11C144.28,755.8,144.51,755.8,147.12,758.18Z"/><path class="cls-2" d="M164.37,752.17a12.88,12.88,0,0,0-.23,4.88c.34,3,.79,3.17,4.88,3.17h4.54v-4.53c0-4.43-.12-4.54-4.31-4.88C166.3,750.58,164.82,750.92,164.37,752.17Z"/><path class="cls-2" d="M205.44,751.49c-.56,1,6.81,21.56,8.74,23.83.68.79,2.72,1.36,4.65,1.13,3.18-.34,3.75-1,5.79-6.81,1.25-3.63,2.61-6.58,2.95-6.58s1.81,3,3.06,6.47c2,6.47,2.16,6.58,6.47,6.58h4.2L245.72,764c2.39-6.58,4-12.37,3.63-12.71a8.87,8.87,0,0,0-3.85-.68c-3.75,0-5,1.93-6.13,9.42-1,6.81-2.84,6.47-5-1-1.93-7-3.07-8.4-6.92-8.4s-5,1.36-6.93,8.74c-.79,3.29-1.81,6-2.27,6-1,0-3.29-7.26-3.29-10.33a5,5,0,0,0-1.36-3.06C212.14,750.47,206.35,750.13,205.44,751.49Z"/><path class="cls-2" d="M252.08,751.26c-.34.34,1.25,6.13,3.63,12.71l4.42,12.14h4.32c4.42,0,4.42-.11,6.46-6.58,1.14-3.52,2.5-6.47,3.07-6.47s1.81,3,2.95,6.47c2.15,6.47,2.15,6.58,6.58,6.58h4.42L292,764.54c2.27-6.47,4.65-11.46,5.22-11.35s2.95,5.45,5.22,11.69l4,11.23h4.42c4.43,0,4.43,0,6.7-7.15,1.25-3.86,2.49-7,2.83-7s1.71,3.17,2.95,7.14c2.05,6.25,2.61,7,5.56,7.38,1.82.23,3.75-.11,4.43-.79,1.7-1.71,9.76-23.15,9.08-24.29-.8-1.36-6.81-.9-8.06.57a18.06,18.06,0,0,0-1.81,6c-.8,4.53-2.5,8.39-3.18,7.37-.23-.34-1.36-3.63-2.61-7.37-2.27-6.81-2.27-6.81-6.7-6.81h-4.42l-1.93,6.69c-1,3.75-2.38,6.92-3.06,7.15s-1.48-1.93-1.82-4.77c-1.25-9-1.81-9.41-11.57-9.41-5,0-8.85.56-9.31,1.24a28.58,28.58,0,0,0-1.93,6.59c-.68,3-1.7,5.44-2.38,5.56s-1.93-2.27-2.84-5.34c-2.26-7.37-3.06-8.28-6.69-8.28-4.08,0-5.22,1.47-7,8.28-1.59,6.58-3.41,6.36-5-.45a31.19,31.19,0,0,0-2-6.47C259.11,750.58,253.33,750,252.08,751.26Z"/><path class="cls-2" d="M362.25,753.87c-3.4,3.06-3.74,4-3.74,9.76s.34,6.69,3.74,9.76c3.07,2.72,4.66,3.29,9.88,3.29,3.4,0,7.37-.57,9-1.36,3.18-1.37,6.69-5.9,5.56-7-1.48-1.36-8.74-.68-10.67,1.14-4.19,3.85-9.41-1.25-8.17-7.83.91-4.43,4.32-6,7.72-3.75,3.18,2.16,9.19,2.38,10.33.46.45-.69-.69-2.61-2.84-4.54-3.07-2.73-4.54-3.18-10.33-3.18S365.43,751,362.25,753.87Z"/><path class="cls-2" d="M393.57,753.42c-1.59,1.58-2.61,3.29-2.27,3.85,1.25,1.93,7.83,2.05,11,.23,2.61-1.47,3.29-1.47,4.88-.23,2.61,2.16,1.36,3-7,4.66-9.87,2-13.39,7.26-8.17,12.48,2.5,2.49,10,3.06,13.73,1,1.7-.8,2.73-.8,3.86.11,1.7,1.36,9.3,1.14,8.85-.34-.23-.45-.34-4.88-.34-9.87,0-8.28-.34-9.42-2.84-11.91s-3.74-2.84-10.78-2.84S396.07,750.92,393.57,753.42Zm13.28,15.43c-3,2.38-5.34,2.72-6.36,1-1.7-2.84,5.34-6.58,7.95-4.2C409.12,766.24,408.55,767.37,406.85,768.85Z"/><path class="cls-2" d="M428.75,752.74c-7.61,4.65-7.61,17.13-.12,21.67,5,3.06,14.19,3.06,18.16-.12,6.46-5,6.46-16.33,0-21.44C442.93,749.79,433.62,749.79,428.75,752.74Zm11,4.65c3.18,1.7,3.07,10.78-.11,12.48a4.12,4.12,0,0,1-4.54,0c-2.84-1.59-3.06-8.51-.34-11.57C436.92,755.91,436.92,755.91,439.75,757.39Z"/><path class="cls-2" d="M474,752.4c-.23.68-.23,6.24-.11,12.48l.34,11.23h7.94V751.37l-3.86-.11C476.29,751.15,474.36,751.71,474,752.4Z"/><path class="cls-2" d="M489.56,762.49V775.2c0,.57,1.93.91,4.32.91h4.19l.57-7.49c.57-7.49,2.61-11.8,5.11-10.78,2,.68,4-1.59,4-4.65,0-2.16-.57-2.61-3.41-2.61a5.66,5.66,0,0,0-4.53,1.93c-1.14,1.93-1.14,1.93-2.27,0a5.68,5.68,0,0,0-4.54-1.93h-3.41Z"/><path class="cls-2" d="M525.19,752.05c-.22.8-.34,8.63-.22,17.25l.34,15.89h4c3.86,0,4-.12,4.31-4.77l.34-4.65,6,.57c5.56.56,6.13.45,9-3.07,4.31-5.1,4.42-14.18.11-19.17a10.09,10.09,0,0,0-13-2.16c-1.93,1.14-2.61,1.14-3,0C532.34,750.13,526,750.13,525.19,752.05Zm15.66,6.13c2.72,2.5,2.61,8.51-.23,11.12-2.15,1.93-2.38,1.93-4.53,0-2.73-2.49-3-7-.46-10.55C537.67,755.8,538.13,755.69,540.85,758.18Z"/><path class="cls-2" d="M560.59,753c-1.58,1.25-3,2.95-3,3.86,0,2.16,6.93,2.84,9.88.91s6.58-1.59,6.58.79c0,1.14-2.27,2.16-6.81,3.18-3.75.79-7.72,2.27-8.74,3.29a7.06,7.06,0,0,0,0,9.76c2.84,2.49,11.24,2.49,14.07,0,1.93-1.7,2.16-1.7,3.52.11,1,1.36,2.61,1.93,4.77,1.59l3.17-.34-.22-10.21c-.35-13.5-1.82-15.32-12.6-15.32C565.25,750.58,563,751,560.59,753Zm13.73,15.09c-.9,2.27-6.24,3.63-7.83,2.05s.69-4.43,4-5S575.12,765.78,574.32,768.05Z"/><path class="cls-2" d="M589.07,751.26c-.34.45,1,3.06,3.18,5.9s4,5.56,4,6-1.81,3.52-4,6.59-4,5.78-4,6.24,2.16.68,4.77.45c4.08-.23,5.22-.91,7.14-4,1.25-2,2.61-3.63,3.07-3.75s1.7,1.82,3.06,4c2,3.63,2.73,4,7.49,4,2.84,0,5.11-.34,5.11-.8a46.94,46.94,0,0,0-4.66-6.81L609.73,763l4.53-5.45c2.5-3,4.32-5.79,3.86-6.24s-2.61-.68-5-.68c-3.4,0-4.77.68-6.69,3.4-1.37,1.82-2.84,3.41-3.18,3.41s-1.48-1.59-2.16-3.41c-1.13-3.06-1.81-3.4-6.24-3.4C592,750.58,589.53,750.92,589.07,751.26Z"/><path class="cls-2" d="M623.91,752.05a112.92,112.92,0,0,0-.23,12.83l.34,11.23h8l.68-7.6c.68-7.83,2.49-11.69,5.22-10.67,1.7.68,5.44-4.31,4.31-6.13-1-1.58-6.58-1.47-8.4.23-1.25,1.14-1.59,1.14-2,0C631.06,750.13,624.7,750.13,623.91,752.05Z"/><path class="cls-2" d="M645.47,752.28c-.34.68-.34,6.36-.23,12.6l.34,11.23h9.08V751.26l-4.31-.23C647.85,751,645.69,751.49,645.47,752.28Z"/><path class="cls-2" d="M662.72,754.1c-5.22,6.12-3.07,17.47,3.74,20.19,3.4,1.48,5.11,1.37,9.53-.45,1.7-.68,2-.45,1.7,1.7-.45,3.75-3.74,5.45-6.58,3.63a15.88,15.88,0,0,0-6.24-1.36c-3.18,0-4,.46-4,2.27,0,3.75,5.33,6.24,13.28,6.24,6.12,0,7.48-.45,10.09-3,2.84-3,3-3.4,3.07-17.59.11-14.52.11-14.63-2.5-15a10.32,10.32,0,0,0-5.45,1c-2,1.13-2.95,1.13-4,.11-.79-.79-3.29-1.36-5.56-1.36C666.57,750.58,665,751.37,662.72,754.1Zm13,3.29c2.61,1.47,3,8.17.46,10.21-4.54,3.74-9.31-3.06-5.79-8.4C672.59,755.91,672.7,755.8,675.76,757.39Z"/><path class="cls-2" d="M750.77,753.19c-5.22,5.45-2.27,11.46,6.35,12.82,5.45.91,8.85,3,7.72,4.77s-5.56,1.7-7.27,0c-1.93-1.93-7.83-2.16-9.3-.34-.91,1.13-.45,2,1.81,3.85s4.66,2.39,10.33,2.39c6.58,0,7.72-.34,10.67-3.29,1.81-1.82,3.29-4.09,3.29-5,0-3.63-4.09-6.8-10.78-8.17-3.63-.68-6.92-1.92-7.15-2.61-.68-2,3.18-3.06,5.56-1.58s9.64,1.81,10.66.34c.35-.57-.79-2.16-2.38-3.41C765.74,749.45,754.17,749.56,750.77,753.19Z"/><path class="cls-2" d="M164.71,767.15c-.46.45-.8,2.83-.8,5.22v4.42l4.88-.34c4.77-.34,4.77-.34,4.77-4.88s-.12-4.54-4-4.88C167.32,766.47,165.16,766.69,164.71,767.15Z"/><path class="cls-2" d="M342.51,768.05a13.1,13.1,0,0,0-.23,4.88c.34,3,.68,3.18,5.22,3.18,2.61,0,4.77-.34,4.77-.91v-4.76c0-3.86-.11-4-4.54-4C344.78,766.47,342.85,767,342.51,768.05Z"/><path class="cls-2" d="M456.55,766.92c0,.34-.12,2.61-.12,4.88l-.11,4.31h10v-4.54c0-4.54,0-4.54-4.76-4.88C458.81,766.47,456.66,766.58,456.55,766.92Z"/></svg>