<?xml version="1.0" encoding="UTF-8"?>
<svg width="230px" height="160px" viewBox="0 0 230 160" version="1.1" xmlns="http://www.w3.org/2000/svg" xmlns:xlink="http://www.w3.org/1999/xlink">
    <title>Asset 1</title>
    <g stroke="none" stroke-width="1" fill="none" fill-rule="evenodd">
        <g id="Tour-Home---Desktop" transform="translate(-1141.000000, -3362.000000)">
            <g id="Group-5" transform="translate(1107.000000, 3363.000000)">
                <g id="Asset-1" transform="translate(35.000000, 0.000000)">
                    <path d="M100.909869,16.4230434 L102.871273,16.4147004 C107.002325,16.3971284 110.36545,19.7317634 110.383022,23.8628159 C110.383112,23.8840108 110.383112,23.905206 110.383022,23.9264008 L109.885672,141.029475 C109.868232,145.135719 106.543799,148.460173 102.437556,148.47764 L100.476152,148.485983 C96.3450998,148.503555 92.9819751,145.16892 92.9644032,141.037867 C92.964313,141.016672 92.964313,140.995477 92.964403,140.974282 L93.4617534,23.8712076 C93.4791931,19.7649644 96.8036262,16.4405098 100.909869,16.4230434 Z" id="Rectangle" fill="#F1F1F1" transform="translate(101.673713, 82.450341) rotate(50.100000) translate(-101.673713, -82.450341) "></path>
                    <path d="M99.0291326,71.8989085 C99.0291326,64.7912791 98.540917,63.3717667 98.3217182,62.6368418 C96.8371441,57.6735822 93.5690885,55.5896172 94.0473405,55.0661091 C94.5255926,54.5426009 100.254653,57.1500741 103.014566,62.1133337 C103.851567,63.7160402 104.519477,65.4032252 105.007283,67.1470656 C105.456736,68.7990714 105.78969,70.4812003 106.003642,72.1807975 C106.302549,74.1942903 106.671202,76.9427079 107,80.2347685 C106.930255,81.4932015 106.850546,82.741567 106.780801,84 C105.464953,83.559093 104.201764,82.9715628 103.014566,82.2482613 C101.547644,81.3579965 100.206955,80.2708761 99.0291326,79.0166054 L99.0291326,71.8989085 Z" id="Path" fill="#FFFFFF"></path>
                    <path d="M53.465359,130.592527 C54.9264464,131.406291 56.8131018,130.963515 57.6943645,129.600029 C57.9739689,128.964394 57.9739689,128.250666 57.6943645,127.615032 C58.0432574,124.310012 58.4027229,121.004992 58.7516158,117.690047 C61.0564238,116.280699 62.3356979,114.583527 61.9233699,113.720053 C61.5110419,112.856579 58.5190205,112.668004 56.6371131,113.720053 C55.8091548,114.255048 55.0925103,114.927801 54.5226104,115.70505 C53.7199976,116.633191 53.0120524,117.63007 52.4081077,118.682545 L52.4081077,126.622533 C51.5825254,127.999577 52.0466054,129.742203 53.465359,130.592527 Z" id="Path" fill="#FFFFFF"></path>
                    <path d="M138.412958,66.959016 L132.236077,73.938524 C129.899157,77.1690391 127.366636,79.4523353 126.059196,78.9238868 C124.751756,78.3954384 124.54586,74.2874994 126.059196,68.9531611 C126.398925,67.6270546 126.748948,66.3009481 127.088676,64.9648708 C127.553558,62.741211 128.619298,60.6768297 130.177117,58.9824354 C132.086174,56.9518135 134.607943,55.5561653 137.383478,54.9941451 L141.501398,53 C142.879352,53.5900818 143.980578,54.6566417 144.589839,55.9912177 C145.393138,58.0185332 144.999115,60.3082504 143.560359,61.9736531 C141.841127,63.6387643 140.13219,65.3038755 138.412958,66.959016 Z" id="Path" fill="#FFFFFF"></path>
                    <path d="M116.269383,4.38086855 L118.230787,4.37252549 C122.361839,4.35495357 125.724964,7.68958849 125.742536,11.820641 C125.742626,11.8418359 125.742626,11.8630311 125.742536,11.884226 L125.008757,184.655405 C124.991317,188.761648 121.666884,192.086102 117.560641,192.103569 L115.599237,192.111912 C111.468185,192.129484 108.10506,188.794849 108.087488,184.663796 C108.087398,184.642601 108.087398,184.621406 108.087488,184.600211 L108.821267,11.8290327 C108.838707,7.72278957 112.16314,4.39833494 116.269383,4.38086855 Z" id="Rectangle" fill="#F1F1F1" transform="translate(116.915012, 98.242219) rotate(50.100000) translate(-116.915012, -98.242219) "></path>
                    <path d="M96.3956097,101.855169 C95.555978,103.845101 94.1642095,105.56103 92.3802162,106.805799 C90.5772267,107.963015 88.5034699,108.644818 86.357126,108.786051 C82.647485,109.26948 78.8752373,108.931237 75.314794,107.795925 C71.1027367,106.436045 67.3053571,104.052564 64.2724619,100.865043 C59.9395848,94.0740427 58.8390772,85.7521536 61.2609168,78.0921465 C62.0250276,76.6101516 63.04398,75.2701202 64.2724619,74.1316427 C75.314794,64.0224567 99.3168085,75.5772266 100.411003,76.1118946 C102.105456,80.8810264 102.452465,86.0150043 101.414852,90.963784 C100.570964,94.9130973 98.8574735,98.6312466 96.3956097,101.855169 Z" id="Path" fill="#FFFFFF"></path>
                    <path d="M131.323894,49.4889991 L133.285298,49.4806561 C137.41635,49.4630842 140.779475,52.7977191 140.797047,56.9287716 C140.797137,56.9499665 140.797137,56.9711617 140.797047,56.9923566 L140.299696,174.095431 C140.282257,178.201674 136.957824,181.526129 132.851581,181.543595 L130.890177,181.551938 C126.759124,181.56951 123.396,178.234875 123.378428,174.103823 C123.378338,174.082628 123.378338,174.061433 123.378428,174.040238 L123.875778,56.9371633 C123.893218,52.8309202 127.217651,49.5064655 131.323894,49.4889991 Z" id="Rectangle" fill="#F1F1F1" transform="translate(132.087737, 115.516297) rotate(50.100000) translate(-132.087737, -115.516297) "></path>
                    <circle id="Oval" fill="#FFFFFF" cx="81.5" cy="112.5" r="10.5"></circle>
                    <path d="M162.39561,103.386875 C160.593124,105.014703 158.564207,106.371092 156.37252,107.413485 C154.294553,108.420138 148.442117,111.188432 141.314794,109.42679 C136.981686,108.312297 133.114448,105.844454 130.272462,102.380223 C125.939585,95.4758712 124.839077,87.0150784 127.260917,79.2272155 C128.025028,77.720484 129.04398,76.3580856 130.272462,75.2006055 C141.314794,64.9226834 165.316808,76.6703181 166.411003,77.2139105 C168.105456,82.0626455 168.452465,87.2823165 167.414852,92.313698 C166.570964,96.3289308 164.857473,100.109141 162.39561,103.386875 Z" id="Path" fill="#FFFFFF"></path>
                    <path d="M118.465359,130.592527 C119.926446,131.406291 121.813102,130.963515 122.694364,129.600029 C122.973969,128.964394 122.973969,128.250666 122.694364,127.615032 C123.043257,124.310012 123.402723,121.004992 123.751616,117.690047 C126.056424,116.280699 127.335698,114.583527 126.92337,113.720053 C126.511042,112.856579 123.519021,112.668004 121.637113,113.720053 C120.809155,114.255048 120.09251,114.927801 119.52261,115.70505 C118.719998,116.633191 118.012052,117.63007 117.408108,118.682545 L117.408108,126.622533 C116.582525,127.999577 117.046605,129.742203 118.465359,130.592527 Z" id="Path" fill="#FFFFFF"></path>
                    <path d="M174,132 C173.332704,126.042105 172.665408,120.077193 171.998111,114.105263 L159.055902,112 L158.985836,113.052632 L151.979226,118.315789 L145.97356,115.157895 L139.967894,118.315789 L138.96695,117.263158 L133.381681,112 C131.872039,112.162297 130.386559,112.515733 128.957507,113.052632 L128.36695,113.305263 L128.36695,113.052632 C126.421997,113.041437 124.552621,113.843963 123.170756,115.283364 C121.78889,116.722766 121.007942,118.680915 121,120.726316 L121,130.947368 L131.439849,130.947368 L131.319736,130.242105 L174,132 Z" id="Path" fill="#F9B458"></path>
                    <path d="M102.64,113.00011 L91.95,113.00011 C91.4370338,118.110483 87.1360864,122.001302 82,122.001302 C76.8639136,122.001302 72.5629662,118.110483 72.05,113.00011 L63.36,113.00011 C61.4168821,112.989475 59.5492699,113.75187 58.168708,115.119292 C56.7881461,116.486715 56.0079346,118.346944 56,120.290063 L56,130 L110,130 L110,120.290063 C109.992065,118.346944 109.211854,116.486715 107.831292,115.119292 C106.45073,113.75187 104.583118,112.989475 102.64,113.00011 Z" id="Path" fill="#4F9CF7"></path>
                    <path d="M102.999917,113 L94,113 C98.9999539,113 102.999917,116.445545 102.999917,120.712871 L102.999917,131 L112,131 L111.999834,120.712871 C112.029834,116.445545 107.989871,113 102.999917,113 Z" id="Path" fill="#3B8FE2"></path>
                    <path d="M167,75.0669104 C167,75.0669104 154.894742,79.0634291 147.715213,79.0634291 C140.535683,79.0634291 134.212802,75.0669104 134.212802,75.0669104 L128.430426,83 C125.116012,55.7237598 141.575899,53.205953 156.067535,53.0261097 L158.555894,53.0261097 C159.136648,52.9912968 159.719032,52.9912968 160.299786,53.0261097 C160.758705,53.2459182 161.074849,54.3649434 159.830669,59.0208877" id="Path" fill="#F9B458"></path>
                    <path d="M159.632135,64.5565278 L159.632135,54 C157.234862,54 154.641893,54 152,54 L152,64.5565278 C152,70.880294 159.632135,67.9772489 159.632135,76.5239762 C161.589092,75.9656983 163.54605,75.3363668 163.54605,75.3363668 L167.2447,83 C170.982489,63.8155408 159.632135,64.5565278 159.632135,64.5565278 Z" id="Path" fill="#FF9C1A"></path>
                    <path d="M147,109.430769 L147,114.473684 L140.505004,117 L134,111.957085 L134,105 C137.686148,107.873039 142.273057,109.436387 147,109.430769 Z" id="Path" fill="#FFFFFF"></path>
                    <path d="M160,105 L160,111.957085 L152.204003,117 L147,114.473684 L147,109.421053 C151.725463,109.427866 156.311724,107.868166 160,105 Z" id="Path" fill="#FFFFFF"></path>
                    <path d="M167.999917,113 L159,113 C163.999954,113 167.999917,116.445545 167.999917,120.712871 L167.999917,131 L177,131 L176.999834,120.712871 C177.029834,116.445545 172.989871,113 167.999917,113 Z" id="Path" fill="#FF9C1A"></path>
                    <path d="M103,83 L98.2477466,81.1868373 L69.7038927,70.2574956 L60.1690523,75.3544974 C58.9253775,58.7036201 64.9516393,54.9664903 64.9516393,54.9664903 L69.9465609,57.5149912 C69.9465609,57.5149912 103,37.1269841 103,83 Z" id="Path" fill="#4F9CF7"></path>
                    <path d="M80,53.3129302 C87.9865036,54.7731151 95.4162801,61.2583501 96.064108,80.2508243 L98.7363981,81.1772864 L104,83 C104,55.1960652 90.5778153,51.7520428 80,53.3129302 Z" id="Path" fill="#3B8FE2"></path>
                    <rect id="Rectangle" fill="#FFFFFF" x="126" y="123" width="13" height="8"></rect>
                    <path d="M168.125401,111.839773 L161.16991,111.839773 L161.16991,106.061109 L161.515146,105.760658 C166.314113,101.630502 169.07162,95.6579758 169.079877,89.3760925 L169.079877,81.7947255 L169.079877,81.6945754 C170.562362,74.3335387 169.92266,68.9254301 167.170925,65.67055 C165.85119,64.0817184 164.007543,63.0005969 161.961922,62.6159702 L161.139448,62.4557299 L161.139448,52.9414648 C161.139462,52.690042 161.037509,52.44906 160.856308,52.2722204 C160.675107,52.0953807 160.429715,51.9973786 160.174817,52.0000533 L155.382128,52.0000533 C146.060754,52.0000533 135.602132,52.5709092 129.519885,59.371105 C125.14351,64.2584328 123.640717,71.5493643 124.909968,81.6745453 L124.909968,89.3961226 C124.922749,95.6712981 127.67997,101.635904 132.474699,105.760658 L132.830089,106.061109 L132.830089,111.839773 L125.874598,111.839773 C120.975613,111.845292 117.005596,115.760968 117,120.592897 L117,130.998498 C117,131.551612 117.45461,132 118.0154,132 L176.035369,132 C176.576239,131.973294 177.000677,131.532633 176.999999,130.998498 L176.999999,120.602912 C177.000002,115.767072 173.028348,111.8453 168.125401,111.839773 Z M126.493992,76.2764518 C126.331528,69.4261809 127.854628,64.1482676 131.032831,60.602952 C136.58707,54.3936421 146.548146,53.8728613 155.453206,53.8728613 L159.291419,53.8728613 L159.291419,63.3270363 C159.268592,63.5849596 159.35684,63.8404547 159.534565,64.0309904 C159.712291,64.221526 159.963092,64.3295187 160.225588,64.3285379 L160.438822,64.3285379 C162.499496,64.3691334 164.440835,65.2899749 165.759519,66.8523219 C167.262311,68.6650397 168.013707,71.349064 167.993399,74.8643345 L167.993399,79.0606262 L166.094601,75.3150103 L165.231511,73.6124576 C165.058233,73.2997834 164.729563,73.101467 164.36842,73.0916767 C164.27423,73.0770474 164.178299,73.0770474 164.084108,73.0916767 C163.96226,73.0916767 152.082078,76.8372927 145.167202,76.8372927 C138.404637,76.8372927 132.291927,73.2218719 132.231003,73.1918269 C132.077238,73.1018154 131.902101,73.0534482 131.723303,73.0516167 C131.421499,73.0590148 131.138682,73.1984874 130.951599,73.4321873 L128.34202,76.8673377 L126.524454,79.1307313 L126.493992,76.2764518 Z M126.92046,89.3760925 L126.92046,81.8648306 L127.12354,81.5944252 L131.459299,75.9058962 L131.966999,75.2348901 L132.728549,75.6054457 C136.585668,77.5419095 140.830731,78.6091732 145.157048,78.7301307 C150.904213,78.7301307 159.585885,76.386617 163.0484,75.3751004 L163.870874,75.13474 L164.246572,75.8858662 L167.099847,81.5243201 L167.211541,81.7346354 L167.211541,89.3760925 C166.965725,100.173343 158.02093,108.799822 147.071078,108.799822 C136.121225,108.799822 127.17643,100.173343 126.930614,89.3760925 L126.92046,89.3760925 Z M159.291419,107.553346 L159.291419,112.280434 L158.834489,112.570869 L152.742088,116.576876 L152.244542,116.907371 L151.726688,116.646981 L148.568793,115.084638 L148.000169,114.814233 L148.000169,111.178782 L148.934337,111.108677 C152.035354,110.848475 155.044002,109.936722 157.758165,108.434668 L159.291419,107.553346 Z M146.091216,111.128707 L146.091216,114.744128 L145.451514,114.994503 L141.166525,116.687041 L140.618209,116.897356 L140.161279,116.536816 L135.206126,112.630959 L134.820274,112.330509 L134.820274,107.563361 L136.33322,108.394608 C139.050036,109.888904 142.057688,110.796942 145.157048,111.058602 L146.091216,111.128707 Z M138.171095,125.149729 L138.171095,130.047072 L126.879844,130.047072 L126.879844,124.198303 L138.140633,124.198303 L138.171095,125.149729 Z M175.121509,120.612927 L175.121509,130.037057 L140.069893,130.037057 L140.069893,123.196801 C140.07057,122.662667 139.646133,122.222006 139.105263,122.195299 L125.90506,122.195299 C125.34427,122.195299 124.88966,122.643687 124.88966,123.196801 L124.88966,130.047072 L118.969876,130.047072 L118.969876,120.592897 C118.975451,116.810252 122.080087,113.743635 125.915214,113.732611 L133.4901,113.732611 L133.774412,113.952941 L139.785581,118.700059 L139.856659,118.700059 L139.937891,118.700059 L139.988661,118.700059 L140.069893,118.700059 L140.140971,118.700059 L140.232357,118.700059 L140.597901,118.700059 L140.679133,118.700059 L140.790827,118.700059 L146.517684,116.436665 L146.944153,116.26641 L147.350313,116.46671 L151.838382,118.680029 L151.919614,118.680029 L152.011,118.680029 L152.457776,118.680029 L152.539008,118.680029 L152.589778,118.680029 L152.67101,118.680029 L152.742088,118.680029 L160.113893,113.832761 L160.367744,113.662506 L167.993399,113.662506 C171.826884,113.668022 174.933144,116.731764 174.938737,120.512777 L175.121509,120.612927 Z" id="Shape" fill="#000000" fill-rule="nonzero"></path>
                    <path d="M102.032967,111.943625 L92.4573122,111.943625 L92.4573122,108.057889 L92.9137788,107.768949 C99.2000543,103.787358 102.997613,96.9426465 102.996619,89.5956615 L102.996619,83.9065456 L104.345731,84.38479 L106.983094,85.3014251 C107.083191,85.3404676 107.189849,85.3607442 107.297549,85.3612057 C107.49843,85.3626464 107.694307,85.2996806 107.855452,85.181864 C108.111313,85.0075776 108.263138,84.7205082 108.2612,84.4146803 C108.2612,72.9965948 106.060017,64.5575735 101.708369,59.3267751 C98.2087914,55.132173 93.3803891,53 87.3753173,53 C80.2747257,53 73.6103133,55.9890276 71.0845314,57.2444192 L70.6382085,57.4636146 L70.1817419,57.2543826 L65.5562136,55.0923193 C65.4281597,55.025695 65.2852257,54.9914526 65.1403218,54.9926851 C64.9695079,54.9949009 64.8020303,55.0394533 64.6534241,55.1222096 C63.0710278,56.223605 61.8397919,57.7439357 61.1031283,59.5061168 C59.0743879,63.6309749 58.3237539,69.559213 58.9019449,76.6432085 L58.9019449,89.5956615 C58.9009508,96.9426465 62.6985095,103.787358 68.984785,107.768949 L69.4513953,108.057889 L69.4513953,111.943625 L59.8655966,111.943625 C54.9715806,111.949115 51.0055908,115.84462 51.0000008,120.651658 L51.0000008,131.003657 C50.9993242,131.53504 51.4233311,131.973431 51.9636525,132 L109.98563,132 C110.545851,132 111,131.553922 111,131.003657 L111,120.621768 C110.989324,118.300907 110.036924,116.080024 108.353786,114.451112 C106.670648,112.822199 104.395721,111.919729 102.032967,111.943625 Z M60.6568054,73.6242906 C60.362638,63.7903897 63.0710066,59.346702 64.7142863,57.5732123 L65.2214715,57.0252239 L65.9112432,57.3440535 L70.2730352,59.3367386 C70.3994594,59.396893 70.5383114,59.4275795 70.6787833,59.4264094 C70.8495972,59.4241936 71.0170749,59.3796412 71.165681,59.2968849 C71.2366869,59.2968849 79.1487747,54.8332703 87.3956047,54.8332703 C99.3550297,54.8332703 105.715131,63.8003531 106.31361,81.5551772 L106.31361,83.0198007 L104.913779,82.58141 L70.6990707,70.6252995 C70.5956651,70.5854873 70.4855376,70.5652054 70.3744722,70.565519 C70.2267684,70.5678637 70.0813683,70.6018675 69.9484367,70.6651532 L62.0972111,74.5209989 L60.6770928,75.2184386 L60.6568054,73.6242906 Z M60.8292484,89.5657712 L60.8292484,77.2310506 L61.387152,76.9520747 L70.0803049,72.6877286 L70.4759093,72.4984235 L70.8816573,72.6379115 L100.399831,82.9899105 L101.069315,83.2290327 L101.069315,89.5956615 C100.823749,100.337292 91.888027,108.919333 80.9492819,108.919333 C70.0105368,108.919333 61.074815,100.337292 60.8292484,89.5956615 L60.8292484,89.5657712 Z M90.5300087,109.114012 L90.5300087,112.86026 C90.3617625,117.938356 86.1219975,121.969453 80.9492819,121.969453 C75.7765663,121.969453 71.5368012,117.938356 71.3685551,112.86026 L71.3685551,109.114012 L72.7582423,109.662 C78.0151472,111.734314 83.8834166,111.734314 89.1403215,109.662 L90.5300087,109.114012 Z M108.97126,120.671585 L108.97126,130.057132 L52.9273042,130.057132 L52.9273042,120.651658 C52.9328729,116.888499 56.0343597,113.837679 59.8655966,113.826712 L69.4108205,113.826712 L69.5528323,114.673603 C70.4526886,120.1475 75.2635839,124.171096 80.9087071,124.171096 C86.5538302,124.171096 91.3647256,120.1475 92.2645818,114.673603 L92.4065937,113.826712 L101.992392,113.826712 C105.821989,113.832199 108.925098,116.880159 108.930685,120.641695 L108.97126,120.671585 Z" id="Shape" fill="#000000" fill-rule="nonzero"></path>
                    <path d="M0,131.5 L229,131.5" id="Path" stroke="#000000" stroke-width="1.7" stroke-linecap="round"></path>
                    <path d="M153,110.5 L154,110.5" id="Path"></path>
                    <path d="M121.527405,0 C108.521469,0.0277330432 97.9944,10.5335402 98.0000022,23.4798842 C98.0018367,24.6274095 98.0862354,25.7733305 98.2525506,26.9088523 L98.5859144,46.7988785 L118.537232,46.7988785 C119.54173,46.9337057 120.554224,47.0008959 121.567812,46.999991 C132.065998,46.9034907 141.243472,39.9290078 144.103588,29.873778 C146.963704,19.8185481 142.82166,9.09010822 133.932579,3.52952435" id="Path" stroke="#000000" stroke-width="1.3" fill="#8FC7FF" stroke-linecap="round" stroke-linejoin="round"></path>
                    <text id="?" fill="#000000" font-family=".SFNSDisplay, .SF NS Display" font-size="23" font-weight="normal">
                        <tspan x="116" y="30">?</tspan>
                    </text>
                    <path d="M8,138.5 L33,138.5" id="Path" stroke="#000000" stroke-width="1.7" stroke-linecap="round"></path>
                    <path d="M41,138.5 L73,138.5" id="Path" stroke="#000000" stroke-width="1.7" stroke-linecap="round"></path>
                    <path d="M116,138.5 L214,138.5" id="Path" stroke="#000000" stroke-width="1.7" stroke-linecap="round"></path>
                    <path d="M36,138.5 L37,138.5" id="Path" stroke="#000000" stroke-width="1.7" stroke-linecap="round"></path>
                </g>
            </g>
        </g>
    </g>
</svg>
