<?xml version="1.0" encoding="UTF-8"?>
<svg width="149px" height="44px" viewBox="0 0 149 44" version="1.1" xmlns="http://www.w3.org/2000/svg" xmlns:xlink="http://www.w3.org/1999/xlink">
    <defs>
        <linearGradient x1="50%" y1="21.9564606%" x2="50%" y2="100%" id="linearGradient-appstore">
            <stop stop-color="#FFFFFF" stop-opacity="0.16" offset="0%"></stop>
            <stop stop-color="#FFFFFF" stop-opacity="0" offset="100%"></stop>
        </linearGradient>
        <path d="M75.0850451,6.13752187 C75.1940891,6.20639178 75.3253704,6.27669543 75.4788929,6.34843492 C75.6324155,6.42017441 75.7916747,6.48473898 75.9566756,6.54213058 C76.1216764,6.59952217 76.2838052,6.64686952 76.4430669,6.68417406 C76.6023285,6.72147859 76.7422185,6.74013058 76.8627408,6.74013058 C76.9115237,6.74013058 76.9717839,6.73869581 77.0435234,6.73582623 C77.1152629,6.73295665 77.1913056,6.7265002 77.2716538,6.71645667 C77.3520021,6.70641314 77.4323491,6.69063069 77.5126973,6.66910884 C77.5930456,6.64758699 77.6655014,6.61745686 77.7300669,6.57871753 C77.7946324,6.53997821 77.8470015,6.49119609 77.8871756,6.4323697 C77.9273497,6.37354332 77.9488712,6.30108752 77.9517408,6.21500013 L77.9517408,6.20208709 C77.9517408,6.08730391 77.9194585,5.95745738 77.854893,5.8125436 C77.7903275,5.66762983 77.7020892,5.51554439 77.5901756,5.35628272 C77.478262,5.19702106 77.3491328,5.03704439 77.2027843,4.87634793 C77.0564357,4.71565147 76.9043503,4.56141388 76.7465234,4.41363053 C76.5886965,4.26584718 76.4301546,4.12954419 76.270893,4.00471748 C76.1116313,3.87989076 75.9631328,3.77443529 75.8253929,3.68834791 L76.4667408,2.73708702 C76.7307421,2.91787053 76.9911526,3.12160763 77.2479799,3.34830442 C77.5048073,3.57500121 77.7415441,3.81675967 77.9581973,4.07358704 C78.1748506,4.33041442 78.3628052,4.59799871 78.5220669,4.87634793 C78.6813286,5.15469716 78.7953927,5.43591174 78.8642626,5.72000012 C78.9015671,5.88356616 78.9202191,6.03995591 78.9202191,6.18917405 C78.9202191,6.33265303 78.8936759,6.50482522 78.8405887,6.7056958 C78.7875014,6.90656637 78.6676983,7.10384701 78.4811756,7.29754364 C78.2946529,7.49124026 78.0579162,7.63973878 77.7709582,7.74304365 C77.5241744,7.83200061 77.2530032,7.87647843 76.9574365,7.87647843 C76.9086536,7.87647843 76.8584367,7.87504366 76.8067843,7.87217408 C76.617392,7.87217408 76.4251331,7.85423948 76.2300017,7.81836973 C76.0348702,7.78249999 75.8433287,7.73300048 75.6553712,7.66986973 C75.4674137,7.60673898 75.2866329,7.53428318 75.1130234,7.45250016 C74.9394138,7.37071714 74.7780024,7.28391366 74.6287842,7.19208711 L75.0850451,6.13752187 Z M73.5613059,4.96673924 C73.6186975,5.14752275 73.6782404,5.33619479 73.7399364,5.53276099 C73.8016323,5.72932719 73.8575883,5.9280426 73.9078059,6.12891318 C73.9580236,6.32978375 73.9989145,6.52993393 74.0304799,6.72936971 C74.0620452,6.9288055 74.0778277,7.1232166 74.0778277,7.31260885 C74.0778277,7.57087102 74.0383716,7.82267286 73.9594581,8.06802191 C73.8805447,8.31337097 73.7715023,8.55010774 73.6323277,8.77823932 C73.4931531,9.0063709 73.3281547,9.2237383 73.1373277,9.43034803 C72.9465006,9.63695776 72.7391766,9.83208625 72.5153494,10.0157393 C72.2915222,10.1993924 72.0547854,10.3701299 71.805132,10.5279567 C71.5554786,10.6857836 71.3029593,10.8278257 71.0475668,10.9540872 L70.5568711,9.96839152 C70.7606112,9.86795623 70.9614788,9.75676169 71.1594798,9.63480456 C71.3574808,9.51284742 71.5461528,9.38300089 71.7255016,9.24526107 C71.9048503,9.10752125 72.0712834,8.96260965 72.2248059,8.81052193 C72.3783284,8.65843421 72.5103271,8.5006097 72.6208059,8.33704366 C72.7312847,8.17347762 72.8180882,8.00560973 72.881219,7.83343495 C72.9443497,7.66126017 72.9759146,7.48765321 72.9759146,7.31260885 C72.9759146,7.14904282 72.9572626,6.97687062 72.9199581,6.7960871 C72.8826536,6.61530359 72.8374584,6.43667493 72.7843711,6.26019579 C72.7312839,6.08371664 72.6767627,5.9136966 72.6208059,5.75013056 C72.5648491,5.58656452 72.5182191,5.44165292 72.4809146,5.31539142 L73.5613059,4.96673924 Z M66.8293058,6.72721754 L67.7461319,6.72721754 C67.8810021,6.72721754 68.0266311,6.71932631 68.1830232,6.70354362 C68.3394153,6.68776094 68.4843269,6.65476126 68.6177624,6.60454362 C68.7511978,6.55432598 68.861675,6.48187018 68.9491971,6.38717405 C69.0367193,6.29247792 69.0804798,6.16621831 69.0804798,6.00839143 C69.0804798,5.93378236 69.0646973,5.82904428 69.0331319,5.69417404 C69.0015666,5.55930379 68.9599583,5.41008789 68.9083058,5.24652185 C68.8566534,5.08295581 68.7956758,4.91365316 68.7253711,4.7386088 C68.6550664,4.56356444 68.5811758,4.40000086 68.5036971,4.24791314 L69.4980015,3.75721747 C69.569741,3.92078351 69.6414794,4.09439047 69.7132189,4.27804357 C69.7849584,4.46169667 69.8488056,4.6503687 69.9047624,4.84406532 C69.9607192,5.03776195 70.0059144,5.23217305 70.0403493,5.42730447 C70.0747843,5.62243588 70.0920015,5.81326006 70.0920015,5.99978274 C70.0920015,6.33265398 70.0303065,6.61530333 69.9069146,6.84773928 C69.7835226,7.08017523 69.6149374,7.26884726 69.4011537,7.41376103 C69.18737,7.5586748 68.9377203,7.66413027 68.6521971,7.7301306 C68.366674,7.79613093 68.0617857,7.8291306 67.7375232,7.8291306 L66.8293058,7.8291306 L66.8293058,6.72721754 Z M68.4305232,9.10321759 L67.6987841,9.83495673 L66.9584362,9.09891324 L67.6901754,8.36286975 L68.4305232,9.10321759 Z M70.0575667,9.10752194 L69.3258276,9.84356543 L68.5854797,9.10321759 L69.3172189,8.37147844 L70.0575667,9.10752194 Z M67.0014797,7.8291306 L66.8293058,7.8291306 C66.2467811,7.8291306 65.8048725,7.68278424 65.5035666,7.39008712 C65.2022608,7.09738999 65.0501753,6.65548136 65.0473058,6.06434796 C65.0473058,5.97252141 65.0501753,5.82115335 65.0559145,5.61023925 C65.0616536,5.39932515 65.0645231,5.14178424 65.0645231,4.8376088 C65.0645231,4.65682528 65.0630884,4.46241418 65.0602188,4.25436966 C65.0573492,4.04632513 65.0530449,3.83397943 65.0473058,3.61732617 C65.0415666,3.4006729 65.0336754,3.18402289 65.0236318,2.96736963 C65.0135883,2.75071637 65.0013928,2.5412402 64.9870449,2.33893483 C64.972697,2.13662947 64.9554798,1.94724006 64.9353927,1.77076091 C64.9153057,1.59428176 64.8923494,1.4386094 64.8665231,1.30373916 L65.9469145,0.980913065 C65.9784798,1.14734868 66.0071752,1.3503684 66.0330014,1.5899783 C66.0588276,1.82958819 66.0817839,2.08569433 66.101871,2.3583044 C66.1219581,2.6309131 66.1370231,2.90854213 66.1470667,3.19119572 C66.1571102,3.47384931 66.1621319,3.73999883 66.1621319,3.98965226 C66.1621319,4.14173998 66.1635666,4.30315141 66.1664362,4.4738914 C66.1693058,4.64463139 66.1707406,4.79456468 66.1707406,4.92369576 C66.1707406,5.03273978 66.1700232,5.13532572 66.1685884,5.23145664 C66.1671536,5.32758755 66.1657188,5.42013011 66.164284,5.50908708 C66.1628493,5.59804404 66.1614145,5.68556491 66.1599797,5.7716523 C66.1585449,5.85773969 66.1578275,5.94526055 66.1578275,6.03421752 L66.1578275,6.10308709 C66.1578275,6.20639196 66.1685883,6.29821713 66.1901101,6.37856536 C66.211632,6.45891359 66.2496533,6.52563031 66.3041754,6.57871753 C66.3586974,6.63180476 66.4282836,6.66982612 66.5129362,6.69278275 C66.5975888,6.71573939 66.6958705,6.72721754 66.8077841,6.72721754 L67.0014797,6.72721754 L67.0014797,7.8291306 Z M60.187697,6.72721754 C60.4890028,6.72721754 60.778826,6.71789154 61.0571752,6.69923928 C61.3355245,6.68058701 61.5894784,6.65404379 61.8190448,6.61960884 C62.0486112,6.58517388 62.2466092,6.5435656 62.4130448,6.49478275 C62.5794804,6.4459999 62.7043053,6.3914787 62.7875231,6.33121753 L62.3484796,6.33121753 C62.0959566,6.33121753 61.8556329,6.29893524 61.6275013,6.2343697 C61.3993698,6.16980416 61.1992196,6.0729573 61.0270448,5.94382622 C60.85487,5.81469513 60.7178497,5.6532837 60.6159796,5.45958707 C60.5141095,5.26589045 60.4631752,5.03991444 60.4631752,4.78165228 C60.4631752,4.62956456 60.4789577,4.47317481 60.5105231,4.31247835 C60.5420884,4.1517819 60.5894358,3.99539215 60.6525665,3.84330443 C60.7156973,3.69121671 60.79174,3.54773988 60.880697,3.41286964 C60.9696539,3.2779994 61.0715225,3.15963101 61.1863057,3.05776094 C61.3010889,2.95589086 61.4273485,2.87554383 61.5650883,2.81671745 C61.7028281,2.75789107 61.852044,2.72847832 62.0127405,2.72847832 C62.2107415,2.72847832 62.3958266,2.7700866 62.5680014,2.85330441 C62.7401761,2.93652222 62.8965659,3.04915153 63.0371753,3.19119572 C63.1777847,3.33323991 63.3026095,3.49752088 63.4116535,3.68404356 C63.5206976,3.87056623 63.6125227,4.06712949 63.6871318,4.27373922 C63.7617409,4.48034896 63.8184142,4.69054251 63.8571536,4.90432619 C63.8958929,5.11810988 63.9152623,5.32112959 63.9152623,5.51339142 C63.9152623,5.8405235 63.8700671,6.12460762 63.7796753,6.36565231 C63.6892835,6.606697 63.5630239,6.81330363 63.4008927,6.98547841 C63.2387614,7.15765319 63.0450677,7.29826048 62.8198057,7.40730451 C62.5945437,7.51634853 62.3456114,7.60243463 62.0730013,7.66556538 C61.8003913,7.72869614 61.5084159,7.77173918 61.1970665,7.79469582 C60.8857172,7.81765246 60.5636117,7.8291306 60.2307404,7.8291306 L60.0843926,7.8291306 L60.0843926,6.72721754 L60.187697,6.72721754 Z M62.0127405,3.83900008 C61.9983926,3.8361305 61.9840449,3.83469574 61.969697,3.83469574 C61.9123054,3.83469574 61.8463061,3.85765203 61.771697,3.9035653 C61.6970879,3.94947858 61.6253495,4.01547792 61.5564796,4.10156531 C61.4876097,4.1876527 61.4316537,4.28521694 61.38861,4.39426096 C61.3455663,4.50043541 61.3240448,4.6051735 61.3240448,4.70847836 L61.3240448,4.72569575 C61.3240448,4.82900062 61.3470011,4.91293457 61.3929144,4.97750011 C61.4388276,5.04206565 61.5012401,5.09156516 61.5801535,5.12600011 C61.6590669,5.16043507 61.7508921,5.18482613 61.8556318,5.19917403 C61.9603714,5.21352192 62.071566,5.2235653 62.1892187,5.22930446 C62.2666974,5.23217404 62.3470444,5.23360881 62.4302622,5.23360881 C62.4704363,5.23360881 62.5328488,5.23289142 62.6175014,5.23145664 C62.702154,5.23002185 62.7889574,5.22643492 62.8779144,5.22069577 C62.8520882,5.1173909 62.8155016,4.98897914 62.7681535,4.83545663 C62.7208055,4.68193412 62.66198,4.53271821 62.5916753,4.38780444 C62.5213706,4.24289067 62.438154,4.11734845 62.3420231,4.011174 C62.2458922,3.90499955 62.1361324,3.84760882 62.0127405,3.83900008 Z M62.8047405,1.32956525 L61.9783057,2.15600005 L61.1561752,1.32956525 L61.9783057,0.507434794 L62.8047405,1.32956525 Z M60.0930013,7.8291306 C59.8548262,7.8291306 59.6388936,7.80904385 59.4451969,7.76886973 C59.2515003,7.72869562 59.0757412,7.66484843 58.9179143,7.57732625 C58.7600874,7.48980407 58.6194801,7.37789215 58.4960882,7.24158711 C58.3726963,7.10528208 58.2636539,6.94100111 58.1689578,6.74873928 C57.3798234,7.4776125 56.1990091,7.84204365 54.6264794,7.84204365 C53.728301,7.83630449 52.9858084,7.72510995 52.3989794,7.50845668 C51.8121504,7.29180342 51.3795677,6.95821979 51.1012185,6.50769579 C50.9806962,6.29247732 50.8974796,6.06865347 50.8515663,5.83621752 C50.8171314,5.66691232 50.7999141,5.49760966 50.7999141,5.32830446 C50.7999141,5.26230413 50.8049358,5.15469651 50.8149794,5.00547837 C50.8250229,4.85626023 50.8659138,4.66902297 50.9376533,4.44376097 C51.0093928,4.21849897 51.1040875,4.00543587 51.2217402,3.8045653 L52.0524794,4.3253914 C51.9692616,4.46313122 51.9003927,4.60086898 51.8458707,4.7386088 C51.7913487,4.87634862 51.7569142,5.01408638 51.7425663,5.1518262 C51.7368272,5.20347863 51.7339576,5.25513029 51.7339576,5.30678272 C51.7339576,5.39287011 51.7447184,5.49186912 51.7662403,5.60378273 C51.7877621,5.71569634 51.8415659,5.83908641 51.9276533,5.97395665 C52.0080015,6.10882689 52.1299568,6.22360836 52.2935229,6.31830448 C52.4570889,6.41300061 52.6558043,6.4904781 52.8896751,6.55073927 C53.1235458,6.61100044 53.3868258,6.65547826 53.6795229,6.68417406 C53.97222,6.71286985 54.287869,6.72721754 54.6264794,6.72721754 C54.9335245,6.72721754 55.2247824,6.71573939 55.5002621,6.69278275 C55.7757417,6.66982612 56.0318479,6.63323953 56.2685882,6.58302188 C56.5053285,6.53280424 56.7198264,6.46823967 56.9120882,6.38932623 C57.10435,6.31041279 57.2693484,6.21356593 57.4070882,6.09878274 C57.5333497,6.00121703 57.6352183,5.88787034 57.7126969,5.75873926 C57.7901756,5.62960817 57.8547401,5.49402257 57.9063926,5.35197838 C57.958045,5.20993419 58.001088,5.0643052 58.035523,4.91508706 C58.069958,4.76586892 58.1072619,4.62239209 58.147436,4.48465227 L59.1374361,4.75152184 C59.0829141,4.90360956 59.039871,5.05856454 59.0083056,5.21639142 C58.9796098,5.3598704 58.9652621,5.49904292 58.9652621,5.63391317 L58.9652621,5.77380447 C58.9652621,5.85271791 58.9853489,5.95602123 59.025523,6.08371752 C59.0656971,6.21141382 59.1302617,6.32332574 59.2192187,6.41945666 C59.3081756,6.51558758 59.4251093,6.59091291 59.570023,6.64543493 C59.7149368,6.69995694 59.8921307,6.72721754 60.10161,6.72721754 L60.2565665,6.72721754 L60.2565665,7.8291306 L60.0930013,7.8291306 Z M54.9062621,3.45591312 L54.1745229,4.18765226 L53.4341751,3.45160877 L54.1659142,2.71556528 L54.9062621,3.45591312 Z M56.5333056,3.46021747 L55.8015664,4.19626096 L55.0612186,3.45591312 L55.7929577,2.72417397 L56.5333056,3.46021747 Z M46.5859575,0.980913065 C46.657697,1.52900277 46.7079139,2.05197582 46.7366097,2.54984788 C46.7653055,3.04771995 46.7825227,3.53482378 46.7882619,4.011174 C46.794001,4.41578473 46.7961532,4.79025925 46.7947184,5.13460881 C46.7932836,5.47895836 46.7896967,5.79962908 46.7839575,6.09663057 C46.7782184,6.39363206 46.7696098,6.67054234 46.7581314,6.92736972 C46.7466531,7.18419709 46.735175,7.42452078 46.7236967,7.64834799 L45.5959575,7.82052191 C45.6562187,6.87356063 45.6863488,6.03709072 45.6863488,5.31108707 C45.6863488,5.01838995 45.6820445,4.74434921 45.6734358,4.48895662 C45.6504791,3.9006928 45.6246533,3.34758962 45.5959575,2.8296305 C45.5672617,2.31167137 45.528523,1.81595893 45.4797401,1.34247829 L46.5859575,0.980913065 Z M44.1109575,4.96673924 C44.1683491,5.14752275 44.227892,5.33619479 44.2895879,5.53276099 C44.3512839,5.72932719 44.4072398,5.9280426 44.4574575,6.12891318 C44.5076751,6.32978375 44.548566,6.52993393 44.5801314,6.72936971 C44.6116968,6.9288055 44.6274792,7.1232166 44.6274792,7.31260885 C44.6274792,7.57087102 44.5880231,7.82267286 44.5091097,8.06802191 C44.4301962,8.31337097 44.3211538,8.55010774 44.1819792,8.77823932 C44.0428046,9.0063709 43.8778063,9.2237383 43.6869792,9.43034803 C43.4961522,9.63695776 43.2888281,9.83208625 43.0650009,10.0157393 C42.8411737,10.1993924 42.604437,10.3701299 42.3547835,10.5279567 C42.1051301,10.6857836 41.8526109,10.8278257 41.5972183,10.9540872 L41.1065226,9.96839152 C41.3102628,9.86795623 41.5111303,9.75676169 41.7091313,9.63480456 C41.9071323,9.51284742 42.0958044,9.38300089 42.2751531,9.24526107 C42.4545018,9.10752125 42.6209349,8.96260965 42.7744574,8.81052193 C42.92798,8.65843421 43.0599786,8.5006097 43.1704575,8.33704366 C43.2809363,8.17347762 43.3677398,8.00560973 43.4308705,7.83343495 C43.4940013,7.66126017 43.5255662,7.48765321 43.5255662,7.31260885 C43.5255662,7.14904282 43.5069142,6.97687062 43.4696096,6.7960871 C43.4323051,6.61530359 43.3871099,6.43667493 43.3340227,6.26019579 C43.2809355,6.08371664 43.2264143,5.9136966 43.1704575,5.75013056 C43.1145007,5.58656452 43.0678707,5.44165292 43.0305662,5.31539142 L44.1109575,4.96673924 Z M44.2443923,3.13308702 L43.4179575,3.95952182 L42.595827,3.13308702 L43.4179575,2.31095657 L44.2443923,3.13308702 Z" id="app-store-path"></path>
    </defs>
    <g stroke="none" stroke-width="1" fill="none" fill-rule="evenodd">
        <g transform="translate(-291.000000, -188.000000)">
            <g transform="translate(291.000000, 188.000000)">
                <path d="M148.498888,44.000001 C148.498888,44.000001 8.37233843e-14,44.000001 7.8249253e-14,44.000001 C7.27751218e-14,44.000001 -4.26325641e-14,42.0261734 -4.26325641e-14,39.5894062 L-4.26325641e-14,4.41635269 C-4.26325641e-14,1.98073706 -4.26325641e-14,0 2.48281196e-14,0 L148.500003,-1.17239554e-13 C148.498888,-1.17239554e-13 148.498888,1.98073706 148.498888,4.41635269 L148.500003,39.5894062 C148.500003,42.0261734 148.500003,44.000001 148.498888,44.000001 Z" fill="#000000"></path>
                <polygon fill="url(#linearGradient-appstore)" points="0 0 126.500003 0 83.3953519 44.000001 -4.21329647e-14 44.000001"></polygon>
                <g stroke-width="1" transform="translate(11.000000, 6.600000)">
                    <path d="M121.775043,16.3094243 C121.810021,20.64008 125.356546,22.0716739 125.400003,22.0873687 C125.378804,22.1882641 124.8446,24.1534827 123.514388,26.14897 C122.403582,27.9056714 121.239779,29.6231356 119.391262,29.6545253 C117.595741,29.6982467 116.991581,28.5368283 114.932138,28.5368283 C112.853616,28.5368283 112.210239,29.6231356 110.487853,29.6982467 C108.72731,29.7666313 107.382259,27.8227129 106.231176,26.0817063 C103.930068,22.5268243 102.138787,16.0639121 104.540588,11.6659928 C105.704391,9.50907286 107.82637,8.12007923 110.094619,8.08308424 C111.857282,8.04496819 113.492753,9.34203489 114.576001,9.34203489 C115.638051,9.34203489 117.660397,7.79048752 119.745278,8.02254699 C120.6176,8.04945243 123.099955,8.38689156 124.701509,10.8565873 C124.572198,10.9384247 121.744305,12.6962471 121.775043,16.3094243 Z M118.383269,5.68401533 C117.416613,6.89027615 115.870176,7.81290872 114.364016,7.69407634 C114.166869,6.06629687 114.930018,4.33537987 115.784321,3.27934112 C116.749917,2.08092773 118.426726,1.1627794 119.767537,1.10000002 C119.943485,2.79167992 119.309647,4.45869649 118.383269,5.68401533 Z" fill="#FFFFFF"></path>
                    <path d="M44.6993239,14.3000003 C44.6923181,14.3819424 44.6793682,14.4636716 44.6793682,14.5456137 C44.678519,17.8452185 44.6768206,21.1448233 44.680005,24.4444281 C44.6804296,25.1120963 44.7606771,25.7697612 45.0228613,26.3914567 C45.4678313,27.4467002 46.2344282,28.0898923 47.40205,28.1145813 C48.5730686,28.1394832 49.3619563,27.5284295 49.8366477,26.4806352 C50.125581,25.8423384 50.2523211,25.1638156 50.2841653,24.4697556 C50.3234398,23.6186223 50.3100653,22.7685532 50.0746302,21.9391292 C49.5774356,20.1862075 47.7593423,19.3582734 46.1066266,20.1340626 C45.9773391,20.194721 45.8582416,20.2775144 45.7143057,20.3615848 C45.708786,20.2917744 45.7007188,20.2340957 45.7005065,20.1762042 C45.6994451,19.7750073 45.7098475,19.3735976 45.6951992,18.9728264 C45.6888303,18.7995775 45.7499712,18.6812404 45.8977285,18.6301596 C46.2410093,18.5118225 46.5838655,18.3685835 46.9388226,18.3128203 C48.2958114,18.099771 49.5341275,18.3815665 50.5777691,19.3150676 C51.3664446,20.0206207 51.8271245,20.9275172 52.0421792,21.9510481 C52.4436288,23.8616816 52.2582954,25.7116568 51.322075,27.4415922 C50.2062531,29.5035525 48.0605887,29.9366749 46.456064,29.5331368 C45.6406394,29.3277495 45.0491858,28.8005534 44.5753437,28.1245846 C44.527365,28.0562641 44.4570954,28.0034806 44.3972283,27.9434607 C44.3779094,27.9555924 44.3588029,27.9675112 44.3396964,27.9796429 L44.3396964,29.3901106 L42.5946324,29.3901106 L42.5946324,29.0542546 C42.5946324,24.2260578 42.5946324,19.3976482 42.5942078,14.5694514 C42.5942078,14.4796343 42.5899619,14.3896045 42.5876267,14.3000003 L44.6993239,14.3000003 Z M22.1024446,14.3000003 C22.1047798,14.3896045 22.1090257,14.4794215 22.1090257,14.5692385 C22.109238,17.8892756 22.1043552,21.2093127 22.112847,24.529137 C22.1149699,25.3823987 22.2606042,26.2118227 22.7418767,26.9420648 C23.82267,28.5830345 26.1458128,28.5015181 27.1117545,26.7911637 C27.5588476,25.9998375 27.7010851,25.1297617 27.7299572,24.2381895 C27.7558572,23.441968 27.7201917,22.6487262 27.4881534,21.876981 C27.0512505,20.4235203 25.9925359,19.8186388 24.578652,19.8899391 C24.067446,19.9154795 23.5882964,20.0427557 23.1375944,20.3811658 L23.1375944,19.1139371 C23.1375944,18.69997 23.1386559,18.680389 23.5343735,18.5282109 C24.3684801,18.2074663 25.2291235,18.1587267 26.0976219,18.3455972 C27.5679762,18.6616594 28.5965449,19.5557857 29.135137,20.9317739 C30.0437591,23.2523306 29.8624593,25.5398977 28.5999416,27.684013 C27.492187,29.5657008 25.3879201,29.914327 23.8897551,29.5307956 C23.0745428,29.322003 22.4837262,28.7956582 22.0086102,28.1209664 C21.9597824,28.0515817 21.8884513,27.9981597 21.8275227,27.9375013 C21.8092653,27.9487816 21.7907957,27.9604876 21.772326,27.9719808 L21.772326,29.3901106 L20.0321449,29.3901106 L20.0321449,14.3000003 L22.1024446,14.3000003 Z M55.975791,29.7000006 C55.7700773,29.6514739 55.5622406,29.611035 55.3592867,29.5531434 C53.8615463,29.1251292 52.8947554,27.8487485 53.1442019,26.0300603 C53.3503402,24.5272215 54.2663926,23.5758422 55.8044691,23.2772325 C56.621592,23.1186693 57.4554863,23.0450279 58.2819503,22.93414 C58.4381993,22.9134949 58.5950852,22.8983835 58.7689548,22.8788025 L58.7689548,24.3443949 C58.2679388,24.4133539 57.7624647,24.4678401 57.2627226,24.5568058 C56.8642451,24.6276803 56.4602479,24.7047272 56.0813016,24.8422196 C55.1869032,25.1663696 54.8340692,25.8138183 54.9947764,26.7481707 C55.1374385,27.5782332 55.6102192,28.0598823 56.4751086,28.1486351 C57.7008992,28.2748472 58.8018605,27.9579336 59.6922252,27.0650843 C60.0879428,26.6681442 60.2915336,26.1824512 60.2906845,25.6101338 C60.2887738,24.3237498 60.2762484,23.0367272 60.3087295,21.7509817 C60.3399369,20.5195095 59.6809736,20.0685089 58.8203301,19.8884492 C58.2000045,19.7588318 57.5739469,19.740315 56.9517106,19.8750405 C56.0534909,20.0691474 55.5276365,20.6576404 55.3565269,21.6392425 C55.3410293,21.727144 55.3240457,21.8146199 55.3051515,21.9167814 C54.7928839,21.9167814 54.2901697,21.9169942 53.7872431,21.9161429 C53.7401136,21.9161429 53.6929842,21.9074166 53.6469162,21.902947 C53.6303572,20.5112089 54.2474984,19.3169831 55.4828423,18.7461555 C56.1445654,18.4403094 56.8472615,18.3187798 57.5688518,18.2813205 C58.5515648,18.2304526 59.5126237,18.3228237 60.4186983,18.7382806 C61.4967317,19.2326998 62.0554918,20.0727657 62.0552795,21.2716739 C62.0550672,23.298729 62.0550672,25.3255713 62.0552795,27.3524137 C62.0554918,27.9583593 62.2970834,28.181412 62.8974533,28.1258616 C63.0679261,28.1101117 63.2375497,28.0847842 63.4222462,28.0620107 L63.4222462,29.3835127 C62.7738977,29.6316801 62.1119622,29.6770143 61.443658,29.4752453 C60.7878791,29.2773073 60.4927892,28.7860806 60.4095696,28.1367163 C60.4044745,28.0958517 60.398318,28.0551999 60.3915245,28.014761 C60.3908876,28.0107171 60.3811221,28.008163 60.3265623,27.9777274 C60.2102247,28.108409 60.0928256,28.2612257 59.954834,28.3921201 C59.1829298,29.1249163 58.2649667,29.5452685 57.2083751,29.6636056 C57.1695251,29.6680752 57.1319489,29.6874433 57.0937359,29.7000006 L55.975791,29.7000006 Z M-1.42108547e-14,26.0470872 C0.0564704381,25.8216933 0.0995662987,25.5918298 0.171958853,25.3717569 C0.548357675,24.2239294 1.38883311,23.5775449 2.51887875,23.3204383 C3.26870427,23.1497434 4.0427314,23.085254 4.80656838,22.9769202 C5.07214927,22.9392481 5.33942853,22.9122179 5.6226299,22.8783769 L5.6226299,24.3546111 C5.35662441,24.3920703 5.07957959,24.4265498 4.80444543,24.470607 C4.29472542,24.5523362 3.77672592,24.6049068 3.2799559,24.7368655 C2.95556932,24.8228514 2.6328811,24.9871612 2.36178054,25.1874404 C1.83719989,25.5752286 1.78858436,26.1547825 1.88284329,26.7458295 C2.015103,27.573338 2.46262061,28.036896 3.31816898,28.1411859 C4.53376946,28.2895329 5.63048481,27.9770889 6.53422411,27.1142496 C6.97473599,26.6934717 7.1855448,26.1690425 7.18512021,25.5543706 C7.18405874,24.2888446 7.19424889,23.0233185 7.19679643,21.7575797 C7.19891938,20.6497655 6.79216239,20.1312957 5.71646423,19.8927059 C5.1042058,19.7569162 4.48536623,19.7432947 3.8686496,19.8692939 C2.95026195,20.0570157 2.40848541,20.6599817 2.2388618,21.672445 C2.22633641,21.7462993 2.21232494,21.8201536 2.1974643,21.9040112 L0.543474893,21.9040112 C0.502501981,20.7472446 0.997149052,19.4829956 2.14863648,18.8581075 C2.86215957,18.4709579 3.63427605,18.3255905 4.43356627,18.2823847 C5.41649157,18.2291756 6.3771259,18.321121 7.28404963,18.7353009 C8.37269777,19.232487 8.92423987,20.0817048 8.9229661,21.2874238 C8.92084315,23.3142661 8.92232922,25.3408956 8.92232922,27.3675251 C8.92254151,27.9545282 9.17071423,28.1803478 9.76025711,28.1265001 C9.9307299,28.1109631 10.1005658,28.0858484 10.3016091,28.0613722 C10.3016091,28.4895993 10.3039443,28.9016508 10.2969386,29.3134895 C10.296514,29.3486075 10.2400435,29.400114 10.1988583,29.4150125 C9.58341547,29.6372139 8.95757017,29.6648826 8.33045109,29.4775865 C7.76850655,29.3096584 7.44560603,28.9165494 7.33054221,28.3459346 C7.30867584,28.2378136 7.29466437,28.1282028 7.272798,27.9932645 C7.22460706,28.030298 7.18066202,28.0560512 7.14754402,28.0915949 C6.30027515,29.0010455 5.27319253,29.5518664 4.02787076,29.670842 C4.0094011,29.6727576 3.99241751,29.6899973 3.97458474,29.7000006 L2.8568522,29.7000006 C2.80611372,29.6853149 2.75643672,29.6659468 2.70484907,29.6563692 C1.40029703,29.4175666 0.472780698,28.7384052 0.0963818755,27.4147748 C0.0615655152,27.2917552 0.0320565269,27.1672459 -1.42108547e-14,27.043375 L-1.42108547e-14,26.0470872 Z M33.6540459,29.669565 C33.3888896,29.601883 33.1188505,29.5499509 32.8596384,29.4641778 C31.4905487,29.0123258 30.685102,27.7759584 30.7816961,26.3339908 C30.8623682,25.1248665 31.3648702,24.1894499 32.4530937,23.6122372 C32.9273605,23.3608773 33.4398403,23.2229592 33.969516,23.1537873 C34.728258,23.0543927 35.487849,22.9637243 36.2474401,22.8702891 C36.3219556,22.8611371 36.3973203,22.8592216 36.4886071,22.8528365 L36.4886071,24.3137464 C35.98101,24.3827055 35.4681056,24.4361275 34.9617823,24.5263701 C34.549718,24.5995859 34.1317093,24.6789739 33.7404499,24.8224258 C32.8812925,25.137211 32.5462912,25.7429438 32.6666624,26.6613334 C32.7781172,27.5120411 33.2855019,28.0313622 34.1582462,28.1220306 C35.2602689,28.2365366 36.2686696,27.970491 37.1333466,27.2570629 C37.683615,26.8028697 37.9738221,26.2233158 37.9649057,25.4866886 C37.9496205,24.2211626 37.9409164,22.9545723 37.9740344,21.6896848 C38.003968,20.5482425 37.3872513,20.0455226 36.4979481,19.8603548 C35.8839913,19.73244 35.2662132,19.7145618 34.6492843,19.8373684 C33.7578581,20.0146613 33.2120479,20.5997489 33.0341448,21.557939 C33.0154629,21.659462 32.9959317,21.7605594 32.9747022,21.8735756 L31.3003325,21.8735756 C31.2996956,21.4481153 31.3650825,21.0373408 31.4841799,20.6344413 C31.7669567,19.6779539 32.3643545,18.9834683 33.2946306,18.64144 C34.8172095,18.0818927 36.3618671,18.0550753 37.8797754,18.6614466 C39.0427268,19.1262816 39.6078558,20.0270058 39.6089172,21.2801873 C39.6106156,23.300006 39.6093418,25.3198248 39.6093418,27.3398563 C39.6093418,27.8670524 39.8982752,28.14225 40.4258279,28.1075577 C40.65914,28.0924463 40.8913906,28.0596695 41.1399879,28.0330649 L41.1399879,29.3549926 C40.6275081,29.5439915 40.1075979,29.6052884 39.5702796,29.5431401 C38.6593222,29.4375732 38.2047989,28.9676301 38.0685056,27.9472918 C38.0029065,28.0083759 37.9489836,28.0534972 37.9012172,28.1039395 C37.0666861,28.9852956 36.0567993,29.513343 34.8443833,29.6374267 C34.8193325,29.6399807 34.7961923,29.6584975 34.7719907,29.669565 L33.6540459,29.669565 Z M79.2000017,20.3249769 C78.7669202,20.3441322 78.3247099,20.3124196 77.9030923,20.3920205 C76.7426885,20.6108164 75.9000901,21.5668781 75.7644337,22.7566344 C75.7425673,22.9481872 75.7306788,23.1420813 75.7304665,23.3351241 C75.7281312,25.3128011 75.7289804,27.1589453 75.7289804,29.1368352 L75.7289804,29.3901106 L73.916619,29.3901106 L73.916619,18.6876255 L75.6258051,18.6876255 L75.6258051,20.4843915 C75.8393738,20.1815251 76.0053884,19.9233544 76.1941185,19.6828491 C76.732286,18.996877 77.3997411,18.5088428 78.2871337,18.3951881 C78.5915646,18.356239 78.9042749,18.311969 79.2000017,18.4571235 L79.2000017,20.3249769 Z M11.9759788,29.3901106 L11.9759788,14.3000003 L13.7764517,14.3000003 L13.7764517,29.3901106 L11.9759788,29.3901106 Z M15.8788078,29.3901106 L15.8788078,18.6876255 L17.9297887,18.6876255 L17.9297887,29.3901106 L15.8788078,29.3901106 Z M69.7622205,29.3901106 L69.7622205,18.6876255 L71.8142628,18.6876255 L71.8142628,29.3901106 L69.7622205,29.3901106 Z M65.5246024,29.3879823 L65.5246024,27.2023639 L67.6598643,27.2023639 L67.6598643,29.3879823 L65.5246024,29.3879823 Z" fill="#FFFFFF"></path>
                    <g fill-rule="nonzero">
                        <use fill="#000000" xlink:href="#app-store-path"></use>
                        <use fill="#FFFFFF" xlink:href="#app-store-path"></use>
                    </g>
                </g>
            </g>
        </g>
    </g>
</svg>