<?xml version="1.0" encoding="UTF-8"?>
<svg width="210px" height="32px" viewBox="0 0 210 32" version="1.1" xmlns="http://www.w3.org/2000/svg" xmlns:xlink="http://www.w3.org/1999/xlink">
    <title>logo H</title>
    <defs></defs>
    <g id="Home-desktop" stroke="none" stroke-width="1" fill="none" fill-rule="evenodd">
        <g id="alibaba/Home" transform="translate(-200.000000, -3690.000000)">
            <g id="footer" transform="translate(0.000000, 3634.000000)">
                <g id="log-address">
                    <g transform="translate(200.000000, 56.000000)">
                        <g id="icon/ic_logo-copy">
                            <g id="Group-2" stroke-width="1">
                                <path d="M0.053686709,3.79548481 L0.053686709,21.7547774 C0.053686709,22.0717038 0.0338027427,22.3842995 0,22.6925645 C26.9447627,23.3819286 35.6054231,3.01478294 35.6054231,3.01478294 C22.3018566,-2.31509195 9.12276374,0.371498849 0.053686709,3.79548481" id="Fill-1" fill="#231F1F"></path>
                                <path d="M0,6.19354839 C8.93189232,7.65661855 28.4729434,11.9569658 35.6054231,28.1919667 C35.6054231,28.1919667 18.1268087,38.4874105 0.014439008,25.2213947 L0,6.19354839 Z" id="Fill-2" fill="#FFA100"></path>
                            </g>
                            <path d="M137.965758,0 C137.951131,0.170269224 137.924092,0.340096191 137.924092,0.510365415 C137.922319,7.36668694 137.918773,14.2230085 137.925422,21.07933 C137.926309,22.4666925 138.093858,23.8332688 138.641274,25.1251037 C139.570331,27.3178175 141.170915,28.6543203 143.608802,28.7056222 C146.053781,28.7573664 147.700906,27.4876444 148.692018,25.3104096 C149.295284,23.9840787 149.559905,22.5741611 149.626393,21.1319586 C149.708395,19.36337 149.68047,17.5969926 149.188903,15.8735143 C148.150807,12.2310797 144.354795,10.5106971 140.904077,12.1227265 C140.634136,12.24877 140.385472,12.4208082 140.084947,12.5955 C140.073422,12.4504395 140.056579,12.3305876 140.056135,12.2102935 C140.053919,11.3766377 140.075638,10.5425397 140.045054,9.70976837 C140.031756,9.34977058 140.159413,9.10387528 140.467917,8.99773343 C141.184655,8.75183813 141.900508,8.45419868 142.641625,8.33832716 C145.474893,7.89562718 148.060383,8.48117641 150.239411,10.4209188 C151.886093,11.8870032 152.84795,13.7714633 153.296965,15.8982807 C154.135154,19.8684283 153.748195,23.7125325 151.793453,27.3072033 C149.46372,31.5917961 144.98377,32.4917906 141.63367,31.6532699 C139.931138,31.2264912 138.696238,30.1310189 137.706899,28.7264083 C137.606724,28.5844436 137.460007,28.4747637 137.33501,28.350047 C137.294674,28.3752557 137.254782,28.4000221 137.214889,28.4252308 L137.214889,31.3560728 L133.571356,31.3560728 L133.571356,30.6581901 C133.571356,20.6255736 133.571356,10.5925148 133.570469,0.559898281 C133.570469,0.37326552 133.561604,0.186190503 133.556729,0 L137.965758,0 Z M90.7855524,0 C90.7904282,0.186190503 90.7992932,0.372823263 90.7992932,0.559456023 C90.7997365,7.45823429 90.7895417,14.3570125 90.8072718,21.2553486 C90.8117043,23.0283598 91.1157753,24.7518381 92.120628,26.2692244 C94.3772249,29.6790315 99.2277335,29.5096467 101.244531,25.9556637 C102.17802,24.3113494 102.474999,22.5033999 102.535281,20.6507822 C102.589358,18.9962961 102.514892,17.3480015 102.030417,15.744375 C101.118204,12.724197 98.9077054,11.4673006 95.9556459,11.6154569 C94.8882946,11.6685278 93.8878744,11.932998 92.9468501,12.6361877 L92.9468501,10.0029852 C92.9468501,9.14279396 92.9490663,9.10210625 93.7752884,8.78589198 C95.5168262,8.11940959 97.3137706,8.01813257 99.1271152,8.40643485 C102.19708,9.06318757 104.344637,10.9211123 105.469167,13.7803085 C107.366287,18.6022445 106.987749,23.3556305 104.351729,27.8109348 C102.038839,31.7209354 97.6453232,32.4453535 94.5172925,31.6484051 C92.8152042,31.2145503 91.5816333,30.1208469 90.589635,28.7188899 C90.487687,28.5747139 90.3387542,28.4637072 90.2115408,28.3376638 C90.1734212,28.3611034 90.1348582,28.3854276 90.0962953,28.4093095 L90.0962953,31.3560728 L86.4629571,31.3560728 L86.4629571,0 L90.7855524,0 Z M161.509984,32 C161.080473,31.8991652 160.646529,31.8151363 160.22278,31.6948422 C157.095636,30.8054619 155.077065,28.1532423 155.597887,24.37415 C156.028284,21.2513682 157.940918,19.2744762 161.15228,18.6539886 C162.858357,18.3245066 164.599452,18.1714854 166.325033,17.9410692 C166.651266,17.8981702 166.97883,17.8667699 167.341853,17.8260821 L167.341853,20.8714688 C166.295778,21.0147604 165.240395,21.1279783 164.196979,21.3128421 C163.364995,21.4601139 162.521486,21.6202112 161.730281,21.9059097 C159.862859,22.5794682 159.126174,23.9248162 159.461716,25.8663276 C159.759581,27.5911327 160.746704,28.591962 162.552513,28.7763834 C165.111851,29.0386423 167.410557,28.3801205 169.269557,26.5248494 C170.095779,25.7000387 170.520858,24.6908066 170.519085,23.5015755 C170.515096,20.8285698 170.488944,18.1542374 170.556761,15.4825585 C170.621919,12.9236553 169.246065,11.9865111 167.44912,11.6123611 C166.153937,11.3430261 164.846787,11.3045497 163.547614,11.5844989 C161.672215,11.9878379 160.574279,13.2106805 160.217018,15.2503732 C160.18466,15.4330256 160.1492,15.6147935 160.109751,15.8270772 C159.040183,15.8270772 157.990562,15.8275195 156.940497,15.8257505 C156.842095,15.8257505 156.743693,15.8076179 156.647508,15.7983305 C156.612934,12.9064072 157.901468,10.4248991 160.480753,9.23876389 C161.86237,8.60323954 163.329534,8.35071038 164.836149,8.27287302 C166.887963,8.16717342 168.894566,8.35911327 170.786366,9.22240035 C173.0372,10.2497651 174.20384,11.9953563 174.203397,14.4865941 C174.202954,18.6986566 174.202954,22.910277 174.203397,27.1218973 C174.20384,28.381005 174.708261,28.8444911 175.961778,28.7290619 C176.31771,28.6963348 176.671868,28.6437061 177.057498,28.5963845 L177.057498,31.3423628 C175.703806,31.8580353 174.321745,31.9522362 172.926387,31.5329758 C171.557181,31.1216762 170.941061,30.1009453 170.767306,28.751617 C170.756668,28.6667035 170.743814,28.5822323 170.72963,28.4982033 C170.7283,28.4898004 170.70791,28.4844933 170.593994,28.4212505 C170.351092,28.6927967 170.105974,29.0103378 169.81786,29.2823263 C168.206195,30.8050196 166.289572,31.6784786 164.083506,31.9243739 C164.002391,31.9336613 163.923936,31.9739068 163.84415,32 L161.509984,32 Z M44.6376812,24.4095307 C44.7555862,23.9411797 44.8455664,23.4635414 44.9967154,23.0062469 C45.7826015,20.621151 47.5374369,19.2780143 49.8968683,18.7437669 C51.462435,18.3890762 53.0785325,18.2550721 54.6733538,18.029963 C55.2278623,17.9516833 55.7859168,17.8955166 56.3772152,17.8251976 L56.3772152,20.8926972 C55.8218202,20.9705346 55.2433761,21.0421803 54.6689213,21.1337277 C53.6046728,21.3035546 52.5231375,21.4127923 51.4859274,21.6869921 C50.808638,21.8656642 50.1348947,22.2070872 49.5688617,22.6232517 C48.4735855,23.4290453 48.3720808,24.6333131 48.5688848,25.8614628 C48.8450309,27.5809608 49.7794065,28.5441981 51.5657128,28.7609044 C54.1037748,29.0691581 56.3936156,28.4199237 58.2805401,26.6270109 C59.2002884,25.7526674 59.6404378,24.6629443 59.6395513,23.385704 C59.637335,20.7560396 59.6586111,18.1263751 59.6639302,15.4962685 C59.6683627,13.194317 58.8190915,12.1169772 56.5731327,11.6212063 C55.2947934,11.3390458 54.0027133,11.3107413 52.7150657,11.5725579 C50.7975567,11.9626292 49.6663772,13.2155454 49.3122187,15.3193654 C49.2860668,15.4728288 49.2568122,15.6262922 49.2257845,15.8005418 L45.7724067,15.8005418 C45.6868591,13.396871 46.7196367,10.7698601 49.1238365,9.47139145 C50.6136071,8.66692465 52.2257153,8.36486262 53.8945597,8.27508431 C55.9468174,8.16451987 57.9525335,8.35557521 59.8461068,9.21620875 C62.119104,10.2493228 63.2706732,12.0139311 63.2680137,14.5193211 C63.2635811,18.7309415 63.2666839,22.9421195 63.2666839,27.1532976 C63.2671272,28.3730444 63.785289,28.8422798 65.0162003,28.7303886 C65.3721318,28.6981038 65.7267335,28.6459174 66.1464933,28.5950578 C66.1464933,29.4848803 66.1513691,30.3410913 66.1367418,31.19686 C66.1358553,31.2698325 66.0179502,31.3768589 65.9319593,31.4078169 C64.6469712,31.869534 63.3402638,31.9270275 62.0308968,31.5378407 C60.8576083,31.1888993 60.1834217,30.3720493 59.943179,29.1863563 C59.8975241,28.9616894 59.8682694,28.7339267 59.8226144,28.4535353 C59.7219962,28.5304881 59.630243,28.5840013 59.5610957,28.6578584 C57.7920762,30.5476256 55.6476221,31.6921886 53.0475048,31.9394107 C53.0089419,31.943391 52.9734817,31.9792139 52.9362485,32 L50.6025258,32 C50.4965885,31.9694842 50.3928675,31.9292388 50.2851572,31.9093372 C47.5613726,31.413124 45.6248038,30.0018796 44.8389177,27.2514788 C44.7662243,26.9958538 44.7046122,26.7371331 44.6376812,26.4797391 L44.6376812,24.4095307 Z M114.904233,31.9367571 C114.350611,31.7961192 113.786795,31.6882083 113.245584,31.5099784 C110.38705,30.5710653 108.705352,28.0019902 108.907031,25.0056941 C109.075467,22.4932279 110.124645,20.5495052 112.396756,19.3501023 C113.386981,18.8277959 114.456992,18.5412129 115.562906,18.3974791 C117.147089,18.1909448 118.733046,18.002543 120.319002,17.8083918 C120.474584,17.7893748 120.631938,17.7853944 120.822537,17.7721267 L120.822537,20.8077837 C119.762721,20.9510752 118.691823,21.0620819 117.634667,21.2495992 C116.774314,21.4017359 115.901551,21.566698 115.084637,21.8647797 C113.290795,22.5188789 112.591344,23.7775444 112.842668,25.6858865 C113.075375,27.4535906 114.134748,28.5326994 115.956957,28.7211012 C118.257879,28.9590359 120.363327,28.4062137 122.168693,26.9237658 C123.317603,25.9799878 123.923529,24.7757201 123.904912,23.2450661 C123.872998,20.6154016 123.854825,17.9835259 123.923972,15.3551882 C123.986471,12.9833601 122.698823,11.9387473 120.84204,11.5539831 C119.560154,11.2881862 118.270291,11.2510365 116.9822,11.5062192 C115.120984,11.8746199 113.981382,13.0903864 113.609937,15.0814307 C113.570931,15.2923876 113.530152,15.5024601 113.485826,15.7372989 L109.989896,15.7372989 C109.988567,14.8532257 110.125088,13.9996683 110.373753,13.1624744 C110.964165,11.1749682 112.211476,9.73188125 114.153807,9.02117309 C117.332812,7.85847753 120.557915,7.80275305 123.727168,9.06274531 C126.155304,10.0286362 127.335241,11.9002709 127.337457,14.5042844 C127.341003,18.7013102 127.338344,22.898336 127.338344,27.0958041 C127.338344,28.1912765 127.94161,28.7631157 129.043092,28.6910277 C129.530226,28.6596274 130.015144,28.5915197 130.534192,28.5362375 L130.534192,31.2831002 C129.464181,31.6758251 128.378657,31.8031953 127.256785,31.6740561 C125.35479,31.4546962 124.405787,30.4781912 124.121219,28.3580076 C123.984254,28.4849356 123.871668,28.5786942 123.771937,28.6835093 C122.029512,30.5148986 119.920962,31.61214 117.389548,31.8699762 C117.337245,31.8752833 117.28893,31.9137597 117.238399,31.9367571 L114.904233,31.9367571 Z M210,12.5194317 C209.095766,12.5592349 208.172471,12.4933385 207.292172,12.6587429 C204.869356,13.1133838 203.110088,15.1000055 202.82685,17.5722262 C202.781195,17.9702582 202.756373,18.373155 202.75593,18.7742827 C202.751054,22.8837415 202.752827,26.719885 202.752827,30.8297861 L202.752827,31.3560728 L198.968783,31.3560728 L198.968783,9.11714302 L202.537406,9.11714302 L202.537406,12.8506827 C202.983318,12.22135 203.329941,11.6848914 203.723992,11.1851401 C204.847637,9.75974349 206.241221,8.74564653 208.094016,8.5094809 C208.729639,8.42854774 209.38255,8.33655813 210,8.6381779 L210,12.5194317 Z M69.6424233,31.3560728 L69.6424233,0 L73.4016451,0 L73.4016451,31.3560728 L69.6424233,31.3560728 Z M77.7911714,31.3560728 L77.7911714,9.11714302 L82.0734308,9.11714302 L82.0734308,31.3560728 L77.7911714,31.3560728 Z M190.294781,31.3560728 L190.294781,9.11714302 L194.579257,9.11714302 L194.579257,31.3560728 L190.294781,31.3560728 Z M181.447024,31.3516502 L181.447024,26.8101056 L185.905255,26.8101056 L185.905255,31.3516502 L181.447024,31.3516502 Z" id="Combined-Shape" fill="#231F20"></path>
                        </g>
                    </g>
                </g>
            </g>
        </g>
    </g>
</svg>
