<?xml version="1.0" encoding="UTF-8"?>
<svg width="40px" height="32px" viewBox="0 0 40 32" version="1.1" xmlns="http://www.w3.org/2000/svg" xmlns:xlink="http://www.w3.org/1999/xlink">
    <defs/>
    <g id="Home-responsive" stroke="none" stroke-width="1" fill="none" fill-rule="evenodd">
        <g id="home-responsive/mobile" transform="translate(-304.000000, -74.000000)">
            <g id="header" transform="translate(0.000000, 60.000000)">
                <g id="logo" transform="translate(247.000000, 14.000000)">
                    <g id="logo-" transform="translate(57.000000, 0.000000)">
                        <g id="logo-alibaba-single" transform="translate(0.000000, 0.500000)">
                            <g>
                                <g id="Group-2">
                                    <polygon id="Rectangle" fill="#FFFFFF" points="6.03773585 5.4916884 32.4528302 5.4916884 32.4528302 25.589146 6.03773585 25.589146 6.03773585 20.074121 7.76772553 16.3407601 6.03773585 15.6976173"/>
                                    <path d="M0.240674706,19.8209149 C0.240674706,19.8209149 5.13341095,14.6578863 5.43003554,6.68589363 L16.6978462,6.68589363 C16.6978462,6.68589363 17.2165469,19.2518887 9.28458573,21.6429239 C9.28458573,21.6429239 11.0266666,20.1624913 9.80328639,16.1005445 C9.80328639,16.1005445 9.61338388,21.2354433 3.57652423,22.7062313 C3.57652423,22.7062313 6.57886727,19.4793384 6.69029767,16.7836974 C6.69029767,16.7836974 4.57704367,19.7831405 0.240674706,19.8209149" id="Fill-29" fill="#000000"/>
                                    <path d="M32.1535567,6.15472215 L32.1535567,25.0595725 L6.50494654,25.0595725 L6.50494654,19.8209952 L6.02312777,19.8209952 L6.02312777,28.8554916 C6.02312777,29.8577171 6.82354332,30.6783043 7.80209057,30.6783043 L30.8564126,30.6783043 C31.8349599,30.6783043 32.6353754,29.8577171 32.6353754,28.8554916 L32.6353754,6.15472215 L32.1535567,6.15472215 Z" id="Fill-30" fill="#000000"/>
                                    <path d="M32.6353754,6.68613474 L32.6353754,2.20625905 C32.6353754,1.03766572 31.7015573,0.0804479302 30.5597881,0.0804479302 L7.50546598,0.0804479302 C6.36369674,0.0804479302 5.42987859,1.03766572 5.42987859,2.20625905 L5.42987859,6.68613474 L32.6353754,6.68613474 Z" id="Fill-31" fill="#FFA500"/>
                                    <path d="M32.6509914,25.0920424 L32.6509914,28.8558131 C32.6509914,28.922521 32.6470678,28.9884251 32.6400053,29.0527219 C38.0985255,29.1973895 39.8531619,24.9280857 39.8531619,24.9280857 C37.1584296,23.8109297 34.4880236,24.37433 32.6509914,25.0920424" id="Fill-32" fill="#000000"/>
                                    <path d="M32.6353754,25.631251 L32.6353754,28.9160109 C32.6353754,29.1539089 32.5890769,29.3805549 32.5074659,29.5887156 C36.2466621,32.3486534 39.9858583,30.2067681 39.9858583,30.2067681 C38.5137214,26.8303852 34.4794701,25.9358568 32.6353754,25.631251" id="Fill-33" fill="#FFA500"/>
                                    <path d="M21.949357,13.3814351 C22.2404885,14.761404 23.5297853,15.7604147 25.0050611,15.5450206 C25.9098445,15.4124086 26.6953504,14.7766745 27.0759401,13.9247426 C27.3388217,13.3356237 27.3694258,12.7722235 27.2713357,12.2562421 L21.949357,13.3814351 Z" id="Fill-34" fill="#000000"/>
                                    <path d="M22.7514205,11.8995559 L27.5201708,10.8868822 C27.5201708,10.8868822 28.3849334,10.6345175 29.151606,11.1657693 C29.151606,11.1657693 28.9287452,11.6214725 28.4100445,11.7476549 L21.7626718,13.038412 L21.466832,13.038412 L21.3185197,12.5827088 L21.6151443,12.5577938 L21.5900332,12.11495 L21.0156173,11.2983814 L20.8947703,10.8274077 L21.2196448,10.757485 L22.7514205,11.8995559 Z" id="Fill-35" fill="#000000"/>
                                    <path d="M20.9167425,21.9468064 L16.2523601,21.9468064 L16.2523601,21.3392021 L20.8720133,21.3392021 C21.0619159,21.3070538 22.572504,21.0313815 23.8492453,20.1746273 L24.1741199,20.6825716 C22.7035525,21.6695267 21.0093395,21.9331433 20.9379299,21.9435915 L20.9167425,21.9468064 Z" id="Fill-36" fill="#000000"/>
                                </g>
                            </g>
                        </g>
                    </g>
                </g>
            </g>
        </g>
    </g>
</svg>